<svg xmlns="http://www.w3.org/2000/svg" viewBox="0 0 76.1 74.65"><defs><style>.cls-1,.cls-2{fill:#fff;}.cls-1,.cls-3{stroke:#fff;}.cls-1{stroke-miterlimit:10;}.cls-3{fill:none;stroke-linecap:round;stroke-linejoin:round;stroke-width:0.5px;}</style></defs><g id="Layer_2" data-name="Layer 2"><g id="Layer_2-2" data-name="Layer 2"><path class="cls-1" d="M75.49,35.23a37.53,37.53,0,0,1-20.84,36.5L55,33.07h1.46a2.66,2.66,0,0,0,2.66-2.66V28.94a2.67,2.67,0,0,0-2.66-2.66H39.55L31.81,11.15a.78.78,0,0,0-1-.34l-2.89,1.48a.78.78,0,0,0-.34,1l6.62,13H21.62A2.67,2.67,0,0,0,19,28.94v1.47a2.66,2.66,0,0,0,2.66,2.66h2.91L27.06,74A37.55,37.55,0,1,1,75.49,35.23Z"/><path class="cls-2" d="M50.53,53.53a2.91,2.91,0,1,1-2.91-2.91A2.91,2.91,0,0,1,50.53,53.53Z"/><circle class="cls-2" cx="34.38" cy="57.84" r="2.48"/><circle class="cls-2" cx="33.19" cy="48.74" r="1.89"/><circle class="cls-2" cx="42.89" cy="65.63" r="3.25" transform="translate(-30.84 92.3) rotate(-76.72)"/><line class="cls-3" x1="27.8" y1="32.6" x2="51.42" y2="32.6"/></g></g></svg>