<svg xmlns="http://www.w3.org/2000/svg" viewBox="0 0 53.8 75.44"><defs><style>.cls-1,.cls-2{fill:#fff;}.cls-2,.cls-3{stroke:#fff;stroke-width:0.25px;}.cls-2{stroke-linecap:round;stroke-linejoin:round;}.cls-3{fill:none;stroke-miterlimit:10;}</style></defs><g id="Layer_2" data-name="Layer 2"><g id="Layer_2-2" data-name="Layer 2"><rect class="cls-1" y="21.4" width="53.8" height="9.59" rx="3.18"/><path class="cls-1" d="M23.14,22.62c1.65-5.1,3-10.26,4.69-15.36A20.43,20.43,0,0,1,29,4.44,6.85,6.85,0,0,1,30.41,2.2,6.3,6.3,0,0,1,34.26.72C38,.3,41.52.1,43.62,0a.91.91,0,0,1,1,.91V5.74a1,1,0,0,1-.85.94l-8.36.76L31,24"/><path class="cls-2" d="M3,33.91,7.44,72.22a3.5,3.5,0,0,0,3.48,3.1H27.05l15.84-.06a3.52,3.52,0,0,0,3.47-3.1l4.51-38.25Zm9.84,18.54a6,6,0,1,1,6,6A6,6,0,0,1,12.79,52.45ZM26.05,71.52a5.28,5.28,0,1,1,5.28-5.28A5.27,5.27,0,0,1,26.05,71.52ZM37.2,61A5.78,5.78,0,1,1,43,55.18,5.78,5.78,0,0,1,37.2,61Z"/><circle class="cls-3" cx="37.2" cy="55.18" r="5.78" transform="translate(-23.23 83.06) rotate(-80.78)"/><circle class="cls-3" cx="18.79" cy="52.45" r="6"/><path class="cls-3" d="M31.33,66.24A5.28,5.28,0,1,1,26.05,61,5.27,5.27,0,0,1,31.33,66.24Z"/></g></g></svg>