<svg xmlns="http://www.w3.org/2000/svg" viewBox="0 0 37.28 51.17"><defs><style>.cls-1,.cls-2{fill:none;stroke:#231f20;stroke-linecap:round;stroke-linejoin:round;}.cls-1{stroke-width:2.5px;}.cls-2{stroke-width:2px;}</style></defs><g id="Layer_2" data-name="Layer 2"><g id="Icons"><path class="cls-1" d="M1.25,11.17H35.82L36,17.23l-2.61,1.88c-.31,10.27-2.09,20.54-2.4,30.81H9.81q-3-15.3-6-30.6l-2.61-2Z"/><line class="cls-1" x1="8.77" y1="19.84" x2="29.45" y2="19.84"/><path class="cls-1" d="M23.82,11.17l3.33-9.92,3.87,1q-1.24,4.44-2.47,8.88"/><path class="cls-2" d="M21.93,28.93a2.94,2.94,0,0,1,5.22,2.51"/><path class="cls-2" d="M12.44,31.75a2.18,2.18,0,0,0-2,.94,2.21,2.21,0,0,0,.21,2.61"/><circle class="cls-2" cx="24.77" cy="39.44" r="2.65"/><circle class="cls-2" cx="16.84" cy="35.3" r="1.8"/><circle class="cls-2" cx="15.9" cy="44.83" r="2.74"/></g></g></svg>