<svg width="28" height="36" viewBox="0 0 28 36" fill="none" xmlns="http://www.w3.org/2000/svg">
<path d="M10.2794 26.5074C7.37939 26.2387 4.53248 28.4426 3.47152 29.5782H1.08436C0.424208 29.4823 0.10199 29.8581 0.0234004 30.058V34.7603C-0.118061 35.2401 0.416349 35.584 0.701236 35.6959C6.51687 35.6879 18.2248 35.6768 18.5313 35.6959C18.8378 35.7151 19.3663 35.464 19.5922 35.3361L27.7263 28.4746C28.2511 26.5047 26.1511 26.5071 25.9063 26.5074L25.899 26.5074C25.6928 26.5074 23.7537 27.8524 22.6928 28.812C21.844 29.5797 20.329 30.6418 19.5922 31.0657H12.9318C11.8944 30.5091 12.4995 29.8421 12.9318 29.5782H17.2345C19.7101 28.1196 18.266 26.9232 17.2345 26.5074H10.2794Z" fill="#DEDEDE"/>
<path d="M21.4205 4.85145C16.9387 4.92078 7.59413 5.10655 6.0696 5.29499C5.16345 5.3649 5.02359 5.98239 5.00358 6.62078C4.98553 7.1969 5.62835 7.83767 6.32073 7.85849L21.3396 7.43158C22.4535 7.46508 22.9259 6.81368 22.7769 5.79747C22.6577 4.98451 21.823 4.82805 21.4205 4.85145Z" stroke="#DEDEDE" stroke-width="1.5"/>
<path d="M9.30005 4.60606L8.55695 0.395613L9.93056 0L10.6962 4.49303L9.30005 4.60606Z" fill="#DEDEDE"/>
<path d="M11.0813 14.7611L9.77708 7.74896L11.2417 6.98507L12.6034 14.4698L11.0813 14.7611Z" fill="#DEDEDE"/>
<path d="M7.48734 7.48486L9.71213 23.0303L20.4849 22.647L21.3924 8.06062" stroke="#DEDEDE" stroke-width="1.5"/>
<ellipse cx="11.7658" cy="20.7273" rx="1.06962" ry="1.15152" fill="#DEDEDE"/>
<ellipse cx="14.9747" cy="14.9697" rx="1.06962" ry="1.15152" fill="#DEDEDE"/>
<ellipse cx="18.1835" cy="17.2727" rx="1.06962" ry="1.15152" fill="#DEDEDE"/>
<ellipse cx="16.0443" cy="18.4242" rx="1.06962" ry="1.15152" fill="#DEDEDE"/>
<ellipse cx="11.7658" cy="17.2727" rx="1.06962" ry="1.15152" fill="#DEDEDE"/>
<ellipse cx="18.1835" cy="20.7273" rx="1.06962" ry="1.15152" fill="#DEDEDE"/>
<path d="M10.6962 11.5151C13.1119 12.2527 18.6331 13.7459 21.3924 13.8182" stroke="#DEDEDE" stroke-width="1.5"/>
<path d="M11.5 12L7.48732 10.3636" stroke="#DEDEDE" stroke-width="1.5"/>
</svg>
