<svg width="99" height="111" viewBox="0 0 99 111" fill="none" xmlns="http://www.w3.org/2000/svg">
<path d="M83.0851 26.4785C80.354 25.187 76.0493 23.408 70.8131 22.3581C68.5378 21.8999 66.0921 21.5791 63.5157 21.4999H63.5117C60.9788 21.4166 58.3191 21.5624 55.592 22.0373C55.588 22.0415 55.588 22.0415 55.584 22.0373C53.8122 22.3456 52.0047 22.7914 50.1892 23.3997C48.5958 23.9329 46.2294 24.762 43.5538 26.2618H43.5498C43.312 26.3951 43.0742 26.5326 42.8324 26.6784H42.8284C42.7848 26.7034 42.7412 26.7326 42.6976 26.7576C42.6302 26.7993 42.5589 26.8409 42.4875 26.8826C42.4519 26.9034 42.4122 26.9284 42.3726 26.9534C42.0317 27.1575 41.5005 27.4783 40.7989 27.9574C40.6919 28.0283 40.5849 28.1033 40.4699 28.1824C38.7774 29.3656 36.3475 31.3779 33.775 34.065C33.7671 34.0734 33.7631 34.0775 33.7552 34.0859C33.3866 34.465 33.0179 34.8649 32.6493 35.2774C27.6826 40.8392 22.494 48.0675 20.2504 52.8877C22.6208 61.345 30.0649 67.5193 38.8804 67.5193C45.4881 67.5193 51.3229 64.053 54.8309 58.7537C54.7437 58.7203 54.6565 58.687 54.5653 58.6537C53.5744 58.2787 52.4407 57.8038 51.2278 57.208C51.0613 57.1289 50.8948 57.0455 50.7283 56.9622C50.7125 56.9539 50.6966 56.9456 50.6808 56.9372C50.5143 56.8539 50.3438 56.7664 50.1734 56.6706C50.0466 56.6081 49.9237 56.5414 49.8008 56.4748C49.6898 56.4165 49.5788 56.354 49.4678 56.2915C49.341 56.2206 49.2141 56.1498 49.0873 56.0748C48.905 55.9748 48.7187 55.8665 48.5363 55.754C48.35 55.6457 48.1637 55.5332 47.9814 55.4166C47.7951 55.3041 47.6088 55.1874 47.4225 55.0625C46.8398 54.6875 46.2571 54.2834 45.6784 53.8543C45.5159 53.7334 45.3534 53.6126 45.1909 53.4835C45.0521 53.3752 44.9134 53.2668 44.7747 53.1544C44.632 53.0419 44.4893 52.9252 44.3466 52.8044C43.7441 52.3045 43.1455 51.767 42.5668 51.2004C42.4281 51.0629 42.2933 50.9255 42.1546 50.7838C41.9405 50.563 41.7265 50.3339 41.5164 50.1047C41.3459 49.9131 41.1755 49.7214 41.0051 49.5256C40.8386 49.3298 40.6721 49.1298 40.5096 48.9257C40.3867 48.7757 40.2638 48.6174 40.1449 48.4591C39.911 48.1633 39.693 47.8592 39.479 47.5509C39.1975 47.1551 38.932 46.7468 38.6743 46.326C38.5356 46.0969 38.4008 45.8677 38.27 45.6344C38.2502 45.6011 38.2383 45.5678 38.2304 45.5345C38.1432 45.2512 38.4048 44.972 38.6743 45.0637C38.706 45.072 38.7338 45.0845 38.7655 45.1012C38.8487 45.1512 38.9399 45.2053 39.035 45.2595C39.3482 45.4428 39.7128 45.6469 40.1172 45.8677C40.3946 46.0177 40.6919 46.176 41.0051 46.3344C42.4479 47.0843 44.2673 47.9342 46.2849 48.6674C46.6139 48.7882 46.9468 48.9049 47.2877 49.0174C47.7237 49.1632 48.1637 49.3007 48.6116 49.4298C48.897 49.5131 49.1824 49.5923 49.4718 49.6631C50.0426 49.8131 50.6253 49.9464 51.208 50.0589C51.4854 50.1131 51.7629 50.1631 52.0404 50.2089C53.4039 50.4297 54.7873 50.538 56.1469 50.4797C56.3411 50.4755 56.5393 50.463 56.7335 50.4464C56.9476 50.4339 57.1616 50.413 57.3757 50.388C57.5858 50.363 57.7998 50.3339 58.0099 50.3005C58.0495 50.1047 58.0931 49.9006 58.1486 49.7006C58.1486 49.6964 58.1526 49.6881 58.1526 49.6839C59.0643 45.8969 60.844 41.9682 64.1776 38.8853C68.0582 35.294 72.3193 33.6901 75.8075 33.0068C78.6892 32.4402 81.0398 32.4986 82.213 32.5819C82.5341 32.6027 82.8116 32.3569 82.8552 32.0236C83.0573 30.4113 83.2595 28.7948 83.4577 27.1825C83.4973 26.8867 83.3427 26.5993 83.0851 26.4785ZM51.0613 31.0446C50.5737 31.0446 50.1813 30.628 50.1813 30.1155C50.1813 29.6031 50.5737 29.1865 51.0613 29.1865C51.5488 29.1865 51.9452 29.6031 51.9452 30.1155C51.9452 30.628 51.5488 31.0446 51.0613 31.0446Z" fill="#D1D3D4"/>
<path d="M40.7989 27.9574C40.6919 28.0283 40.5849 28.1033 40.4699 28.1824C38.7774 29.3656 36.3475 31.3779 33.775 34.065C33.0853 32.8235 32.9347 30.1113 33.775 28.2699C33.7829 28.2532 33.7909 28.2366 33.8028 28.2199C33.89 28.0824 34.0802 27.8116 34.1397 27.7241C34.3022 27.4825 34.4845 27.2659 34.6946 27.0826H34.6986C34.8096 26.9742 34.9245 26.8826 35.0474 26.7993C35.1544 26.7284 35.2654 26.6618 35.3764 26.6118H35.3804C36.3079 26.1535 37.3107 26.2368 37.7428 26.2952C37.7983 26.2993 37.8419 26.3076 37.8776 26.3118C38.1194 26.3493 38.377 26.3743 38.595 26.4451C38.6862 26.4743 38.7734 26.5035 38.8606 26.5368C39.1381 26.6409 39.3957 26.7701 39.6296 26.9117H39.6335C39.7009 26.9534 39.7644 26.9909 39.8238 27.0326C39.9031 27.0867 39.9824 27.1409 40.0537 27.195C40.0815 27.2159 40.1092 27.2367 40.133 27.2575C40.3827 27.4492 40.6205 27.7533 40.7989 27.9574Z" fill="#C0C2C4"/>
<path d="M61.6447 5.41438C59.6747 4.98527 57.7007 4.55199 55.7267 4.12287C51.7351 3.24798 47.7436 2.37309 43.748 1.50236C43.312 1.40654 42.8522 1.54402 42.5311 1.87315C40.4897 3.94373 38.4444 6.01431 36.403 8.08489H36.3991C36.3436 8.14321 36.292 8.19737 36.2366 8.25153C36.185 8.30569 36.1295 8.35985 36.078 8.41401C30.2512 14.3216 24.4204 20.2334 18.5935 26.141C18.2408 26.5035 18.4231 27.1325 18.9106 27.2242C21.6576 27.7283 26.0138 28.2657 31.3452 28.1449C32.1578 28.1283 33.0972 27.9783 33.9494 27.9241C33.8939 28.0199 33.8464 28.1199 33.8028 28.2199C33.89 28.0824 34.0802 27.8116 34.1397 27.7241C34.3022 27.4825 34.4845 27.2659 34.6946 27.0826H34.6986C34.8096 26.9742 34.9245 26.8826 35.0474 26.7993C35.1544 26.7284 35.2654 26.6618 35.3764 26.6118H35.3804C36.3079 26.1535 37.3108 26.2368 37.7428 26.2951C37.7983 26.2993 37.8419 26.3076 37.8776 26.3118C38.1194 26.3493 38.377 26.3743 38.595 26.4451C38.6862 26.4743 38.7734 26.5035 38.8606 26.5368C39.1381 26.6409 39.3957 26.7701 39.6296 26.9117C39.3957 26.7701 39.035 26.3535 38.7575 26.2493C38.928 23.0955 39.15 20.3084 39.2966 17.1463C38.7179 15.5215 53.1819 9.80967 53.7607 11.4345C56.1429 14.03 58.5688 16.1672 60.955 18.7169C62.2987 17.767 63.5513 16.7838 64.7167 15.7839C66.215 14.5049 67.5667 13.2009 68.7875 11.9177L61.6447 5.41438Z" fill="#4A6B9C"/>
<path d="M77.1869 52.7627C75.6648 66.0694 65.5649 89.4332 44.9253 110.701C44.6002 111.035 44.0968 111.097 43.7084 110.847C19.8263 95.5616 5.95288 72.5311 2.19913 59.7327C-1.05518 48.6382 0.26478 39.4019 0.26478 39.4019C0.415406 38.3603 1.35483 32.0903 4.28411 26.5785C12.735 10.6596 33.9573 8.30571 36.3991 8.0849C36.3436 8.14323 36.292 8.19739 36.2365 8.25155C36.185 8.30571 36.1295 8.35987 36.078 8.41403C30.2512 14.3216 24.4204 20.2334 18.5935 26.141C18.2408 26.5035 18.4231 27.1326 18.9106 27.2242C21.6576 27.7283 26.0138 28.2658 31.3452 28.1449H31.4482C24.3847 31.1987 19.4577 38.577 19.4577 47.1009C19.4577 49.109 19.7351 51.0546 20.2504 52.8877C22.6208 61.345 30.0649 67.5193 38.8804 67.5193C45.4881 67.5193 51.3229 64.053 54.8309 58.7537C54.8784 58.6829 54.922 58.612 54.9656 58.5412C54.9775 58.5287 54.9855 58.5204 54.9934 58.5079C55.0529 58.412 55.1163 58.3162 55.1678 58.2204C55.2352 58.1204 55.2986 58.0204 55.3501 57.9204C55.4453 57.7705 55.5325 57.6163 55.6157 57.4622C55.6554 57.3997 55.691 57.3372 55.7227 57.2747C55.8298 57.0789 55.9368 56.8789 56.0359 56.6789C56.0676 56.6248 56.0953 56.5664 56.1191 56.5123C56.2063 56.3415 56.2896 56.1707 56.3649 55.9957C56.4283 55.8665 56.4878 55.7374 56.5432 55.6082C56.6305 55.4083 56.7137 55.2041 56.7969 55C56.8168 54.9541 56.8326 54.9041 56.8524 54.8583C56.9396 54.6375 57.0189 54.4167 57.0982 54.1917C57.118 54.1459 57.1339 54.0959 57.1458 54.0501C57.225 53.8251 57.2964 53.6001 57.3677 53.371C57.3677 53.3668 57.3717 53.3627 57.3717 53.3543C57.4549 53.0919 57.5302 52.8252 57.5976 52.5586C57.6016 52.5419 57.6056 52.5253 57.6095 52.5086C57.8037 51.7837 57.9544 51.0421 58.0693 50.288C58.0971 50.0922 58.1248 49.8964 58.1486 49.7006C58.1486 49.6965 58.1526 49.6881 58.1526 49.684C59.0642 45.8969 60.844 41.9682 64.1776 38.8853C68.0582 35.2941 72.3193 33.6901 75.8075 33.0068C76.4179 35.1941 78.3007 43.0181 77.1869 52.7627Z" fill="#E47B00"/>
<path d="M63.5117 21.4999C60.9788 21.4165 58.319 21.5624 55.5919 22.0373C55.588 22.0415 55.584 22.0373 55.584 22.0373C53.8122 22.3456 52.0047 22.7914 50.1892 23.3996C48.5958 23.9329 46.2294 24.762 43.5538 26.2618H43.5498C43.312 26.3951 43.0741 26.5326 42.8324 26.6784H42.8284C42.7848 26.7034 42.7412 26.7326 42.6976 26.7576C42.6302 26.7992 42.5589 26.8409 42.4875 26.8825C42.4518 26.9034 42.4122 26.9284 42.3726 26.9534C42.0317 27.1575 41.5005 27.4783 40.7989 27.9574C40.6205 27.7533 40.3827 27.4491 40.133 27.2575C40.1092 27.2367 40.0815 27.2158 40.0537 27.195C39.9824 27.1408 39.9031 27.0867 39.8238 27.0325C39.7644 26.9909 39.7009 26.9534 39.6335 26.9117H39.6296C39.3957 26.7701 39.035 26.3534 38.7575 26.2493C38.928 23.0955 39.15 20.3083 39.2966 17.1462C38.7179 15.5214 53.1819 9.80964 53.7606 11.4344C56.1429 14.03 58.5688 16.1672 60.955 18.7169C61.0699 18.8419 61.1889 18.9668 61.3038 19.0918C62.0411 19.8959 62.7784 20.6958 63.5117 21.4999Z" fill="#668EC9"/>
<path d="M70.8131 22.3581C68.5378 21.8999 66.0921 21.5791 63.5157 21.4999H63.5117C62.7784 20.6958 62.0411 19.8959 61.3038 19.0919C61.1889 18.9669 61.07 18.8419 60.955 18.7169C62.2988 17.767 63.5513 16.7838 64.7167 15.7839C66.437 17.1213 68.0503 18.6919 69.4931 20.5334C69.9608 21.1291 70.4008 21.7415 70.8131 22.3581Z" fill="#F89938"/>
<path d="M57.8989 50.838C57.784 51.4004 57.6888 51.9587 57.6096 52.5086C57.6056 52.5253 57.6016 52.5419 57.5977 52.5586C57.5263 52.8252 57.451 53.0919 57.3717 53.3543C57.3717 53.3627 57.3678 53.3668 57.3678 53.371C57.2964 53.6002 57.2251 53.8251 57.1458 54.0501C57.1339 54.0959 57.1181 54.1459 57.0982 54.1917C57.019 54.4167 56.9397 54.6375 56.8525 54.8583C56.8327 54.9042 56.8168 54.9542 56.797 55C56.7137 55.2041 56.6305 55.4083 56.5433 55.6082C56.4878 55.7374 56.4283 55.8665 56.3649 55.9957C56.2896 56.1707 56.2064 56.3415 56.1192 56.5123C56.0954 56.5665 56.0676 56.6248 56.0359 56.6789C55.9368 56.8789 55.8298 57.0789 55.7228 57.2747C55.6911 57.3372 55.6554 57.3997 55.6158 57.4622C55.5325 57.6163 55.4453 57.7705 55.3502 57.9205C55.2987 58.0204 55.2352 58.1204 55.1678 58.2204C55.1044 58.3287 55.037 58.4371 54.9657 58.5412C54.8706 58.662 54.712 58.7079 54.5654 58.6537C53.5744 58.2787 52.4407 57.8038 51.2278 57.208C51.0613 57.1289 50.8948 57.0456 50.7284 56.9622C50.7125 56.9539 50.6966 56.9456 50.6808 56.9372C50.5103 56.8498 50.3439 56.7623 50.1734 56.6706C50.0466 56.6081 49.9237 56.5415 49.8008 56.4748C49.6898 56.4165 49.5788 56.354 49.4679 56.2915C49.341 56.2207 49.2142 56.1498 49.0873 56.0748C48.901 55.9707 48.7187 55.8624 48.5364 55.7541C48.3501 55.6457 48.1638 55.5332 47.9814 55.4166C47.7951 55.3041 47.6088 55.1833 47.4225 55.0625C46.8398 54.6875 46.2572 54.2834 45.6784 53.8543C45.5159 53.7335 45.3534 53.6126 45.1909 53.4835C45.0522 53.3752 44.9134 53.2669 44.7747 53.1544C44.632 53.0419 44.4893 52.9252 44.3466 52.8044C43.7441 52.3045 43.1455 51.767 42.5668 51.2004C42.4281 51.063 42.2933 50.9255 42.1546 50.7838C41.9405 50.563 41.7265 50.3339 41.5164 50.1047C41.346 49.9131 41.1755 49.7215 41.0051 49.5257C40.8386 49.3298 40.6721 49.1299 40.5096 48.9257C40.3867 48.7757 40.2638 48.6174 40.1449 48.4591C39.9111 48.1633 39.6931 47.8592 39.479 47.5509C39.2015 47.1551 38.936 46.7468 38.6743 46.326C38.5356 46.0969 38.4008 45.8678 38.27 45.6345C38.2502 45.6011 38.2383 45.5678 38.2304 45.5345C38.159 45.2595 38.4088 44.9887 38.6743 45.0637C38.7061 45.072 38.7338 45.0845 38.7655 45.1012C38.8488 45.1512 38.9399 45.2053 39.0351 45.2595C39.3482 45.4428 39.7129 45.647 40.1172 45.8678C40.3946 46.0177 40.6919 46.1761 41.0051 46.3344C42.4479 47.0843 44.2673 47.9342 46.2849 48.6674C46.6139 48.7882 46.9469 48.9049 47.2878 49.0174C47.7238 49.1632 48.1638 49.3007 48.6117 49.4298C48.8971 49.5132 49.1825 49.5923 49.4718 49.6631C50.0426 49.8131 50.6253 49.9464 51.208 50.0589C51.4855 50.1131 51.7629 50.1631 52.0404 50.2089C53.4039 50.4297 54.7873 50.538 56.1469 50.4797C56.3411 50.4755 56.5393 50.463 56.7336 50.4464C56.9476 50.4339 57.1617 50.413 57.3757 50.388C57.4153 50.3839 57.455 50.3797 57.4946 50.3755C57.7443 50.3422 57.9505 50.5755 57.8989 50.838Z" fill="black"/>
<path d="M33.9494 27.9241C33.8939 28.02 33.8464 28.1199 33.8028 28.2199C33.7909 28.2366 33.783 28.2533 33.775 28.2699C32.9347 30.1114 33.0853 32.8235 33.775 34.065C33.7671 34.0734 33.7631 34.0775 33.7552 34.0859C33.3866 34.465 33.0179 34.8649 32.6493 35.2774C27.6826 40.8392 22.494 48.0675 20.2504 52.8877C19.7351 51.0546 19.4577 49.109 19.4577 47.1009C19.4577 38.577 24.3847 31.1987 31.4483 28.1449H31.3452C32.1578 28.1283 33.0972 27.9783 33.9494 27.9241Z" fill="white"/>
<path d="M68.7875 11.9177C69.8657 10.7804 70.8408 9.65551 71.7128 8.57648C72.0101 8.20986 71.8238 7.64326 71.3759 7.54327C68.1335 6.83503 64.8911 6.12678 61.6447 5.41437" fill="#4A6B9C"/>
<path d="M88.357 14.3675C88.357 14.6674 88.2935 14.9507 88.1746 15.2007C87.8813 15.8423 87.259 16.2839 86.5376 16.2839C85.5307 16.2839 84.7142 15.4257 84.7142 14.3675C84.7142 13.3093 85.5307 12.451 86.5376 12.451C86.8903 12.451 87.2233 12.5594 87.5008 12.7427C88.0161 13.0801 88.357 13.6801 88.357 14.3675Z" fill="#E4D65B"/>
<path d="M97.0655 14.33C96.6414 15.334 98.6312 17.013 98.4053 17.3005C98.219 17.5338 96.9069 16.4922 95.7257 15.8923C92.9946 14.5133 90.1565 14.8633 88.1746 15.2007C88.2935 14.9507 88.357 14.6674 88.357 14.3675C88.357 13.6801 88.0161 13.0801 87.5008 12.7427C90.22 10.6846 94.0173 11.4012 97.4024 11.0221C97.4975 11.0137 97.8583 11.0804 97.8979 11.1887C97.8979 11.2179 97.89 11.4345 96.3441 12.4885C96.2806 12.5302 96.3005 12.6344 96.3758 12.651C98.9443 13.1635 99.0038 13.2468 98.9998 13.3926C98.9879 13.6801 97.3945 13.5426 97.0655 14.33Z" fill="#EFE05E"/>
<path d="M51.9452 30.1156C51.9452 30.628 51.5488 31.0446 51.0612 31.0446C50.5737 31.0446 50.1813 30.628 50.1813 30.1156C50.1813 29.6031 50.5737 29.1865 51.0612 29.1865C51.5488 29.1865 51.9452 29.6031 51.9452 30.1156Z" fill="black"/>
<path d="M55.7299 4.11039C56.6955 2.51975 58.004 0.775796 59.1194 1.02368C60.0184 1.22324 60.4164 2.63265 60.6074 3.21341C62.4232 8.73107 69.5566 12.3906 70.8749 13.0668C76.3625 15.8819 81.9075 15.2165 84.7138 14.6308" stroke="#4D4D4F" stroke-width="1.5" stroke-miterlimit="10"/>
</svg>
