<?xml version="1.0" encoding="utf-8"?>
<!-- Generator: Adobe Illustrator 27.0.0, SVG Export Plug-In . SVG Version: 6.00 Build 0)  -->
<svg version="1.1" id="Layer_2_00000178887700949468313650000014208837658869088641_"
	 xmlns="http://www.w3.org/2000/svg" xmlns:xlink="http://www.w3.org/1999/xlink" x="0px" y="0px" viewBox="0 0 210.6 262.9"
	 style="enable-background:new 0 0 210.6 262.9;" xml:space="preserve">
<style type="text/css">
	.st0{fill:none;}
	.st1{fill:#C5C7C8;}
	.st2{fill:#9B9DA0;}
	.st3{fill:#E89723;}
	.st4{fill:#5F5F61;}
	.st5{fill:#121212;}
	.st6{fill:#E9E352;}
	.st7{fill:#4E4E4F;}
	.st8{fill:#FFFFFF;}
	.st9{fill:none;stroke:#656668;stroke-width:4;stroke-miterlimit:10;}
	.st10{fill:#EDEB73;}
</style>
<g id="zot_logo">
	<g>
		<path class="st0" d="M97.6,107.7c0.7,1,1.3,2,2,2.9C98.9,109.6,98.2,108.7,97.6,107.7z"/>
		<path class="st1" d="M209.6,60c-6.9-3.1-17.8-7.4-31-9.9c-5.7-1.1-11.9-1.9-18.4-2.1h0c-6.4-0.2-13.1,0.2-20,1.3
			c-4.6,0.8-4.6,0.8,0,0c-4.5,0.7-9,1.8-13.6,3.3c-4,1.3-10,3.3-16.7,6.9h0c-0.6,0.3-1.2,0.7-1.8,1h0c-0.1,0.1-0.2,0.1-0.3,0.2
			c-0.2,0.1-0.3,0.2-0.5,0.3c-0.1,0-0.2,0.1-0.3,0.2c-0.9,0.5-2.2,1.3-4,2.4c-0.3,0.2-0.5,0.3-0.8,0.5c-4.3,2.8-10.4,7.7-16.9,14.1
			c0,0,0,0-0.1,0.1c-0.9,0.9-1.9,1.9-2.8,2.9c-12.5,13.3-25.6,30.7-31.3,42.3c6,20.3,24.8,35.1,47,35.1c13.6,0,26-5.6,34.8-14.5
			c-4.4-1.9-7.9-3.9-10.4-5.6c-12.2-8.1-18-18.1-22.5-25.8c-0.8-1.4-2.6-4.4-3.3-6.3c0,0,0,0,0,0c-0.1-0.1-0.1-0.2-0.2-0.2
			s-0.1-0.2-0.1-0.2c-0.1-0.2-0.1-0.3,0-0.5c0.1-0.3,0.3-0.5,0.5-0.6c0.2-0.1,0.4-0.1,0.6,0c0.1,0,0.2,0.1,0.2,0.1
			c0.2,0.1,0.4,0.2,0.7,0.4c0.8,0.4,1.7,0.9,2.7,1.5c0.7,0.4,1.4,0.7,2.2,1.1c3.6,1.8,8.2,3.8,13.3,5.6c0.8,0.3,1.7,0.6,2.5,0.8
			c1.1,0.3,2.2,0.7,3.3,1c0.7,0.2,1.4,0.4,2.2,0.6c1.4,0.4,2.9,0.7,4.4,0.9c0.7,0.1,1.4,0.2,2.1,0.4c3.4,0.5,6.9,0.8,10.4,0.7
			c0.5,0,1,0,1.5-0.1c0.5,0,1.1-0.1,1.6-0.1c0.5-0.1,1.1-0.1,1.6-0.2c0.1-0.5,0.2-1,0.4-1.4c0,0,0,0,0,0c2.3-9.1,6.8-18.5,15.2-25.9
			c9.8-8.6,20.5-12.5,29.3-14.1c7.3-1.4,13.2-1.2,16.2-1c0.8,0.1,1.5-0.5,1.6-1.3c0.5-3.9,1-7.8,1.5-11.6
			C210.7,61,210.3,60.3,209.6,60L209.6,60z M128.8,71c-1.2,0-2.2-1-2.2-2.2s1-2.2,2.2-2.2c1.2,0,2.2,1,2.2,2.2S130.1,71,128.8,71z"
			/>
		<path class="st0" d="M85.2,78.3C85.2,78.3,85.2,78.2,85.2,78.3"/>
		<path class="st0" d="M103.1,63.7c-0.1,0-0.1-0.1-0.2-0.2"/>
		<path class="st2" d="M102.9,63.6c-0.3,0.2-0.5,0.3-0.8,0.5c-4.3,2.8-10.4,7.7-16.9,14.1c-1.7-3-2.1-9.5,0-13.9c0,0,0-0.1,0.1-0.1
			c0.2-0.3,0.7-1,0.8-1.2c0.4-0.6,0.9-1.1,1.4-1.5h0c0.3-0.3,0.6-0.5,0.9-0.7c0.3-0.2,0.6-0.3,0.8-0.5h0c2.3-1.1,4.9-0.9,6-0.8
			c0.1,0,0.2,0,0.3,0c0.6,0.1,1.3,0.2,1.8,0.3c0.2,0.1,0.4,0.1,0.7,0.2c0.7,0.2,1.3,0.6,1.9,0.9h0c0.2,0.1,0.3,0.2,0.5,0.3
			c0.2,0.1,0.4,0.3,0.6,0.4c0.1,0,0.1,0.1,0.2,0.2C101.9,62.3,102.5,63.1,102.9,63.6L102.9,63.6z"/>
		<path class="st3" d="M194.7,123.1c-3.8,31.9-29.3,88-81.4,139.1c-0.8,0.8-2.1,1-3.1,0.4C50,225.8,15,170.6,5.6,139.8
			C-2.7,113.2,0.7,91,0.7,91C1,88.5,3.4,73.5,10.8,60.3c21.3-38.2,74.9-43.9,81-44.4c-0.1,0.1-0.3,0.3-0.4,0.4
			c-0.1,0.1-0.3,0.3-0.4,0.4C76.3,30.8,61.6,45,46.9,59.2c-0.9,0.9-0.4,2.4,0.8,2.6c6.9,1.2,17.9,2.5,31.4,2.2h0.3
			c-17.8,7.3-30.2,25-30.2,45.5c0,4.8,0.7,9.5,2,13.9c6,20.3,24.8,35.1,47,35.1c13.6,0,26-5.6,34.8-14.5c2-2,3.8-4.2,5.4-6.5
			c0.1-0.2,0.2-0.3,0.3-0.5c0,0,0.1-0.1,0.1-0.1c0.1-0.2,0.3-0.5,0.4-0.7c0.2-0.2,0.3-0.5,0.5-0.7c0.2-0.4,0.5-0.7,0.7-1.1
			c0.1-0.1,0.2-0.3,0.3-0.4c0.3-0.5,0.5-0.9,0.8-1.4c0.1-0.1,0.1-0.3,0.2-0.4c0.2-0.4,0.4-0.8,0.6-1.2c0.2-0.3,0.3-0.6,0.4-0.9
			c0.2-0.5,0.4-1,0.6-1.5c0.1-0.1,0.1-0.2,0.1-0.3c0.2-0.5,0.4-1.1,0.6-1.6c0.1-0.1,0.1-0.2,0.1-0.3c0.2-0.5,0.4-1.1,0.6-1.6
			c0,0,0,0,0,0c0.2-0.6,0.4-1.3,0.6-1.9c0,0,0-0.1,0-0.1c0.5-1.7,0.9-3.5,1.2-5.3c0.1-0.5,0.1-0.9,0.2-1.4c0,0,0,0,0,0
			c2.3-9.1,6.8-18.5,15.2-25.9c9.8-8.6,20.5-12.5,29.3-14.1C192.8,80.9,197.5,99.7,194.7,123.1L194.7,123.1z"/>
		<path class="st0" d="M139.2,136.2c-0.1,0.2-0.3,0.5-0.4,0.7c0,0,0,0.1-0.1,0.1C138.8,136.7,139,136.5,139.2,136.2L139.2,136.2z"/>
		<path class="st4" d="M160.2,48.1c-6.4-0.2-13.1,0.2-20,1.3c0,0,0,0,0,0c-4.5,0.7-9,1.8-13.6,3.3c-4,1.3-10,3.3-16.7,6.9h0
			c-0.6,0.3-1.2,0.7-1.8,1h0c-0.1,0.1-0.2,0.1-0.3,0.2c-0.2,0.1-0.3,0.2-0.5,0.3c-0.1,0-0.2,0.1-0.3,0.2c-0.9,0.5-2.2,1.3-4,2.4
			c-0.4-0.5-1.1-1.2-1.7-1.7c-0.1,0-0.1-0.1-0.2-0.2c-0.2-0.1-0.4-0.3-0.6-0.4c-0.2-0.1-0.3-0.2-0.5-0.3h0c-0.6-0.3-1.5-1.3-2.2-1.6
			c0.4-7.6,1-14.3,1.4-21.8c-1.5-3.9,35-17.6,36.5-13.7c6,6.2,12.1,11.4,18.1,17.5c0.3,0.3,0.6,0.6,0.9,0.9
			C156.5,44.2,158.4,46.1,160.2,48.1z"/>
		<path class="st3" d="M178.6,50.1c-5.7-1.1-11.9-1.9-18.4-2.1h0c-1.9-1.9-3.7-3.8-5.6-5.8c-0.3-0.3-0.6-0.6-0.9-0.9
			c3.4-2.3,6.6-4.6,9.5-7c4.3,3.2,8.4,7,12.1,11.4C176.5,47.2,177.6,48.6,178.6,50.1z"/>
		<path class="st5" d="M146.1,118.5c-0.3,1.3-0.5,2.7-0.7,4c0,0,0,0.1,0,0.1c-0.2,0.6-0.4,1.3-0.6,1.9c0,0,0,0,0,0
			c-0.2,0.6-0.4,1.1-0.6,1.6c0,0.1-0.1,0.2-0.1,0.3c-0.2,0.5-0.4,1.1-0.6,1.6c-0.1,0.1-0.1,0.2-0.1,0.3c-0.2,0.5-0.4,1-0.6,1.5
			c-0.1,0.3-0.3,0.6-0.4,0.9c-0.2,0.4-0.4,0.8-0.6,1.2c-0.1,0.1-0.1,0.3-0.2,0.4c-0.2,0.5-0.5,1-0.8,1.4c-0.1,0.1-0.2,0.3-0.3,0.4
			c-0.2,0.4-0.4,0.7-0.7,1.1c-0.1,0.2-0.3,0.5-0.5,0.7c-0.2,0.3-0.3,0.5-0.5,0.8c-0.2,0.3-0.6,0.4-1,0.3c-2.5-0.9-5.4-2-8.4-3.5
			c-0.4-0.2-0.8-0.4-1.3-0.6c0,0-0.1,0-0.1-0.1c-0.4-0.2-0.8-0.4-1.3-0.6c-0.3-0.1-0.6-0.3-0.9-0.5c-0.3-0.1-0.6-0.3-0.8-0.4
			c-0.3-0.2-0.6-0.3-1-0.5c-0.5-0.2-0.9-0.5-1.4-0.8c-0.5-0.3-0.9-0.5-1.4-0.8c-0.5-0.3-0.9-0.6-1.4-0.9c-1.5-0.9-2.9-1.9-4.4-2.9
			c-0.4-0.3-0.8-0.6-1.2-0.9c-0.3-0.3-0.7-0.5-1.1-0.8c-0.4-0.3-0.7-0.6-1.1-0.8c-1.5-1.2-3-2.5-4.5-3.8c-0.3-0.3-0.7-0.7-1-1
			c-0.5-0.5-1.1-1.1-1.6-1.6c-0.4-0.5-0.9-0.9-1.3-1.4c-0.4-0.5-0.8-0.9-1.2-1.4c-0.3-0.4-0.6-0.7-0.9-1.1c-0.6-0.7-1.1-1.4-1.7-2.2
			c-0.7-0.9-1.4-1.9-2-2.9c-0.3-0.5-0.6-0.9-0.8-1.4c0,0,0,0,0,0c-0.1-0.1-0.1-0.2-0.2-0.2s-0.1-0.2-0.1-0.2c0-0.2,0-0.3,0-0.4l0,0
			c0.1-0.3,0.3-0.6,0.6-0.7c0.2-0.1,0.4-0.1,0.6,0c0.1,0,0.2,0.1,0.2,0.1c0.2,0.1,0.4,0.2,0.7,0.4c0.8,0.4,1.7,0.9,2.7,1.5
			c0.7,0.4,1.4,0.7,2.2,1.1c3.6,1.8,8.2,3.8,13.3,5.6c0.8,0.3,1.7,0.6,2.5,0.8c1.1,0.3,2.2,0.7,3.3,1c0.7,0.2,1.4,0.4,2.2,0.6
			c1.4,0.4,2.9,0.7,4.4,0.9c0.7,0.1,1.4,0.2,2.1,0.4c3.4,0.5,6.9,0.8,10.4,0.7c0.5,0,1,0,1.5-0.1c0.5,0,1.1-0.1,1.6-0.1
			c0.1,0,0.2,0,0.3,0C145.7,117.3,146.2,117.9,146.1,118.5L146.1,118.5z"/>
		<path class="st0" d="M99.6,110.6c-0.7-0.9-1.4-1.9-2-2.9C98.2,108.7,98.9,109.6,99.6,110.6z"/>
		<path class="st0" d="M139.2,136.2c-0.1,0.2-0.3,0.5-0.4,0.7c0,0,0,0.1-0.1,0.1C138.8,136.7,139,136.5,139.2,136.2L139.2,136.2z"/>
		<path class="st0" d="M85.7,63.5c-0.1,0.2-0.3,0.5-0.4,0.7c0,0-0.1,0.1-0.1,0.1c-2.1,4.4-1.7,10.9,0,13.9c0,0,0,0-0.1,0.1
			c-0.9,0.9-1.9,1.9-2.8,2.9c-12.5,13.3-25.6,30.7-31.3,42.3c-1.3-4.4-2-9.1-2-13.9c0-20.5,12.4-38.2,30.2-45.5h-0.3
			C81.1,64,83.5,63.6,85.7,63.5L85.7,63.5z"/>
		<path class="st6" d="M11.4,81.4c0.7-3.4-6.5-7.3-6-8.3c0.4-0.8,5.2,1.6,9.2,2.7c9.3,2.6,18-0.3,23.9-2.5c-0.2,0.8-0.2,1.8-0.1,2.7
			c0.4,2.1,1.8,3.8,3.7,4.5c-7.2,8-19.5,8.2-29.7,11.4c-0.3,0.1-1.4,0.1-1.6-0.2c0-0.1-0.1-0.8,4-5c0.2-0.2,0.1-0.5-0.2-0.5
			c-8.3,0-8.5-0.2-8.6-0.7C5.8,84.6,10.9,84,11.4,81.4L11.4,81.4z"/>
		<path class="st0" d="M146.5,117.2c-0.1,0-0.1,0-0.1,0"/>
		<path class="st5" d="M131.6,68.7c0,1.6-1.3,2.8-2.8,2.8s-2.8-1.3-2.8-2.8s1.2-2.8,2.8-2.8S131.6,67.2,131.6,68.7z"/>
		<path class="st7" d="M180.9,17c-2.2,2.6-4.7,5.3-7.4,8c-3.1,3.1-6.5,6.2-10.3,9.3c-2.9,2.4-6.1,4.8-9.5,7
			c-6-6.1-12.1-11.2-18.1-17.5c-1.5-3.9-37.9,9.8-36.5,13.7c-0.4,7.6-0.9,14.3-1.4,21.9c0.7,0.2,1.6,1.2,2.2,1.6
			c-0.6-0.3-1.2-0.7-1.9-0.9c-0.2-0.1-0.4-0.2-0.7-0.2c-0.6-0.2-1.2-0.2-1.8-0.3c-0.1,0-0.2,0-0.3,0c-1.1-0.1-3.6-0.3-6,0.8h0
			c-0.3,0.1-0.6,0.3-0.8,0.5c-0.3,0.2-0.6,0.4-0.9,0.7h0c-0.5,0.4-1,1-1.4,1.5c-0.2,0.2-0.6,0.9-0.8,1.2c0.1-0.2,0.2-0.5,0.4-0.7
			c-2.2,0.1-4.5,0.5-6.6,0.5c-13.4,0.3-24.4-1-31.4-2.2c-1.2-0.2-1.7-1.7-0.8-2.6C61.6,45,76.3,30.8,91,16.7
			c0.1-0.1,0.3-0.3,0.4-0.4c0.1-0.1,0.3-0.3,0.4-0.4l0,0c5.2-5,10.3-9.9,15.5-14.9c0.8-0.8,2-1.1,3.1-0.9
			c10.1,2.1,20.2,4.2,30.2,6.3c0,0,0,0,0,0c5,1,9.9,2.1,14.9,3.1c8.2,1.7,16.4,3.4,24.6,5.1C181.2,14.8,181.7,16.2,180.9,17
			L180.9,17z"/>
		<path class="st8" d="M138.3,137.5c-1.6,2.3-3.4,4.5-5.4,6.5c-4.4-1.9-7.9-3.9-10.4-5.6c-12.2-8.1-18-18.1-22.5-25.8
			c-0.8-1.4-2.6-4.4-3.3-6.3c0.3,0.5,0.6,0.9,0.8,1.4c0.7,1,1.3,2,2,2.9c0.5,0.7,1.1,1.5,1.7,2.2c0.3,0.4,0.6,0.8,0.9,1.1
			c0.4,0.5,0.8,1,1.2,1.4c0.4,0.5,0.9,0.9,1.3,1.4c0.5,0.6,1.1,1.1,1.6,1.6c0.3,0.3,0.7,0.7,1,1c1.5,1.4,3,2.7,4.5,3.8
			c0.4,0.3,0.7,0.6,1.1,0.8c0.3,0.3,0.7,0.5,1.1,0.8c0.4,0.3,0.8,0.6,1.2,0.9c1.5,1,2.9,2,4.4,2.9c0.5,0.3,0.9,0.6,1.4,0.9
			c0.5,0.3,0.9,0.6,1.4,0.8c0.5,0.3,0.9,0.5,1.4,0.8c0.3,0.2,0.6,0.4,1,0.5c0.3,0.1,0.6,0.3,0.8,0.4c0.3,0.2,0.6,0.3,0.9,0.5
			c0.4,0.2,0.9,0.4,1.3,0.6c0,0,0.1,0,0.1,0.1c0.4,0.2,0.8,0.4,1.3,0.6c3.1,1.4,5.9,2.6,8.4,3.5
			C137.9,137.3,138.1,137.4,138.3,137.5z"/>
		<path class="st9" d="M87,20.5c-1.1-1.4-3.6-5-7.4-4.6c-2.4,0.2-4.4,3.9-7.8,10.6c-4.7,9.3-6.5,17.8-7.1,20.3
			C62.9,54.6,58,65,44.6,74.9"/>
		<path class="st10" d="M38.5,75.9c-0.2-0.9-0.2-1.8,0.1-2.7c0.5-2.2,2.2-3.9,4.4-4.3c3.1-0.6,6.2,1.5,6.8,4.8
			c0.7,3.3-1.4,6.4-4.5,7c-1.1,0.2-2.2,0.1-3.2-0.3C40.3,79.6,38.9,78,38.5,75.9z"/>
	</g>
</g>
</svg>
