<?xml version="1.0" encoding="UTF-8"?><svg id="Layer_2" xmlns="http://www.w3.org/2000/svg" viewBox="0 0 210.56 262.9"><defs><style>.cls-1,.cls-2{fill:none;}.cls-3{fill:#e9e352;}.cls-4{fill:#e89723;}.cls-5{fill:#edeb73;}.cls-6{fill:#fff;}.cls-7{fill:#c5c7c8;}.cls-8{fill:#121212;}.cls-9{fill:#414042;}.cls-10{fill:#9b9da0;}.cls-11{fill:#5f5f61;}.cls-12{fill:#4e4e4f;}.cls-2{stroke:#656668;stroke-miterlimit:10;stroke-width:2px;}</style></defs><g id="zot_logo"><g><path class="cls-1" d="M97.57,107.66c.65,1.01,1.32,1.99,2.03,2.94-.7-.95-1.37-1.93-2.03-2.94Z"/><path class="cls-7" d="M209.61,60.02c-6.89-3.1-17.75-7.37-30.96-9.89-5.74-1.1-11.91-1.87-18.41-2.06h-.01c-6.39-.2-13.1,.15-19.98,1.29t-.02,0c-4.47,.74-9.03,1.81-13.61,3.27-4.02,1.28-9.99,3.27-16.74,6.87h-.01c-.6,.32-1.2,.65-1.81,1h-.01c-.11,.06-.22,.13-.33,.19-.17,.1-.35,.2-.53,.3-.09,.05-.19,.11-.29,.17-.86,.49-2.2,1.26-3.97,2.41-.27,.17-.54,.35-.83,.54-4.27,2.84-10.4,7.67-16.89,14.12-.02,.02-.03,.03-.05,.05-.93,.91-1.86,1.87-2.79,2.86-12.53,13.35-25.62,30.7-31.28,42.27,5.98,20.3,24.76,35.12,47,35.12,13.63,0,25.96-5.56,34.83-14.54-4.4-1.87-7.87-3.92-10.39-5.6-12.15-8.09-17.99-18.05-22.54-25.82-.81-1.37-2.57-4.39-3.27-6.29,0-.01,0-.02,0-.03-.06-.08-.11-.17-.16-.25-.05-.08-.08-.16-.1-.24-.05-.17-.05-.34-.01-.49,.07-.28,.28-.51,.54-.62,.18-.07,.38-.09,.59-.02,.08,.02,.15,.05,.23,.09,.21,.12,.44,.25,.68,.38,.79,.44,1.71,.93,2.73,1.46,.7,.36,1.45,.74,2.24,1.12,3.64,1.8,8.23,3.84,13.32,5.6,.83,.29,1.67,.57,2.53,.84,1.1,.35,2.21,.68,3.34,.99,.72,.2,1.44,.39,2.17,.56,1.44,.36,2.91,.68,4.38,.95,.7,.13,1.4,.25,2.1,.36,3.44,.53,6.93,.79,10.36,.65,.49-.01,.99-.04,1.48-.08,.54-.03,1.08-.08,1.62-.14,.53-.06,1.07-.13,1.6-.21,.1-.47,.21-.96,.35-1.44,0-.01,.01-.03,.01-.04,2.3-9.09,6.79-18.52,15.2-25.92,9.79-8.62,20.54-12.47,29.34-14.11,7.27-1.36,13.2-1.22,16.16-1.02,.81,.05,1.51-.54,1.62-1.34,.51-3.87,1.02-7.75,1.52-11.62,.1-.71-.29-1.4-.94-1.69Zm-80.79,10.96c-1.23,0-2.22-1-2.22-2.23s.99-2.23,2.22-2.23,2.23,1,2.23,2.23-1,2.23-2.23,2.23Z"/><path class="cls-1" d="M85.23,78.28s-.02-.03-.02-.05"/><path class="cls-1" d="M103.09,63.75c-.05-.05-.11-.11-.16-.18"/><path class="cls-10" d="M102.93,63.57c-.27,.17-.54,.35-.83,.54-4.27,2.84-10.4,7.67-16.89,14.12-1.74-2.98-2.12-9.49,0-13.91,.02-.04,.04-.08,.07-.12,.22-.33,.7-.98,.85-1.19,.41-.58,.87-1.1,1.4-1.54h.01c.28-.26,.57-.48,.88-.68,.27-.17,.55-.33,.83-.45h.01c2.34-1.1,4.87-.9,5.96-.76,.14,.01,.25,.03,.34,.04,.61,.09,1.26,.15,1.81,.32,.23,.07,.45,.14,.67,.22,.7,.25,1.35,.56,1.94,.9h.01c.17,.1,.33,.19,.48,.29,.2,.13,.4,.26,.58,.39,.07,.05,.14,.1,.2,.15,.63,.46,1.23,1.19,1.68,1.68Z"/><path class="cls-4" d="M194.73,123.11c-3.84,31.94-29.32,88.02-81.39,139.07-.82,.8-2.09,.95-3.07,.35C50.02,225.84,15.02,170.56,5.55,139.84-2.66,113.21,.67,91.04,.67,91.04c.38-2.5,2.75-17.55,10.14-30.78C32.13,22.05,85.67,16.4,91.83,15.87c-.14,.14-.27,.27-.41,.4-.13,.13-.27,.26-.4,.39-14.7,14.18-29.41,28.37-44.11,42.55-.89,.87-.43,2.38,.8,2.6,6.93,1.21,17.92,2.5,31.37,2.21h.26c-17.82,7.33-30.25,25.04-30.25,45.5,0,4.82,.7,9.49,2,13.89,5.98,20.3,24.76,35.12,47,35.12,13.63,0,25.96-5.56,34.83-14.54,1.99-2.01,3.8-4.18,5.41-6.5,.12-.17,.23-.34,.34-.51,.03-.03,.05-.05,.07-.08,.15-.23,.31-.46,.44-.69,.17-.24,.33-.48,.46-.72,.24-.36,.46-.73,.67-1.1,.1-.15,.19-.3,.27-.45,.27-.47,.54-.95,.79-1.43,.08-.13,.15-.27,.21-.4,.22-.41,.43-.82,.62-1.24,.16-.31,.31-.62,.45-.93,.22-.48,.43-.97,.64-1.46,.05-.11,.09-.23,.14-.34,.22-.53,.42-1.06,.62-1.6,.05-.11,.09-.23,.12-.34,.2-.54,.38-1.08,.56-1.63,0-.01,.01-.02,.01-.04,.21-.63,.4-1.27,.57-1.91,.01-.04,.02-.08,.03-.12,.49-1.74,.87-3.52,1.16-5.33,.07-.47,.14-.94,.2-1.41,0-.01,.01-.03,.01-.04,2.3-9.09,6.79-18.52,15.2-25.92,9.79-8.62,20.54-12.47,29.34-14.11,1.54,5.25,6.29,24.03,3.48,47.42Z"/><path class="cls-1" d="M139.18,136.21c-.13,.23-.29,.46-.44,.69-.02,.03-.04,.05-.07,.08,.18-.25,.35-.51,.51-.77Z"/><path class="cls-11" d="M160.23,48.07c-6.39-.2-13.1,.15-19.98,1.29-.01,.01-.02,0-.02,0-4.47,.74-9.03,1.81-13.61,3.27-4.02,1.28-9.99,3.27-16.74,6.87h-.01c-.6,.32-1.2,.65-1.81,1h-.01c-.11,.06-.22,.13-.33,.19-.17,.1-.35,.2-.53,.3-.09,.05-.19,.11-.29,.17-.86,.49-2.2,1.26-3.97,2.41-.45-.49-1.05-1.22-1.68-1.68-.06-.05-.13-.1-.2-.15-.18-.13-.38-.26-.58-.39-.15-.1-.31-.19-.48-.29h-.01c-.59-.34-1.5-1.34-2.2-1.59,.43-7.57,.99-14.26,1.36-21.85-1.46-3.9,35.03-17.61,36.49-13.71,6.01,6.23,12.13,11.36,18.15,17.48,.29,.3,.59,.6,.88,.9,1.86,1.93,3.72,3.85,5.57,5.78Z"/><path class="cls-4" d="M178.65,50.13c-5.74-1.1-11.91-1.87-18.41-2.06h-.01c-1.85-1.93-3.71-3.85-5.57-5.78-.29-.3-.59-.6-.88-.9,3.39-2.28,6.55-4.64,9.49-7.04,4.34,3.21,8.41,6.98,12.05,11.4,1.18,1.43,2.29,2.9,3.33,4.38Z"/><path class="cls-8" d="M146.07,118.49c-.29,1.35-.53,2.69-.73,4.01,0,.04-.02,.08-.03,.12-.18,.64-.37,1.28-.57,1.91,0,.02-.01,.03-.01,.04-.18,.55-.36,1.09-.56,1.63-.03,.11-.07,.23-.12,.34-.2,.54-.4,1.07-.62,1.6-.05,.11-.09,.23-.14,.34-.21,.49-.42,.98-.64,1.46-.14,.31-.29,.62-.45,.93-.19,.42-.4,.83-.62,1.24-.06,.13-.13,.27-.21,.4-.25,.48-.52,.96-.79,1.43-.08,.15-.17,.3-.27,.45-.21,.37-.43,.74-.67,1.1-.13,.24-.29,.48-.46,.72-.16,.26-.33,.52-.51,.77-.24,.29-.64,.4-1.01,.27-2.5-.9-5.36-2.04-8.42-3.47-.42-.19-.84-.39-1.26-.59-.04-.02-.08-.04-.12-.06-.43-.21-.85-.42-1.28-.64-.32-.15-.63-.31-.94-.47-.28-.14-.56-.29-.84-.44-.32-.17-.64-.34-.96-.52-.47-.25-.93-.51-1.39-.77-.47-.26-.94-.53-1.4-.81-.47-.27-.94-.56-1.41-.85-1.47-.9-2.94-1.87-4.4-2.9-.41-.29-.82-.58-1.23-.89-.35-.26-.7-.52-1.05-.79-.36-.27-.72-.55-1.08-.84-1.52-1.2-3.03-2.49-4.49-3.85-.35-.33-.69-.66-1.04-1-.54-.53-1.08-1.08-1.61-1.63-.43-.46-.86-.92-1.29-1.39-.42-.47-.84-.95-1.25-1.44-.31-.36-.62-.74-.92-1.12-.59-.71-1.14-1.44-1.68-2.18-.7-.95-1.37-1.93-2.03-2.94-.29-.46-.58-.91-.85-1.38,0-.01,0-.02,0-.03-.06-.08-.11-.17-.16-.25-.05-.08-.08-.16-.1-.24-.04-.15-.04-.3,0-.43h0c.07-.31,.29-.56,.57-.66,.17-.07,.36-.09,.55-.04,.08,.02,.15,.05,.23,.09,.21,.12,.44,.25,.68,.38,.79,.44,1.71,.93,2.73,1.46,.7,.36,1.45,.74,2.24,1.12,3.64,1.8,8.23,3.84,13.32,5.6,.83,.29,1.67,.57,2.53,.84,1.1,.35,2.21,.68,3.34,.99,.72,.2,1.44,.39,2.17,.56,1.44,.36,2.91,.68,4.38,.95,.7,.13,1.4,.25,2.1,.36,3.44,.53,6.93,.79,10.36,.65,.49-.01,.99-.04,1.48-.08,.54-.03,1.08-.08,1.62-.14,.1-.01,.2-.02,.3-.03,.63-.08,1.15,.48,1.02,1.11Z"/><path class="cls-1" d="M99.6,110.6c-.71-.95-1.38-1.93-2.03-2.94,.66,1.01,1.33,1.99,2.03,2.94Z"/><path class="cls-1" d="M139.18,136.21c-.13,.23-.29,.46-.44,.69-.02,.03-.04,.05-.07,.08,.18-.25,.35-.51,.51-.77Z"/><path class="cls-1" d="M85.65,63.49c-.14,.23-.26,.47-.37,.71-.03,.04-.05,.08-.07,.12-2.12,4.42-1.74,10.93,0,13.91-.02,.02-.03,.03-.05,.05-.93,.91-1.86,1.87-2.79,2.86-12.53,13.35-25.62,30.7-31.28,42.27-1.3-4.4-2-9.07-2-13.89,0-20.46,12.43-38.17,30.25-45.5h-.26c2.05-.04,4.42-.4,6.57-.53Z"/><path class="cls-3" d="M14.74,82.99c.58-2.77-5.37-6.02-4.93-6.86,.36-.69,4.25,1.29,7.58,2.21,7.7,2.11,14.8-.22,19.71-2.09-.18,.7-.2,1.45-.05,2.21,.35,1.75,1.52,3.1,3.01,3.69-5.93,6.61-16.03,6.72-24.52,9.41-.24,.07-1.2,.08-1.35-.17-.01-.07-.1-.63,3.33-4.09,.14-.14,.04-.39-.16-.4-6.84,0-7.04-.18-7.1-.55-.11-.74,4.04-1.2,4.49-3.37Z"/><path class="cls-1" d="M146.5,117.17s-.1,.02-.15,.03"/><path class="cls-9" d="M131.05,68.75c0,1.23-1,2.23-2.23,2.23s-2.22-1-2.22-2.23,.99-2.23,2.22-2.23,2.23,1,2.23,2.23Z"/><path class="cls-12" d="M180.92,17.05c-2.2,2.59-4.66,5.29-7.38,8.02-3.08,3.08-6.49,6.21-10.27,9.28-2.94,2.4-6.1,4.76-9.49,7.04-6.02-6.12-12.14-11.25-18.15-17.48-1.46-3.9-37.95,9.81-36.49,13.71-.37,7.59-.93,14.28-1.36,21.85,.7,.25,1.61,1.25,2.2,1.59-.59-.34-1.24-.65-1.94-.9-.22-.08-.44-.15-.67-.22-.55-.17-1.2-.23-1.81-.32-.09-.01-.2-.03-.34-.04-1.09-.14-3.62-.34-5.96,.76h-.01c-.28,.12-.56,.28-.83,.45-.31,.2-.6,.42-.88,.68h-.01c-.53,.44-.99,.96-1.4,1.54-.15,.21-.63,.86-.85,1.19,.11-.24,.23-.48,.37-.71-2.15,.13-4.52,.49-6.57,.53-13.45,.29-24.44-1-31.37-2.21-1.23-.22-1.69-1.73-.8-2.6,14.7-14.18,29.41-28.37,44.11-42.55,.13-.13,.27-.26,.4-.39,.14-.13,.27-.26,.41-.4h0c5.15-4.97,10.31-9.94,15.46-14.91,.81-.79,1.97-1.12,3.07-.89,10.08,2.09,20.15,4.19,30.22,6.29,.01,0,.02,0,.03,.01,4.97,1.02,9.94,2.06,14.9,3.09,8.19,1.71,16.37,3.41,24.55,5.11,1.13,.24,1.6,1.6,.85,2.48Z"/><path class="cls-6" d="M138.33,137.49c-1.61,2.32-3.42,4.49-5.41,6.5-4.4-1.87-7.87-3.92-10.39-5.6-12.15-8.09-17.99-18.05-22.54-25.82-.81-1.37-2.57-4.39-3.27-6.29,.27,.47,.56,.92,.85,1.38,.65,1.01,1.32,1.99,2.03,2.94,.54,.74,1.09,1.47,1.68,2.18,.3,.38,.61,.76,.92,1.12,.41,.49,.83,.97,1.25,1.44,.43,.47,.86,.93,1.29,1.39,.53,.55,1.07,1.1,1.61,1.63,.35,.34,.69,.67,1.04,1,1.46,1.36,2.97,2.65,4.49,3.85,.36,.29,.72,.57,1.08,.84,.35,.27,.7,.53,1.05,.79,.41,.31,.82,.6,1.23,.89,1.46,1.03,2.93,2,4.4,2.9,.47,.3,.94,.58,1.41,.85,.46,.28,.93,.55,1.4,.81,.46,.27,.93,.53,1.39,.77,.32,.18,.64,.35,.96,.52,.28,.15,.56,.3,.84,.44,.31,.16,.62,.32,.94,.47,.43,.23,.86,.44,1.28,.64,.04,.02,.08,.04,.12,.06,.42,.2,.84,.4,1.26,.59,3.06,1.43,5.92,2.57,8.42,3.47,.23,.08,.45,.16,.67,.24Z"/><path class="cls-2" d="M87.03,20.51c-1.08-1.39-3.6-5.01-7.36-4.64-2.41,.24-4.44,3.88-7.82,10.57-4.7,9.32-6.48,17.77-7.08,20.27-1.89,7.93-6.78,18.26-20.2,28.15"/><path class="cls-5" d="M37.05,78.46c-.15-.76-.13-1.51,.05-2.21,.43-1.78,1.8-3.22,3.65-3.58,2.58-.51,5.11,1.25,5.64,3.94s-1.13,5.28-3.71,5.8c-.9,.18-1.81,.07-2.62-.25-1.49-.59-2.67-1.95-3.01-3.69Z"/></g></g></svg>