<svg width="65" height="62" viewBox="0 0 65 62" fill="none" xmlns="http://www.w3.org/2000/svg">
<path d="M54.5508 14.9721C52.7577 14.2636 49.9314 13.2879 46.4934 12.712C44.9996 12.4606 43.3938 12.2846 41.7022 12.2412H41.6996C40.0366 12.1955 38.2903 12.2755 36.4998 12.536C36.4972 12.5383 36.4972 12.5383 36.4946 12.536C35.3312 12.7051 34.1445 12.9496 32.9525 13.2833C31.9063 13.5758 30.3526 14.0306 28.5959 14.8532H28.5933C28.4372 14.9264 28.281 15.0018 28.1223 15.0818H28.1197C28.091 15.0955 28.0624 15.1115 28.0338 15.1252C27.9895 15.148 27.9427 15.1709 27.8959 15.1937C27.8724 15.2052 27.8464 15.2189 27.8204 15.2326C27.5966 15.3446 27.2478 15.5205 26.7872 15.7833C26.7169 15.8222 26.6467 15.8633 26.5712 15.9067C25.4599 16.5557 23.8646 17.6595 22.1755 19.1335C22.1703 19.138 22.1677 19.1403 22.1625 19.1449C21.9205 19.3528 21.6784 19.5722 21.4364 19.7985C18.1755 22.8492 14.7688 26.8141 13.2957 29.4581C14.8521 34.0971 19.7396 37.4838 25.5276 37.4838C29.866 37.4838 33.6969 35.5825 36.0001 32.6757C35.9428 32.6574 35.8856 32.6392 35.8257 32.6209C35.1751 32.4152 34.4308 32.1547 33.6344 31.8279C33.5251 31.7845 33.4158 31.7388 33.3065 31.6931C33.2961 31.6885 33.2857 31.6839 33.2753 31.6794C33.166 31.6337 33.054 31.5857 32.9421 31.5331C32.8589 31.4988 32.7782 31.4623 32.6975 31.4257C32.6246 31.3937 32.5518 31.3594 32.4789 31.3252C32.3956 31.2863 32.3123 31.2475 32.229 31.2063C32.1093 31.1515 31.987 31.0921 31.8673 31.0304C31.745 30.9709 31.6227 30.9092 31.5029 30.8453C31.3806 30.7836 31.2583 30.7196 31.136 30.651C30.7534 30.4453 30.3708 30.2237 29.9909 29.9883C29.8842 29.922 29.7775 29.8558 29.6708 29.7849C29.5797 29.7255 29.4886 29.6661 29.3975 29.6044C29.3038 29.5427 29.2101 29.4787 29.1164 29.4124C28.7209 29.1382 28.3279 28.8434 27.9479 28.5326C27.8568 28.4572 27.7683 28.3818 27.6772 28.3041C27.5367 28.183 27.3962 28.0573 27.2582 27.9316C27.1463 27.8265 27.0344 27.7214 26.9225 27.6139C26.8132 27.5065 26.7039 27.3969 26.5972 27.2849C26.5165 27.2026 26.4358 27.1158 26.3578 27.0289C26.2042 26.8667 26.0611 26.6999 25.9205 26.5307C25.7358 26.3137 25.5614 26.0897 25.3922 25.8589C25.3011 25.7332 25.2127 25.6075 25.1268 25.4795C25.1138 25.4613 25.106 25.443 25.1008 25.4247C25.0435 25.2693 25.2153 25.1162 25.3922 25.1665C25.4131 25.171 25.4313 25.1779 25.4521 25.187C25.5067 25.2145 25.5666 25.2442 25.6291 25.2739C25.8347 25.3744 26.0741 25.4864 26.3396 25.6075C26.5217 25.6898 26.7169 25.7766 26.9225 25.8635C27.8698 26.2748 29.0644 26.741 30.3891 27.1432C30.6051 27.2095 30.8237 27.2734 31.0475 27.3351C31.3338 27.4151 31.6227 27.4905 31.9167 27.5614C32.1041 27.6071 32.2915 27.6505 32.4815 27.6894C32.8563 27.7716 33.2388 27.8448 33.6214 27.9065C33.8036 27.9362 33.9857 27.9636 34.1679 27.9887C35.0632 28.1098 35.9715 28.1693 36.8641 28.1373C36.9916 28.135 37.1218 28.1281 37.2493 28.119C37.3898 28.1121 37.5304 28.1007 37.6709 28.087C37.8088 28.0733 37.9494 28.0573 38.0873 28.039C38.1133 27.9316 38.142 27.8196 38.1784 27.7099C38.1784 27.7076 38.181 27.7031 38.181 27.7008C38.7796 25.6235 39.9481 23.4685 42.1368 21.7775C44.6847 19.8076 47.4824 18.9278 49.7726 18.553C51.6646 18.2422 53.2079 18.2742 53.9783 18.3199C54.1891 18.3314 54.3712 18.1965 54.3999 18.0137C54.5326 17.1293 54.6653 16.2427 54.7955 15.3583C54.8215 15.196 54.72 15.0383 54.5508 14.9721ZM33.5251 17.4767C33.205 17.4767 32.9473 17.2482 32.9473 16.9671C32.9473 16.686 33.205 16.4575 33.5251 16.4575C33.8452 16.4575 34.1055 16.686 34.1055 16.9671C34.1055 17.2482 33.8452 17.4767 33.5251 17.4767Z" fill="#D1D3D4"/>
<path d="M26.7871 15.7833C26.7169 15.8222 26.6466 15.8633 26.5711 15.9067C25.4599 16.5557 23.8645 17.6595 22.1755 19.1335C21.7226 18.4525 21.6237 16.9648 22.1755 15.9547C22.1807 15.9456 22.1859 15.9364 22.1937 15.9273C22.251 15.8519 22.3759 15.7033 22.4149 15.6553C22.5216 15.5228 22.6413 15.404 22.7793 15.3034H22.7819C22.8547 15.244 22.9302 15.1937 23.0109 15.148C23.0812 15.1092 23.154 15.0726 23.2269 15.0452H23.2295C23.8385 14.7938 24.4969 14.8395 24.7806 14.8715C24.817 14.8738 24.8457 14.8784 24.8691 14.8806C25.0278 14.9012 25.197 14.9149 25.3401 14.9538C25.4 14.9698 25.4573 14.9858 25.5145 15.004C25.6967 15.0612 25.8658 15.132 26.0194 15.2097H26.022C26.0662 15.2326 26.1079 15.2531 26.1469 15.276C26.199 15.3057 26.251 15.3354 26.2979 15.3651C26.3161 15.3765 26.3343 15.388 26.3499 15.3994C26.5139 15.5045 26.67 15.6713 26.7871 15.7833Z" fill="#C0C2C4"/>
<path d="M50.6783 29.3896C49.6789 36.6886 43.0477 49.5042 29.4964 61.1703C29.283 61.3531 28.9525 61.3874 28.6974 61.2502C13.0173 52.8657 3.90846 40.233 1.44387 33.2128C-0.692792 27.1272 0.173846 22.0609 0.173846 22.0609C0.272741 21.4896 0.889537 18.0503 2.8128 15.0269C8.36136 6.29508 22.2952 5.00393 23.8984 4.88281C23.8619 4.91481 23.8281 4.94451 23.7917 4.97422C23.7578 5.00393 23.7214 5.03364 23.6876 5.06335C19.8619 8.3038 16.0336 11.5465 12.2079 14.787C11.9763 14.9858 12.096 15.3309 12.4161 15.3811C14.2196 15.6577 17.0798 15.9525 20.5802 15.8862H20.6478C16.0102 17.5613 12.7752 21.6084 12.7752 26.284C12.7752 27.3854 12.9574 28.4527 13.2957 29.4582C14.852 34.0972 19.7396 37.4839 25.5276 37.4839C29.8659 37.4839 33.6968 35.5826 36.0001 32.6758C36.0313 32.6369 36.0599 32.5981 36.0886 32.5592C36.0964 32.5523 36.1016 32.5478 36.1068 32.5409C36.1458 32.4884 36.1875 32.4358 36.2213 32.3832C36.2655 32.3284 36.3072 32.2735 36.341 32.2187C36.4035 32.1364 36.4607 32.0519 36.5154 31.9673C36.5414 31.9331 36.5648 31.8988 36.5856 31.8645C36.6559 31.7571 36.7262 31.6474 36.7912 31.5377C36.8121 31.508 36.8303 31.476 36.8459 31.4463C36.9031 31.3526 36.9578 31.2589 37.0072 31.1629C37.0489 31.0921 37.0879 31.0212 37.1244 30.9504C37.1816 30.8407 37.2363 30.7287 37.2909 30.6168C37.3039 30.5916 37.3143 30.5642 37.3274 30.5391C37.3846 30.4179 37.4367 30.2968 37.4887 30.1734C37.5017 30.1483 37.5121 30.1209 37.5199 30.0957C37.572 29.9723 37.6188 29.8489 37.6657 29.7232C37.6657 29.721 37.6683 29.7187 37.6683 29.7141C37.7229 29.5701 37.7724 29.4239 37.8166 29.2776C37.8192 29.2685 37.8218 29.2593 37.8244 29.2502C37.952 28.8526 38.0509 28.4458 38.1263 28.0322C38.1445 27.9248 38.1628 27.8174 38.1784 27.71C38.1784 27.7077 38.181 27.7031 38.181 27.7008C38.7796 25.6235 39.9481 23.4686 42.1368 21.7775C44.6847 19.8076 47.4824 18.9278 49.7726 18.553C50.1734 19.7528 51.4096 24.0444 50.6783 29.3896Z" fill="#E47B00"/>
<path d="M41.6996 12.2412C40.0366 12.1955 38.2903 12.2755 36.4998 12.536C36.4972 12.5383 36.4946 12.536 36.4946 12.536C35.3312 12.7051 34.1445 12.9496 32.9525 13.2833C31.9063 13.5758 30.3526 14.0305 28.5959 14.8532H28.5933C28.4372 14.9264 28.281 15.0018 28.1223 15.0818H28.1197C28.091 15.0955 28.0624 15.1115 28.0338 15.1252C27.9895 15.148 27.9427 15.1709 27.8959 15.1937C27.8724 15.2052 27.8464 15.2189 27.8204 15.2326C27.5966 15.3446 27.2478 15.5205 26.7872 15.7833C26.6701 15.6713 26.5139 15.5045 26.35 15.3994C26.3343 15.388 26.3161 15.3765 26.2979 15.3651C26.2511 15.3354 26.199 15.3057 26.147 15.276C26.1079 15.2531 26.0663 15.2326 26.022 15.2097H26.0194C25.8659 15.132 25.6291 14.9035 25.4469 14.8464C25.5588 13.1165 25.7045 11.5876 25.8008 9.85315C25.4209 8.96191 34.9174 5.82887 35.2974 6.72011C36.8615 8.1438 38.4543 9.31613 40.021 10.7147C40.0964 10.7832 40.1745 10.8518 40.25 10.9204C40.7341 11.3614 41.2181 11.8002 41.6996 12.2412Z" fill="#668EC9"/>
<path d="M46.4934 12.712C44.9996 12.4606 43.3938 12.2846 41.7022 12.2412H41.6996C41.2181 11.8002 40.734 11.3614 40.25 10.9204C40.1745 10.8518 40.0964 10.7833 40.0209 10.7147C40.9032 10.1937 41.7256 9.65435 42.4907 9.1059C43.6202 9.83945 44.6794 10.701 45.6268 11.7111C45.9339 12.0378 46.2227 12.3738 46.4934 12.712Z" fill="#F89938"/>
<path d="M38.0144 28.3338C37.939 28.6423 37.8765 28.9485 37.8245 29.2502C37.8218 29.2593 37.8192 29.2684 37.8166 29.2776C37.7698 29.4238 37.7204 29.5701 37.6683 29.7141C37.6683 29.7186 37.6657 29.7209 37.6657 29.7232C37.6189 29.8489 37.572 29.9723 37.52 30.0957C37.5121 30.1208 37.5017 30.1483 37.4887 30.1734C37.4367 30.2968 37.3846 30.4179 37.3274 30.539C37.3144 30.5642 37.3039 30.5916 37.2909 30.6167C37.2363 30.7287 37.1816 30.8407 37.1244 30.9504C37.0879 31.0212 37.0489 31.0921 37.0073 31.1629C36.9578 31.2589 36.9032 31.3526 36.8459 31.4463C36.8303 31.476 36.8121 31.508 36.7913 31.5377C36.7262 31.6474 36.6559 31.7571 36.5857 31.8645C36.5648 31.8987 36.5414 31.933 36.5154 31.9673C36.4607 32.0519 36.4035 32.1364 36.341 32.2187C36.3072 32.2735 36.2655 32.3284 36.2213 32.3832C36.1797 32.4426 36.1354 32.502 36.0886 32.5592C36.0261 32.6254 35.922 32.6506 35.8257 32.6209C35.1751 32.4152 34.4308 32.1547 33.6344 31.8279C33.5251 31.7845 33.4158 31.7388 33.3065 31.6931C33.2961 31.6885 33.2857 31.6839 33.2753 31.6794C33.1633 31.6314 33.054 31.5834 32.9421 31.5331C32.8589 31.4988 32.7782 31.4623 32.6975 31.4257C32.6246 31.3937 32.5518 31.3594 32.4789 31.3251C32.3956 31.2863 32.3123 31.2475 32.229 31.2063C32.1067 31.1492 31.987 31.0898 31.8673 31.0304C31.745 30.9709 31.6227 30.9092 31.5029 30.8453C31.3806 30.7835 31.2583 30.7173 31.136 30.651C30.7534 30.4453 30.3708 30.2237 29.9909 29.9883C29.8842 29.922 29.7775 29.8557 29.6708 29.7849C29.5797 29.7255 29.4886 29.6661 29.3975 29.6044C29.3038 29.5427 29.2101 29.4787 29.1164 29.4124C28.7209 29.1382 28.3279 28.8434 27.9479 28.5326C27.8568 28.4572 27.7683 28.3818 27.6772 28.3041C27.5367 28.183 27.3962 28.0573 27.2582 27.9316C27.1463 27.8265 27.0344 27.7213 26.9225 27.6139C26.8132 27.5065 26.7039 27.3968 26.5972 27.2849C26.5165 27.2026 26.4358 27.1158 26.3578 27.0289C26.2042 26.8667 26.0611 26.6999 25.9205 26.5307C25.7384 26.3136 25.564 26.0897 25.3922 25.8589C25.3011 25.7332 25.2127 25.6075 25.1268 25.4795C25.1138 25.4613 25.106 25.443 25.1008 25.4247C25.0539 25.2739 25.2179 25.1253 25.3922 25.1665C25.4131 25.171 25.4313 25.1779 25.4521 25.187C25.5067 25.2145 25.5666 25.2442 25.6291 25.2739C25.8347 25.3744 26.0741 25.4864 26.3395 25.6075C26.5217 25.6898 26.7169 25.7766 26.9225 25.8635C27.8698 26.2748 29.0644 26.741 30.3891 27.1432C30.6051 27.2095 30.8237 27.2734 31.0475 27.3351C31.3338 27.4151 31.6227 27.4905 31.9167 27.5614C32.1041 27.6071 32.2915 27.6505 32.4815 27.6894C32.8562 27.7716 33.2388 27.8448 33.6214 27.9065C33.8036 27.9362 33.9857 27.9636 34.1679 27.9887C35.0632 28.1098 35.9715 28.1693 36.8641 28.1373C36.9916 28.135 37.1218 28.1281 37.2493 28.119C37.3898 28.1121 37.5304 28.1007 37.6709 28.087C37.6969 28.0847 37.723 28.0824 37.749 28.0801C37.9129 28.0618 38.0483 28.1898 38.0144 28.3338Z" fill="black"/>
<path d="M45.1635 6.98521C45.8714 6.36134 46.5116 5.74433 47.0842 5.15246C47.2794 4.95136 47.1571 4.64057 46.863 4.58572C44.7341 4.19723 42.6053 3.80874 40.4738 3.41797" fill="#4B6B9C"/>
<path d="M22.29 15.765C22.2536 15.8176 22.2224 15.8725 22.1937 15.9273C22.1859 15.9364 22.1807 15.9456 22.1755 15.9547C21.6238 16.9648 21.7227 18.4525 22.1755 19.1335C22.1703 19.138 22.1677 19.1403 22.1625 19.1449C21.9205 19.3529 21.6784 19.5722 21.4364 19.7985C18.1755 22.8493 14.7688 26.8141 13.2957 29.4581C12.9574 28.4526 12.7752 27.3854 12.7752 26.2839C12.7752 21.6084 16.0102 17.5612 20.6478 15.8862H20.5802C21.1137 15.877 21.7305 15.7948 22.29 15.765Z" fill="white"/>
<path d="M58.0121 8.32894C58.0121 8.49348 57.9705 8.64888 57.8924 8.78599C57.6998 9.13792 57.2912 9.38015 56.8176 9.38015C56.1565 9.38015 55.6204 8.90939 55.6204 8.32894C55.6204 7.7485 56.1565 7.27774 56.8176 7.27774C57.0492 7.27774 57.2678 7.33716 57.45 7.43771C57.7883 7.62281 58.0121 7.95188 58.0121 8.32894Z" fill="#E4D65B"/>
<path d="M63.7299 8.30838C63.4514 8.85912 64.7579 9.78007 64.6095 9.93775C64.4872 10.0657 63.6258 9.49442 62.8502 9.16534C61.0571 8.40893 59.1937 8.60089 57.8924 8.786C57.9705 8.64888 58.0122 8.49349 58.0122 8.32895C58.0122 7.95189 57.7883 7.62282 57.45 7.43771C59.2353 6.30881 61.7285 6.70187 63.9511 6.49391C64.0136 6.48934 64.2504 6.52591 64.2764 6.58532C64.2764 6.60132 64.2712 6.72015 63.2562 7.29831C63.2146 7.32117 63.2276 7.3783 63.277 7.38744C64.9635 7.66852 65.0025 7.71423 64.9999 7.79421C64.9921 7.95189 63.9459 7.87648 63.7299 8.30838Z" fill="#EFE05E"/>
<path d="M34.1054 16.9671C34.1054 17.2482 33.8452 17.4767 33.5251 17.4767C33.205 17.4767 32.9473 17.2482 32.9473 16.9671C32.9473 16.686 33.205 16.4575 33.5251 16.4575C33.8452 16.4575 34.1054 16.686 34.1054 16.9671Z" fill="black"/>
<path d="M36.309 3.09004C36.943 2.21754 38.0834 0.873597 38.8157 1.00957C39.406 1.11903 40.1945 2.07083 40.4738 2.30186C46.4934 7.2848 46.7651 7.2567 47.5079 7.55126C48.2649 7.85154 53.7776 8.79465 55.6204 8.47335" stroke="#4D4D4F" stroke-miterlimit="10"/>
<path d="M40.4738 3.41793C39.1803 3.18255 37.8843 2.94489 36.5882 2.70951C33.9675 2.22961 31.3468 1.74971 28.7234 1.2721C28.4372 1.21954 28.1353 1.29495 27.9245 1.47549C26.5842 2.61124 25.2413 3.747 23.901 4.88276H23.8984C23.8619 4.91475 23.8281 4.94446 23.7917 4.97417C23.7578 5.00388 23.7214 5.03359 23.6876 5.06329C19.8619 8.30375 16.0336 11.5465 12.2079 14.7869C11.9763 14.9858 12.096 15.3308 12.4161 15.3811C14.2196 15.6576 17.0798 15.9524 20.5802 15.8861C21.1137 15.877 21.7305 15.7947 22.29 15.765C22.2536 15.8176 22.2224 15.8724 22.1937 15.9273C22.251 15.8519 22.3759 15.7033 22.4149 15.6553C22.5216 15.5228 22.6414 15.4039 22.7793 15.3034H22.7819C22.8548 15.244 22.9302 15.1937 23.0109 15.148C23.0812 15.1092 23.1541 15.0726 23.2269 15.0452H23.2295C23.8385 14.7938 24.497 14.8395 24.7806 14.8715C24.8171 14.8738 24.8457 14.8783 24.8691 14.8806C25.0279 14.9012 25.197 14.9149 25.3402 14.9538C25.4 14.9698 25.4573 14.9858 25.5145 15.004C25.6967 15.0612 25.8659 15.132 26.0194 15.2097C25.8659 15.132 25.6291 14.9035 25.4469 14.8464C25.5588 13.1164 25.7045 11.5876 25.8008 9.85313C25.4209 8.96189 34.9174 5.82884 35.2974 6.72008C36.8615 8.14378 38.4542 9.3161 40.021 10.7147C40.9032 10.1936 41.7256 9.65431 42.4907 9.10586C43.4745 8.4043 44.362 7.68902 45.1635 6.98517L40.4738 3.41793Z" fill="#4B6B9C"/>
</svg>
