<?xml version="1.0" encoding="UTF-8"?><svg id="Layer_2" xmlns="http://www.w3.org/2000/svg" viewBox="0 0 99 110.75"><defs><style>.cls-1{fill:none;stroke:#4d4d4f;stroke-miterlimit:10;stroke-width:1.5px;}.cls-2{fill:#c0c2c4;}.cls-3{fill:#d1d3d4;}.cls-4{fill:#d8ca55;}.cls-5{fill:#d6c953;}.cls-6{fill:#3e5596;}.cls-7{fill:#a35b26;}.cls-8{fill:#5b7abc;}.cls-9{fill:#2e2e2e;}</style></defs><g id="Layer_1-2"><path class="cls-3" d="M83.09,26.23c-2.73-1.29-7.04-3.07-12.27-4.12-2.28-.46-4.72-.78-7.3-.86h0c-2.53-.08-5.19,.06-7.92,.54t0,0c-1.77,.31-3.58,.75-5.39,1.36-1.59,.53-3.96,1.36-6.64,2.86h0c-.24,.13-.48,.27-.72,.42h0s-.09,.05-.13,.08c-.07,.04-.14,.08-.21,.12-.04,.02-.08,.05-.11,.07-.34,.2-.87,.52-1.57,1-.11,.07-.21,.15-.33,.23-1.69,1.18-4.12,3.2-6.69,5.88,0,0-.01,.01-.02,.02-.37,.38-.74,.78-1.11,1.19-4.97,5.56-10.16,12.79-12.4,17.61,2.37,8.46,9.81,14.63,18.63,14.63,6.61,0,12.44-3.47,15.95-8.77-.09-.03-.17-.07-.27-.1-.99-.38-2.12-.85-3.34-1.45-.17-.08-.33-.16-.5-.25-.02,0-.03-.02-.05-.03-.17-.08-.34-.17-.51-.27-.13-.06-.25-.13-.37-.2-.11-.06-.22-.12-.33-.18-.13-.07-.25-.14-.38-.22-.18-.1-.37-.21-.55-.32-.19-.11-.37-.22-.55-.34-.19-.11-.37-.23-.56-.35-.58-.38-1.17-.78-1.74-1.21-.16-.12-.32-.24-.49-.37-.14-.11-.28-.22-.42-.33-.14-.11-.29-.23-.43-.35-.6-.5-1.2-1.04-1.78-1.6-.14-.14-.27-.27-.41-.42-.21-.22-.43-.45-.64-.68-.17-.19-.34-.38-.51-.58-.17-.2-.33-.4-.5-.6-.12-.15-.25-.31-.36-.47-.23-.3-.45-.6-.67-.91-.28-.4-.55-.8-.8-1.22-.14-.23-.27-.46-.4-.69-.02-.03-.03-.07-.04-.1-.09-.28,.17-.56,.44-.47,.03,0,.06,.02,.09,.04,.08,.05,.17,.1,.27,.16,.31,.18,.68,.39,1.08,.61,.28,.15,.57,.31,.89,.47,1.44,.75,3.26,1.6,5.28,2.33,.33,.12,.66,.24,1,.35,.44,.15,.88,.28,1.32,.41,.29,.08,.57,.16,.86,.23,.57,.15,1.15,.28,1.74,.4,.28,.05,.55,.1,.83,.15,1.36,.22,2.75,.33,4.11,.27,.19,0,.39-.02,.59-.03,.21-.01,.43-.03,.64-.06,.21-.03,.42-.05,.63-.09,.04-.2,.08-.4,.14-.6,0,0,0-.01,0-.02,.91-3.79,2.69-7.72,6.02-10.8,3.88-3.59,8.14-5.2,11.63-5.88,2.88-.57,5.23-.51,6.41-.42,.32,.02,.6-.23,.64-.56,.2-1.61,.4-3.23,.6-4.84,.04-.3-.12-.58-.37-.7Zm-32.02,4.57c-.49,0-.88-.42-.88-.93s.39-.93,.88-.93,.88,.42,.88,.93-.4,.93-.88,.93Z"/><path class="cls-2" d="M40.8,27.71c-.11,.07-.21,.15-.33,.23-1.69,1.18-4.12,3.2-6.69,5.88-.69-1.24-.84-3.95,0-5.8,0-.02,.02-.03,.03-.05,.09-.14,.28-.41,.34-.5,.16-.24,.34-.46,.55-.64h0c.11-.11,.23-.2,.35-.28,.11-.07,.22-.14,.33-.19h0c.93-.46,1.93-.38,2.36-.32,.06,0,.1,.01,.13,.02,.24,.04,.5,.06,.72,.13,.09,.03,.18,.06,.27,.09,.28,.1,.54,.23,.77,.37h0c.07,.04,.13,.08,.19,.12,.08,.05,.16,.11,.23,.16,.03,.02,.06,.04,.08,.06,.25,.19,.49,.5,.67,.7Z"/><path class="cls-6" d="M61.64,5.16c-1.97-.43-3.94-.86-5.92-1.29-3.99-.87-7.98-1.75-11.98-2.62-.44-.1-.9,.04-1.22,.37-2.04,2.07-4.09,4.14-6.13,6.21h0c-.06,.06-.11,.11-.16,.17-.05,.05-.11,.11-.16,.16-5.83,5.91-11.66,11.82-17.48,17.73-.35,.36-.17,.99,.32,1.08,2.75,.5,7.1,1.04,12.43,.92,.81-.02,1.75-.17,2.6-.22-.06,.1-.1,.2-.15,.3,.09-.14,.28-.41,.34-.5,.16-.24,.34-.46,.55-.64h0c.11-.11,.23-.2,.35-.28,.11-.07,.22-.14,.33-.19h0c.93-.46,1.93-.38,2.36-.32,.06,0,.1,.01,.13,.02,.24,.04,.5,.06,.72,.13,.09,.03,.18,.06,.27,.09,.28,.1,.54,.23,.77,.37-.23-.14-.59-.56-.87-.66,.17-3.15,.39-5.94,.54-9.1-.58-1.62,13.89-7.34,14.46-5.71,2.38,2.6,4.81,4.73,7.19,7.28,1.34-.95,2.6-1.93,3.76-2.93,1.5-1.28,2.85-2.58,4.07-3.87l-7.14-6.5Z"/><path class="cls-7" d="M77.19,52.51c-1.52,13.31-11.62,36.67-32.26,57.94-.33,.33-.83,.4-1.22,.15C19.83,95.31,5.95,72.28,2.2,59.48-1.06,48.39,.26,39.15,.26,39.15c.15-1.04,1.09-7.31,4.02-12.82C12.74,10.41,33.96,8.06,36.4,7.83c-.06,.06-.11,.11-.16,.17-.05,.05-.11,.11-.16,.16-5.83,5.91-11.66,11.82-17.48,17.73-.35,.36-.17,.99,.32,1.08,2.75,.5,7.1,1.04,12.43,.92h.1c-7.06,3.05-11.99,10.43-11.99,18.96,0,2.01,.28,3.95,.79,5.79,2.37,8.46,9.81,14.63,18.63,14.63,6.61,0,12.44-3.47,15.95-8.77,.05-.07,.09-.14,.13-.21,.01-.01,.02-.02,.03-.03,.06-.1,.12-.19,.17-.29,.07-.1,.13-.2,.18-.3,.1-.15,.18-.3,.27-.46,.04-.06,.08-.12,.11-.19,.11-.2,.21-.4,.31-.6,.03-.05,.06-.11,.08-.17,.09-.17,.17-.34,.25-.52,.06-.13,.12-.26,.18-.39,.09-.2,.17-.4,.25-.61,.02-.05,.04-.1,.06-.14,.09-.22,.17-.44,.25-.67,.02-.05,.04-.1,.05-.14,.08-.22,.15-.45,.22-.68,0,0,0,0,0-.02,.08-.26,.16-.53,.23-.8,0-.02,0-.03,.01-.05,.19-.72,.34-1.47,.46-2.22,.03-.2,.06-.39,.08-.59,0,0,0-.01,0-.02,.91-3.79,2.69-7.72,6.02-10.8,3.88-3.59,8.14-5.2,11.63-5.88,.61,2.19,2.49,10.01,1.38,19.76Z"/><path class="cls-8" d="M63.51,21.25c-2.53-.08-5.19,.06-7.92,.54,0,0,0,0,0,0-1.77,.31-3.58,.75-5.39,1.36-1.59,.53-3.96,1.36-6.64,2.86h0c-.24,.13-.48,.27-.72,.42h0s-.09,.05-.13,.08c-.07,.04-.14,.08-.21,.12-.04,.02-.08,.05-.11,.07-.34,.2-.87,.52-1.57,1-.18-.2-.42-.51-.67-.7-.02-.02-.05-.04-.08-.06-.07-.05-.15-.11-.23-.16-.06-.04-.12-.08-.19-.12h0c-.23-.14-.59-.56-.87-.66,.17-3.15,.39-5.94,.54-9.1-.58-1.62,13.89-7.34,14.46-5.71,2.38,2.6,4.81,4.73,7.19,7.28,.11,.12,.23,.25,.35,.37,.74,.8,1.47,1.6,2.21,2.41Z"/><path class="cls-7" d="M70.81,22.11c-2.28-.46-4.72-.78-7.3-.86h0c-.73-.8-1.47-1.6-2.21-2.41-.11-.12-.23-.25-.35-.38,1.34-.95,2.6-1.93,3.76-2.93,1.72,1.34,3.33,2.91,4.78,4.75,.47,.6,.91,1.21,1.32,1.82Z"/><path d="M57.9,50.59c-.11,.56-.21,1.12-.29,1.67,0,.02,0,.03-.01,.05-.07,.27-.15,.53-.23,.8,0,0,0,.01,0,.02-.07,.23-.14,.45-.22,.68-.01,.05-.03,.1-.05,.14-.08,.22-.16,.45-.25,.67-.02,.05-.04,.1-.06,.14-.08,.2-.17,.41-.25,.61-.06,.13-.12,.26-.18,.39-.08,.17-.16,.35-.25,.52-.02,.05-.05,.11-.08,.17-.1,.2-.21,.4-.31,.6-.03,.06-.07,.12-.11,.19-.08,.15-.17,.31-.27,.46-.05,.1-.12,.2-.18,.3-.06,.11-.13,.22-.2,.32-.1,.12-.25,.17-.4,.11-.99-.38-2.12-.85-3.34-1.45-.17-.08-.33-.16-.5-.25-.02,0-.03-.02-.05-.03-.17-.09-.34-.17-.51-.27-.13-.06-.25-.13-.37-.2-.11-.06-.22-.12-.33-.18-.13-.07-.25-.14-.38-.22-.19-.1-.37-.21-.55-.32-.19-.11-.37-.22-.56-.34-.19-.11-.37-.23-.56-.35-.58-.38-1.17-.78-1.74-1.21-.16-.12-.32-.24-.49-.37-.14-.11-.28-.22-.42-.33-.14-.11-.29-.23-.43-.35-.6-.5-1.2-1.04-1.78-1.6-.14-.14-.27-.27-.41-.42-.21-.22-.43-.45-.64-.68-.17-.19-.34-.38-.51-.58-.17-.2-.33-.4-.5-.6-.12-.15-.25-.31-.36-.47-.23-.3-.45-.6-.67-.91-.28-.4-.54-.8-.8-1.22-.14-.23-.27-.46-.4-.69-.02-.03-.03-.07-.04-.1-.07-.28,.18-.55,.44-.47,.03,0,.06,.02,.09,.04,.08,.05,.17,.1,.27,.16,.31,.18,.68,.39,1.08,.61,.28,.15,.57,.31,.89,.47,1.44,.75,3.26,1.6,5.28,2.33,.33,.12,.66,.24,1,.35,.44,.15,.88,.28,1.32,.41,.29,.08,.57,.16,.86,.23,.57,.15,1.15,.28,1.74,.4,.28,.05,.55,.1,.83,.15,1.36,.22,2.75,.33,4.11,.27,.19,0,.39-.02,.59-.03,.21-.01,.43-.03,.64-.06,.04,0,.08,0,.12-.01,.25-.03,.46,.2,.4,.46Z"/><path class="cls-9" d="M33.95,27.67c-.06,.1-.1,.2-.15,.3-.01,.02-.02,.03-.03,.05-.84,1.84-.69,4.55,0,5.8,0,0-.01,.01-.02,.02-.37,.38-.74,.78-1.11,1.19-4.97,5.56-10.16,12.79-12.4,17.61-.52-1.83-.79-3.78-.79-5.79,0-8.52,4.93-15.9,11.99-18.96h-.1c.81-.02,1.75-.17,2.6-.22Z"/><path class="cls-6" d="M68.79,11.67c1.08-1.14,2.05-2.26,2.93-3.34,.3-.37,.11-.93-.34-1.03-3.24-.71-6.48-1.42-9.73-2.13"/><path class="cls-5" d="M88.36,14.12c0,.3-.06,.58-.18,.83-.29,.64-.92,1.08-1.64,1.08-1.01,0-1.82-.86-1.82-1.92s.82-1.92,1.82-1.92c.35,0,.69,.11,.96,.29,.52,.34,.86,.94,.86,1.62Z"/><path class="cls-4" d="M97.07,14.08c-.42,1,1.57,2.68,1.34,2.97-.19,.23-1.5-.81-2.68-1.41-2.73-1.38-5.57-1.03-7.55-.69,.12-.25,.18-.53,.18-.83,0-.69-.34-1.29-.86-1.62,2.72-2.06,6.52-1.34,9.9-1.72,.1,0,.46,.06,.5,.17,0,.03,0,.25-1.55,1.3-.06,.04-.04,.15,.03,.16,2.57,.51,2.63,.6,2.62,.74-.01,.29-1.61,.15-1.93,.94Z"/><path d="M51.95,29.87c0,.51-.4,.93-.88,.93s-.88-.42-.88-.93,.39-.93,.88-.93,.88,.42,.88,.93Z"/><path class="cls-1" d="M55.73,3.86c.97-1.59,2.27-3.33,3.39-3.09,.9,.2,1.3,1.61,1.49,2.19,1.82,5.52,8.95,9.18,10.27,9.85,5.49,2.82,11.03,2.15,13.84,1.56"/></g></svg>