<?xml version="1.0" encoding="utf-8"?>
<!-- Generator: Adobe Illustrator 27.0.0, SVG Export Plug-In . SVG Version: 6.00 Build 0)  -->
<svg version="1.1" id="Layer_1" xmlns="http://www.w3.org/2000/svg" xmlns:xlink="http://www.w3.org/1999/xlink" x="0px" y="0px"
	 viewBox="0 0 99 111" style="enable-background:new 0 0 99 111;" xml:space="preserve">
<style type="text/css">
	.st0{fill:#D1D3D4;}
	.st1{fill:#C0C2C4;}
	.st2{fill:#3E5596;}
	.st3{fill:#A35B26;}
	.st4{fill:#668EC9;}
	.st5{fill:#2E2E2E;}
	.st6{fill:#D6C953;}
	.st7{fill:#D8CA55;}
	.st8{fill:none;stroke:#4D4D4F;stroke-width:1.5;stroke-miterlimit:10;}
</style>
<path class="st0" d="M83.1,26.5c-2.7-1.3-7-3.1-12.3-4.1c-2.3-0.5-4.7-0.8-7.3-0.9h0c-2.5-0.1-5.2,0.1-7.9,0.5c0,0,0,0,0,0
	c-1.8,0.3-3.6,0.8-5.4,1.4c-1.6,0.5-4,1.4-6.6,2.9h0c-0.2,0.1-0.5,0.3-0.7,0.4h0c0,0-0.1,0.1-0.1,0.1c-0.1,0-0.1,0.1-0.2,0.1
	c0,0-0.1,0-0.1,0.1c-0.3,0.2-0.9,0.5-1.6,1c-0.1,0.1-0.2,0.1-0.3,0.2c-1.7,1.2-4.1,3.2-6.7,5.9c0,0,0,0,0,0
	c-0.4,0.4-0.7,0.8-1.1,1.2c-5,5.6-10.2,12.8-12.4,17.6c2.4,8.5,9.8,14.6,18.6,14.6c6.6,0,12.4-3.5,16-8.8c-0.1,0-0.2-0.1-0.3-0.1
	c-1-0.4-2.1-0.8-3.3-1.4c-0.2-0.1-0.3-0.2-0.5-0.2c0,0,0,0,0,0c-0.2-0.1-0.3-0.2-0.5-0.3c-0.1-0.1-0.2-0.1-0.4-0.2
	c-0.1-0.1-0.2-0.1-0.3-0.2c-0.1-0.1-0.3-0.1-0.4-0.2c-0.2-0.1-0.4-0.2-0.6-0.3c-0.2-0.1-0.4-0.2-0.6-0.3c-0.2-0.1-0.4-0.2-0.6-0.4
	c-0.6-0.4-1.2-0.8-1.7-1.2c-0.2-0.1-0.3-0.2-0.5-0.4c-0.1-0.1-0.3-0.2-0.4-0.3c-0.1-0.1-0.3-0.2-0.4-0.3c-0.6-0.5-1.2-1-1.8-1.6
	c-0.1-0.1-0.3-0.3-0.4-0.4c-0.2-0.2-0.4-0.4-0.6-0.7c-0.2-0.2-0.3-0.4-0.5-0.6c-0.2-0.2-0.3-0.4-0.5-0.6c-0.1-0.2-0.2-0.3-0.4-0.5
	c-0.2-0.3-0.5-0.6-0.7-0.9c-0.3-0.4-0.5-0.8-0.8-1.2c-0.1-0.2-0.3-0.5-0.4-0.7c0,0,0-0.1,0-0.1c-0.1-0.3,0.2-0.6,0.4-0.5
	c0,0,0.1,0,0.1,0c0.1,0,0.2,0.1,0.3,0.2c0.3,0.2,0.7,0.4,1.1,0.6c0.3,0.2,0.6,0.3,0.9,0.5c1.4,0.7,3.3,1.6,5.3,2.3
	c0.3,0.1,0.7,0.2,1,0.3c0.4,0.1,0.9,0.3,1.3,0.4c0.3,0.1,0.6,0.2,0.9,0.2c0.6,0.1,1.2,0.3,1.7,0.4c0.3,0.1,0.6,0.1,0.8,0.2
	c1.4,0.2,2.7,0.3,4.1,0.3c0.2,0,0.4,0,0.6,0c0.2,0,0.4,0,0.6-0.1c0.2,0,0.4-0.1,0.6-0.1c0-0.2,0.1-0.4,0.1-0.6c0,0,0,0,0,0
	c0.9-3.8,2.7-7.7,6-10.8c3.9-3.6,8.1-5.2,11.6-5.9c2.9-0.6,5.2-0.5,6.4-0.4c0.3,0,0.6-0.2,0.6-0.6c0.2-1.6,0.4-3.2,0.6-4.8
	C83.5,26.9,83.3,26.6,83.1,26.5z M51.1,31c-0.5,0-0.9-0.4-0.9-0.9c0-0.5,0.4-0.9,0.9-0.9c0.5,0,0.9,0.4,0.9,0.9
	C51.9,30.6,51.5,31,51.1,31z"/>
<path class="st1" d="M40.8,28c-0.1,0.1-0.2,0.1-0.3,0.2c-1.7,1.2-4.1,3.2-6.7,5.9c-0.7-1.2-0.8-4,0-5.8c0,0,0,0,0,0
	c0.1-0.1,0.3-0.4,0.3-0.5c0.2-0.2,0.3-0.5,0.6-0.6h0c0.1-0.1,0.2-0.2,0.3-0.3c0.1-0.1,0.2-0.1,0.3-0.2h0c0.9-0.5,1.9-0.4,2.4-0.3
	c0.1,0,0.1,0,0.1,0c0.2,0,0.5,0.1,0.7,0.1c0.1,0,0.2,0.1,0.3,0.1c0.3,0.1,0.5,0.2,0.8,0.4h0c0.1,0,0.1,0.1,0.2,0.1
	c0.1,0.1,0.2,0.1,0.2,0.2c0,0,0.1,0,0.1,0.1C40.4,27.4,40.6,27.8,40.8,28z"/>
<path class="st2" d="M61.6,5.4c-2-0.4-3.9-0.9-5.9-1.3c-4-0.9-8-1.7-12-2.6c-0.4-0.1-0.9,0-1.2,0.4c-2,2.1-4.1,4.1-6.1,6.2h0
	c-0.1,0.1-0.1,0.1-0.2,0.2c-0.1,0.1-0.1,0.1-0.2,0.2c-5.8,5.9-11.7,11.8-17.5,17.7c-0.4,0.4-0.2,1,0.3,1.1c2.7,0.5,7.1,1,12.4,0.9
	c0.8,0,1.8-0.2,2.6-0.2c-0.1,0.1-0.1,0.2-0.1,0.3c0.1-0.1,0.3-0.4,0.3-0.5c0.2-0.2,0.3-0.5,0.6-0.6h0c0.1-0.1,0.2-0.2,0.3-0.3
	c0.1-0.1,0.2-0.1,0.3-0.2h0c0.9-0.5,1.9-0.4,2.4-0.3c0.1,0,0.1,0,0.1,0c0.2,0,0.5,0.1,0.7,0.1c0.1,0,0.2,0.1,0.3,0.1
	c0.3,0.1,0.5,0.2,0.8,0.4c-0.2-0.1-0.6-0.6-0.9-0.7c0.2-3.2,0.4-5.9,0.5-9.1c-0.6-1.6,13.9-7.3,14.5-5.7c2.4,2.6,4.8,4.7,7.2,7.3
	c1.3-0.9,2.6-1.9,3.8-2.9c1.5-1.3,2.9-2.6,4.1-3.9L61.6,5.4z"/>
<path class="st3" d="M77.2,52.8c-1.5,13.3-11.6,36.7-32.3,57.9c-0.3,0.3-0.8,0.4-1.2,0.1C19.8,95.6,6,72.5,2.2,59.7
	c-3.3-11.1-1.9-20.3-1.9-20.3c0.2-1,1.1-7.3,4-12.8C12.7,10.7,34,8.3,36.4,8.1c-0.1,0.1-0.1,0.1-0.2,0.2c-0.1,0.1-0.1,0.1-0.2,0.2
	c-5.8,5.9-11.7,11.8-17.5,17.7c-0.4,0.4-0.2,1,0.3,1.1c2.7,0.5,7.1,1,12.4,0.9h0.1c-7.1,3.1-12,10.4-12,19c0,2,0.3,4,0.8,5.8
	c2.4,8.5,9.8,14.6,18.6,14.6c6.6,0,12.4-3.5,16-8.8c0-0.1,0.1-0.1,0.1-0.2c0,0,0,0,0,0c0.1-0.1,0.1-0.2,0.2-0.3
	c0.1-0.1,0.1-0.2,0.2-0.3c0.1-0.1,0.2-0.3,0.3-0.5c0-0.1,0.1-0.1,0.1-0.2c0.1-0.2,0.2-0.4,0.3-0.6c0-0.1,0.1-0.1,0.1-0.2
	c0.1-0.2,0.2-0.3,0.2-0.5c0.1-0.1,0.1-0.3,0.2-0.4c0.1-0.2,0.2-0.4,0.3-0.6c0,0,0-0.1,0.1-0.1c0.1-0.2,0.2-0.4,0.2-0.7
	c0,0,0-0.1,0-0.1c0.1-0.2,0.2-0.4,0.2-0.7c0,0,0,0,0,0c0.1-0.3,0.2-0.5,0.2-0.8c0,0,0,0,0-0.1c0.2-0.7,0.3-1.5,0.5-2.2
	c0-0.2,0.1-0.4,0.1-0.6c0,0,0,0,0,0c0.9-3.8,2.7-7.7,6-10.8c3.9-3.6,8.1-5.2,11.6-5.9C76.4,35.2,78.3,43,77.2,52.8z"/>
<path class="st4" d="M63.5,21.5c-2.5-0.1-5.2,0.1-7.9,0.5c0,0,0,0,0,0c-1.8,0.3-3.6,0.8-5.4,1.4c-1.6,0.5-4,1.4-6.6,2.9h0
	c-0.2,0.1-0.5,0.3-0.7,0.4h0c0,0-0.1,0.1-0.1,0.1c-0.1,0-0.1,0.1-0.2,0.1c0,0-0.1,0-0.1,0.1c-0.3,0.2-0.9,0.5-1.6,1
	c-0.2-0.2-0.4-0.5-0.7-0.7c0,0-0.1,0-0.1-0.1c-0.1-0.1-0.2-0.1-0.2-0.2c-0.1,0-0.1-0.1-0.2-0.1h0c-0.2-0.1-0.6-0.6-0.9-0.7
	c0.2-3.2,0.4-5.9,0.5-9.1c-0.6-1.6,13.9-7.3,14.5-5.7c2.4,2.6,4.8,4.7,7.2,7.3c0.1,0.1,0.2,0.2,0.3,0.4C62,19.9,62.8,20.7,63.5,21.5
	z"/>
<path class="st3" d="M70.8,22.4c-2.3-0.5-4.7-0.8-7.3-0.9h0c-0.7-0.8-1.5-1.6-2.2-2.4c-0.1-0.1-0.2-0.2-0.3-0.4
	c1.3-0.9,2.6-1.9,3.8-2.9c1.7,1.3,3.3,2.9,4.8,4.7C70,21.1,70.4,21.7,70.8,22.4z"/>
<path d="M57.9,50.8c-0.1,0.6-0.2,1.1-0.3,1.7c0,0,0,0,0,0.1c-0.1,0.3-0.1,0.5-0.2,0.8c0,0,0,0,0,0c-0.1,0.2-0.1,0.5-0.2,0.7
	c0,0,0,0.1,0,0.1c-0.1,0.2-0.2,0.4-0.2,0.7c0,0,0,0.1-0.1,0.1c-0.1,0.2-0.2,0.4-0.3,0.6c-0.1,0.1-0.1,0.3-0.2,0.4
	c-0.1,0.2-0.2,0.3-0.2,0.5c0,0.1-0.1,0.1-0.1,0.2c-0.1,0.2-0.2,0.4-0.3,0.6c0,0.1-0.1,0.1-0.1,0.2c-0.1,0.2-0.2,0.3-0.3,0.5
	c-0.1,0.1-0.1,0.2-0.2,0.3c-0.1,0.1-0.1,0.2-0.2,0.3c-0.1,0.1-0.3,0.2-0.4,0.1c-1-0.4-2.1-0.8-3.3-1.4c-0.2-0.1-0.3-0.2-0.5-0.2
	c0,0,0,0,0,0c-0.2-0.1-0.3-0.2-0.5-0.3c-0.1-0.1-0.2-0.1-0.4-0.2c-0.1-0.1-0.2-0.1-0.3-0.2c-0.1-0.1-0.3-0.1-0.4-0.2
	c-0.2-0.1-0.4-0.2-0.6-0.3c-0.2-0.1-0.4-0.2-0.6-0.3c-0.2-0.1-0.4-0.2-0.6-0.4c-0.6-0.4-1.2-0.8-1.7-1.2c-0.2-0.1-0.3-0.2-0.5-0.4
	c-0.1-0.1-0.3-0.2-0.4-0.3c-0.1-0.1-0.3-0.2-0.4-0.3c-0.6-0.5-1.2-1-1.8-1.6c-0.1-0.1-0.3-0.3-0.4-0.4c-0.2-0.2-0.4-0.4-0.6-0.7
	c-0.2-0.2-0.3-0.4-0.5-0.6c-0.2-0.2-0.3-0.4-0.5-0.6c-0.1-0.2-0.2-0.3-0.4-0.5c-0.2-0.3-0.5-0.6-0.7-0.9c-0.3-0.4-0.5-0.8-0.8-1.2
	c-0.1-0.2-0.3-0.5-0.4-0.7c0,0,0-0.1,0-0.1c-0.1-0.3,0.2-0.5,0.4-0.5c0,0,0.1,0,0.1,0c0.1,0,0.2,0.1,0.3,0.2
	c0.3,0.2,0.7,0.4,1.1,0.6c0.3,0.1,0.6,0.3,0.9,0.5c1.4,0.7,3.3,1.6,5.3,2.3c0.3,0.1,0.7,0.2,1,0.3c0.4,0.1,0.9,0.3,1.3,0.4
	c0.3,0.1,0.6,0.2,0.9,0.2c0.6,0.1,1.2,0.3,1.7,0.4c0.3,0.1,0.6,0.1,0.8,0.2c1.4,0.2,2.7,0.3,4.1,0.3c0.2,0,0.4,0,0.6,0
	c0.2,0,0.4,0,0.6-0.1c0,0,0.1,0,0.1,0C57.7,50.3,58,50.6,57.9,50.8z"/>
<path class="st5" d="M33.9,27.9c-0.1,0.1-0.1,0.2-0.1,0.3c0,0,0,0,0,0c-0.8,1.8-0.7,4.6,0,5.8c0,0,0,0,0,0c-0.4,0.4-0.7,0.8-1.1,1.2
	c-5,5.6-10.2,12.8-12.4,17.6c-0.5-1.8-0.8-3.8-0.8-5.8c0-8.5,4.9-15.9,12-19h-0.1C32.2,28.1,33.1,28,33.9,27.9z"/>
<path class="st2" d="M68.8,11.9c1.1-1.1,2.1-2.3,2.9-3.3c0.3-0.4,0.1-0.9-0.3-1c-3.2-0.7-6.5-1.4-9.7-2.1"/>
<path class="st6" d="M88.4,14.4c0,0.3-0.1,0.6-0.2,0.8c-0.3,0.6-0.9,1.1-1.6,1.1c-1,0-1.8-0.9-1.8-1.9s0.8-1.9,1.8-1.9
	c0.4,0,0.7,0.1,1,0.3C88,13.1,88.4,13.7,88.4,14.4z"/>
<path class="st7" d="M97.1,14.3c-0.4,1,1.6,2.7,1.3,3c-0.2,0.2-1.5-0.8-2.7-1.4c-2.7-1.4-5.6-1-7.6-0.7c0.1-0.2,0.2-0.5,0.2-0.8
	c0-0.7-0.3-1.3-0.9-1.6c2.7-2.1,6.5-1.3,9.9-1.7c0.1,0,0.5,0.1,0.5,0.2c0,0,0,0.2-1.6,1.3c-0.1,0,0,0.1,0,0.2
	c2.6,0.5,2.6,0.6,2.6,0.7C99,13.7,97.4,13.5,97.1,14.3z"/>
<path d="M51.9,30.1c0,0.5-0.4,0.9-0.9,0.9c-0.5,0-0.9-0.4-0.9-0.9c0-0.5,0.4-0.9,0.9-0.9C51.5,29.2,51.9,29.6,51.9,30.1z"/>
<path class="st8" d="M55.7,4.1c1-1.6,2.3-3.3,3.4-3.1c0.9,0.2,1.3,1.6,1.5,2.2c1.8,5.5,8.9,9.2,10.3,9.9c5.5,2.8,11,2.1,13.8,1.6"/>
</svg>
