<svg width="146" height="230" viewBox="0 0 146 230" fill="none" xmlns="http://www.w3.org/2000/svg">
<path d="M59.8415 223.3C59.9415 223.6 60.5415 224.6 60.5415 226C60.5415 226.3 60.4415 227.9 59.4415 228.8C58.5415 229.6 57.4415 229.4 54.7415 229.2C48.7415 228.7 48.3415 229 47.1415 228.3C45.8415 227.4 45.3415 226.1 44.4415 223.6C42.7415 218.8 43.7415 216.7 42.0415 214.8C41.4415 214.1 40.4415 213.5 38.8415 213.2C38.7415 214.5 38.4415 217 37.9415 218.7C37.5415 220 36.9415 221.2 36.4415 222.1C36.7415 222.5 37.2415 223.1 37.5415 224C37.6415 224.5 38.0415 225.8 37.5415 226.7C36.7415 228.2 34.0415 228 32.9415 227.9C30.6415 227.7 28.7415 226.8 27.5415 225.9C27.3415 225.7 27.1415 225.5 27.0415 225.2C26.2415 223 25.2415 220 24.3415 216.3C22.7415 209.9 22.3415 204.8 21.9415 199.4C21.8415 198.5 21.7415 197.4 21.7415 196.3C22.6415 197.8 23.5415 198.9 24.1415 199.7C26.2415 202.3 31.0415 208.2 37.6415 207.8C39.2415 207.7 40.6415 207.3 41.8415 206.7L62.9415 211.7C60.6415 216.8 58.6415 221.1 59.8415 223.3Z" fill="#D8D9DA"/>
<path d="M76.8414 191.7C76.8414 191.8 76.8414 191.9 76.8414 192L72.3414 211.2C71.9414 212.7 70.5414 213.6 69.0414 213.2L67.9414 213C69.4414 213.4 70.9414 212.4 71.2414 211L75.5414 192.8C75.8414 191.3 74.9414 189.8 73.5414 189.5L67.3414 188L62.4414 186.8C62.5414 186.4 62.6414 185.9 62.6414 185.5L67.4414 186.5L74.6414 188.5C74.7414 188.5 74.8414 188.6 74.9414 188.6C76.0414 189.2 76.8414 190.5 76.8414 191.7Z" fill="#AFB1B4"/>
<path d="M73.5413 189.4L67.3413 187.9L62.6413 186.8C62.0413 189.8 61.3413 192.8 60.7413 195.8C60.6413 196.2 60.5413 196.5 60.2413 196.8C60.4413 197.6 60.4413 198.5 60.0413 199.4C59.2413 201.3 56.9413 202.2 55.0413 201.4C54.0413 201 53.3413 200.1 52.9413 199.2C53.9413 199.6 55.0413 199.1 55.4413 198.1V198C54.9413 197.8 54.4413 197.5 54.1413 197.3L54.0413 197.2C53.9413 197.1 53.8413 197.1 53.8413 197C53.6413 196.8 53.4413 196.6 53.3413 196.3C52.6413 194.1 51.9413 191.6 51.4413 188.9C51.1413 187.3 50.8413 185.7 50.6413 184.1L45.4413 182.9C44.6413 182.7 43.7413 182.9 43.1413 183.4C42.9413 183.6 42.7413 183.8 42.5413 184C42.3413 184.3 42.2413 184.6 42.1413 184.9L41.4413 188L37.8413 203C37.4413 204.5 38.4413 206 39.8413 206.3L40.3413 206.4L41.5413 206.7L62.6413 211.7L67.9413 213C69.4413 213.4 70.9413 212.4 71.2413 211L75.5413 192.8C75.9413 191.2 74.9413 189.7 73.5413 189.4ZM54.5413 203.2C53.9413 203.6 53.3413 203.3 53.3413 203.3C53.3413 203.2 53.4413 202.7 53.9413 202.3C54.5413 201.8 55.2413 202 55.2413 202C55.2413 202.5 54.9413 203 54.5413 203.2Z" fill="#EFEFF0"/>
<path d="M75.9414 152.371C73.2414 148.771 69.9414 145.671 66.1414 143.271C64.5414 142.271 62.8414 141.471 61.0414 140.771C60.7414 140.671 57.4414 139.671 57.4414 139.271C57.4414 138.671 56.9414 137.071 55.9414 135.671C54.4414 133.571 52.0414 133.171 51.4414 133.071C50.9414 132.971 48.8414 132.771 46.8414 134.171C45.7414 134.871 44.4414 136.871 43.9414 137.671C42.9414 137.771 41.9414 137.871 40.9414 138.171C39.6414 138.471 38.4414 138.971 37.1414 139.671C34.5414 141.171 32.9414 143.171 31.4414 145.271C31.2414 145.571 30.9414 145.971 30.7414 146.271C28.1414 149.971 26.9414 153.371 25.8414 156.571C25.5414 157.571 25.2414 158.471 24.9414 159.371C29.3414 161.771 31.9414 165.071 33.3414 166.971C36.8414 171.471 38.1414 175.671 39.5414 180.171C40.4414 182.971 40.9414 185.571 41.3414 187.771L42.0414 184.671C42.1414 184.271 42.2414 183.971 42.4414 183.771C42.9414 182.671 44.8414 181.371 46.1414 181.671L50.4414 182.671C50.4414 183.071 50.5414 183.471 50.5414 183.871C50.7414 185.371 51.0414 186.971 51.3414 188.671C51.8414 191.371 52.5414 193.871 53.2414 196.071C53.3414 196.371 53.5414 196.571 53.7414 196.771C53.8414 196.871 53.8414 196.871 53.9414 196.971L54.0414 197.071C54.3414 197.371 54.8414 197.571 55.3414 197.771C55.9414 197.971 56.6414 198.071 57.3414 197.971C58.6414 197.771 59.5414 197.071 60.0414 196.571C60.3414 196.271 60.4414 195.971 60.5414 195.571C61.1414 192.571 61.8414 189.571 62.4414 186.571C62.5414 186.171 62.6414 185.871 62.6414 185.471L66.5414 186.371C66.5414 184.471 66.4414 183.571 66.4414 183.071C66.3414 181.071 66.3414 178.971 66.2414 176.971C61.9414 176.371 57.5414 174.571 54.3414 171.771C51.1414 168.971 48.6414 165.171 47.4414 161.071C47.4414 160.971 47.3414 160.871 47.4414 160.671C47.5414 160.371 48.0414 160.571 48.2414 160.771C50.1414 162.571 52.1414 164.271 54.2414 165.871C55.9414 167.271 57.8414 168.571 59.7414 169.471C61.7414 170.471 63.8414 171.071 66.0414 171.071C65.9414 169.771 65.9414 168.371 66.0414 167.071C66.1414 165.371 66.8414 163.571 68.6414 163.271C69.7414 163.171 70.6414 163.571 71.5414 164.171C73.0414 165.071 74.5414 165.871 76.0414 166.571C76.8414 166.971 77.5414 167.371 78.4414 166.971C79.6414 166.371 81.2414 164.571 81.6414 163.171C81.9414 161.771 79.7414 158.671 79.1414 157.471C78.3414 155.971 77.2414 154.171 75.9414 152.371ZM62.7414 150.571C62.2414 150.571 61.7414 150.171 61.7414 149.571C61.7414 148.971 62.1414 148.571 62.7414 148.571C63.2414 148.571 63.7414 148.971 63.7414 149.571C63.7414 150.171 63.2414 150.571 62.7414 150.571Z" fill="#D8D9DA"/>
<path d="M50.6415 184L45.4415 182.8C44.6415 182.6 43.7415 182.8 43.1415 183.3C42.9415 183.5 42.6414 183.8 42.4414 184C42.9414 182.5 44.9415 181.5 46.2415 181.8L50.4414 182.8C50.4414 183.2 50.6415 183.6 50.6415 184Z" fill="#AFB1B4"/>
<path d="M66.5415 177.5C64.5415 177.4 62.4415 176.5 60.0415 175.5C55.1415 173.4 52.5415 169.9 51.1415 168.1C48.8415 165 47.2415 161.2 47.7415 160.8C48.2415 160.4 50.0415 162.9 54.6415 166.3C57.5415 168.5 59.0415 169.6 61.2415 170.2C62.4415 170.6 63.4415 170.7 66.3415 170.2C66.4415 173.4 66.5415 175.5 66.5415 177.5Z" fill="#515254"/>
<path d="M35.7415 213.3C36.7415 213.2 37.7415 213.1 38.7415 213.2L38.6415 213.7C37.7415 213.4 36.7415 213.3 35.7415 213.3Z" fill="#8C8E90"/>
<path d="M41.6414 206.7C40.4414 207.2 39.0414 207.7 37.4414 207.8C30.8414 208.1 26.0414 202.3 23.9414 199.7C23.3414 199 22.4414 197.8 21.5414 196.3C21.2414 195.8 20.9414 195.3 20.7414 194.7C18.6414 194.3 13.4414 193.2 10.8414 190.2C8.64138 187.6 7.94138 184.7 7.64138 181.6C6.44138 181 3.24138 179.6 1.64138 176.9C-1.95862 171 1.44138 164.2 1.74138 163.7C2.24138 162.8 4.24138 159.2 8.64138 157.4C13.9414 155.1 18.9414 157 21.7414 158.1C22.9414 158.5 23.9414 159 24.9414 159.6C29.3414 162 31.9414 165.3 33.3414 167.2C36.8414 171.7 38.1414 175.9 39.5414 180.4C40.4414 183.2 40.9414 185.8 41.3414 188L37.8414 203C37.4414 204.5 38.4414 206 39.8414 206.3L40.3414 206.4L41.6414 206.7Z" fill="#ADAFB2"/>
<path d="M19.3414 180.2C19.2414 181.4 19.0414 182.6 18.9414 183.9C18.8414 185.1 18.8414 186.4 19.0414 187.6C19.1414 188.8 19.3414 190 19.7414 191.2C20.1414 192.4 20.6414 193.4 21.2414 194.6L20.8414 194.8C20.3414 193.7 19.7414 192.6 19.3414 191.4C18.9414 190.2 18.7414 189 18.6414 187.7C18.5414 186.5 18.5414 185.2 18.6414 184C18.6414 182.6 18.8414 181.4 19.3414 180.2Z" fill="#8C8E90"/>
<path d="M40.9414 138.1C39.6414 138.4 38.4414 138.9 37.1414 139.6C34.5414 141.1 32.9414 143.1 31.4414 145.2C31.3414 144.6 30.9414 142.7 30.9414 141.8C31.0414 140.9 31.1414 139.4 32.1414 138C33.8414 135.8 36.7414 135.7 37.0414 135.7C38.7414 135.7 40.0414 137.2 40.7414 137.8C40.7414 138 40.8414 138.1 40.9414 138.1Z" fill="#ADAFB2"/>
<path d="M60.0414 199.4C59.2414 201.3 56.9414 202.2 55.0414 201.4C54.0414 201 53.3414 200.1 52.9414 199.2C53.9414 199.6 55.0414 199.1 55.4414 198.1V198C56.0414 198.2 56.7414 198.3 57.4414 198.2C58.7414 198 59.6414 197.3 60.1414 196.8C60.4414 197.6 60.4414 198.5 60.0414 199.4Z" fill="#F3B91A"/>
<path d="M55.2413 202C55.2413 202.5 54.9413 203 54.5413 203.2C53.9413 203.6 53.3413 203.3 53.3413 203.3C53.3413 203.2 53.4413 202.7 53.9413 202.3C54.4413 201.8 55.1413 202 55.2413 202Z" fill="#F3B91A"/>
<path d="M62.6414 150.5C63.1936 150.5 63.6414 150.052 63.6414 149.5C63.6414 148.948 63.1936 148.5 62.6414 148.5C62.0891 148.5 61.6414 148.948 61.6414 149.5C61.6414 150.052 62.0891 150.5 62.6414 150.5Z" fill="#4F4F51"/>
<path d="M8.04141 167C7.84141 168.2 7.74141 169.4 7.64141 170.6C7.54141 171.8 7.44141 173 7.34141 174.2C7.34141 175.4 7.34141 176.6 7.34141 177.8C7.34141 179 7.64141 180.1 7.84141 181.4L7.24141 181.5C7.04141 180.3 6.64141 179.1 6.64141 177.9C6.54141 176.7 6.54141 175.5 6.64141 174.2C6.94141 171.7 7.24141 169.3 8.04141 167Z" fill="#8C8E90"/>
<path d="M70.8999 218.3C71.0999 217.9 99.1999 200.4 120.1 187.3C129.7 181.3 128.7 167.1 118.4 162.5L85.9999 148C77.3999 144.2 76.4999 132.3 84.3999 127.3L109.3 111.4C116.9 106.5 115.3 94.9 106.6 92.4C99.7999 90.4 97.5999 81.9 102.6 76.9L108 71.5" stroke="#BAACD1" stroke-width="3" stroke-miterlimit="10" stroke-dasharray="5.01 5.01"/>
<g clip-path="url(#clip0)">
<path d="M130.658 15.956C129.068 15.1648 126.523 14.0659 123.462 13.4066C122.111 13.1429 120.68 12.9231 119.209 12.8791C117.738 12.8352 116.188 12.9231 114.558 13.2308C113.524 13.4066 112.451 13.7143 111.417 14.0659C110.503 14.3736 109.111 14.9011 107.521 15.8242C107.362 15.9121 107.243 16 107.084 16.0879C107.044 16.0879 107.044 16.1319 107.004 16.1319C106.965 16.1758 106.925 16.1758 106.885 16.2198C106.845 16.2198 106.845 16.2637 106.806 16.2637C106.607 16.3956 106.289 16.5714 105.891 16.8791C105.812 16.9231 105.772 16.967 105.693 17.011C104.699 17.7582 103.268 18.989 101.757 20.6154C101.558 20.8352 101.32 21.0989 101.121 21.3626C98.2189 24.7912 95.1578 29.2308 93.8459 32.2198C95.2373 37.4506 99.6102 41.2308 104.738 41.2308C108.595 41.2308 112.013 39.0769 114.081 35.8242C114.041 35.8242 113.961 35.7802 113.922 35.7802C113.325 35.5604 112.689 35.2527 111.974 34.9011C111.894 34.8571 111.775 34.8132 111.695 34.7692C111.695 34.7692 111.695 34.7692 111.656 34.7692C111.576 34.7253 111.457 34.6813 111.377 34.5934C111.298 34.5494 111.218 34.5055 111.179 34.4615C111.099 34.4176 111.059 34.3736 110.98 34.3297C110.9 34.2857 110.821 34.2418 110.741 34.1978C110.622 34.1538 110.542 34.0659 110.423 34.022C110.304 33.9341 110.224 33.8901 110.105 33.8022C109.986 33.7143 109.906 33.6703 109.787 33.5824C109.429 33.3626 109.111 33.0989 108.754 32.8352C108.674 32.7473 108.555 32.7033 108.475 32.6154C108.396 32.5275 108.316 32.4835 108.237 32.3956C108.157 32.3077 108.078 32.2637 107.998 32.1758C107.64 31.8681 107.283 31.5165 106.965 31.2088C106.885 31.1209 106.806 31.033 106.726 30.9451C106.607 30.8132 106.488 30.6813 106.368 30.5055C106.249 30.3736 106.17 30.2857 106.05 30.1538C105.971 30.022 105.852 29.8901 105.772 29.8022C105.693 29.7143 105.613 29.6264 105.573 29.4945C105.454 29.3187 105.295 29.1429 105.176 28.9231C105.017 28.6593 104.858 28.4396 104.699 28.1758C104.619 28.044 104.54 27.9121 104.46 27.7363C104.46 27.7363 104.46 27.6923 104.42 27.6923C104.381 27.5165 104.54 27.3407 104.699 27.3846C104.699 27.3846 104.738 27.3846 104.738 27.4286C104.778 27.4725 104.858 27.4725 104.897 27.5165C105.096 27.6484 105.295 27.7363 105.534 27.9121C105.693 28 105.852 28.0879 106.05 28.2198C106.885 28.7033 107.959 29.1868 109.151 29.6703C109.35 29.7582 109.549 29.8022 109.747 29.8901C109.986 29.978 110.264 30.0659 110.542 30.1538C110.702 30.1978 110.861 30.2418 111.059 30.2857C111.377 30.3736 111.735 30.4615 112.093 30.5494C112.252 30.5934 112.411 30.5934 112.57 30.6374C113.365 30.7692 114.16 30.8571 114.955 30.8132C115.074 30.8132 115.194 30.8132 115.313 30.8132C115.432 30.8132 115.551 30.8132 115.671 30.7692C115.79 30.7692 115.909 30.7253 116.028 30.7253C116.068 30.5934 116.068 30.4615 116.108 30.3736C116.625 28.044 117.698 25.6264 119.646 23.7363C121.912 21.5385 124.417 20.5275 126.444 20.1319C128.114 19.7802 129.505 19.8242 130.181 19.8681C130.38 19.8681 130.539 19.7363 130.539 19.5165C130.658 18.5055 130.777 17.5385 130.896 16.5275C130.896 16.2198 130.817 16.044 130.658 15.956ZM111.894 18.7692C111.616 18.7692 111.377 18.5055 111.377 18.1978C111.377 17.8901 111.616 17.6264 111.894 17.6264C112.172 17.6264 112.411 17.8901 112.411 18.1978C112.411 18.5055 112.172 18.7692 111.894 18.7692Z" fill="#D1D3D4"/>
<path d="M105.891 16.8791C105.812 16.9231 105.772 16.967 105.693 17.011C104.699 17.7582 103.268 18.989 101.757 20.6154C101.36 19.8681 101.28 18.1978 101.757 17.0549C101.757 17.0549 101.757 17.0549 101.757 17.011C101.797 16.9231 101.916 16.7473 101.956 16.7033C102.035 16.5714 102.155 16.4396 102.274 16.3077C102.353 16.2198 102.393 16.1758 102.473 16.1319C102.552 16.0879 102.592 16.044 102.671 16C103.228 15.7363 103.785 15.7802 104.063 15.8242C104.103 15.8242 104.103 15.8242 104.142 15.8242C104.301 15.8681 104.421 15.8681 104.58 15.9121C104.619 15.9121 104.699 15.956 104.739 15.956C104.898 16 105.057 16.0879 105.176 16.1758C105.216 16.2198 105.255 16.2198 105.295 16.2637C105.335 16.3077 105.375 16.3516 105.414 16.3516L105.454 16.3956C105.653 16.5275 105.772 16.7473 105.891 16.8791Z" fill="#C0C2C4"/>
<path d="M127.199 32.1319C126.325 40.3516 120.401 54.7253 108.316 67.8242C108.118 68.044 107.839 68.0879 107.601 67.9121C93.6075 58.5055 85.4977 44.3077 83.2715 36.4396C81.3633 29.6264 82.1584 23.9121 82.1584 23.9121C82.2379 23.2527 82.7945 19.4286 84.5039 16C89.4731 6.1978 101.876 4.74725 103.307 4.61539C103.268 4.65934 103.228 4.7033 103.228 4.7033C103.188 4.74725 103.148 4.79121 103.148 4.79121C99.7295 8.43956 96.3107 12.0879 92.8919 15.7363C92.6931 15.956 92.7726 16.3516 93.0907 16.3956C94.6808 16.7033 97.2648 17.0549 100.366 16.967H100.445C96.3107 18.8571 93.4087 23.3846 93.4087 28.6593C93.4087 29.8901 93.5677 31.0769 93.8857 32.2198C95.2771 37.4506 99.65 41.2308 104.778 41.2308C108.634 41.2308 112.053 39.0769 114.12 35.8242C114.16 35.7802 114.16 35.7363 114.2 35.6923C114.24 35.6484 114.279 35.5604 114.319 35.5165C114.359 35.4725 114.399 35.3846 114.438 35.3407C114.478 35.2527 114.558 35.1648 114.597 35.0769C114.637 35.033 114.637 34.989 114.677 34.9451C114.756 34.8132 114.796 34.6813 114.876 34.5934C114.876 34.5494 114.915 34.5055 114.915 34.5055C114.955 34.4176 115.035 34.2857 115.074 34.1978C115.114 34.1099 115.154 34.022 115.194 33.978C115.233 33.8462 115.313 33.7143 115.353 33.5824C115.353 33.5385 115.392 33.5385 115.392 33.4945C115.432 33.3626 115.472 33.2308 115.551 33.0989C115.551 33.0549 115.591 33.0549 115.591 33.011C115.631 32.8791 115.671 32.7473 115.711 32.5714C115.75 32.3956 115.79 32.2637 115.83 32.0879C115.83 32.0879 115.83 32.0879 115.83 32.044C115.949 31.6044 116.029 31.1209 116.108 30.6813C116.108 30.5495 116.148 30.4615 116.148 30.3297C116.665 28 117.738 25.5824 119.686 23.6923C121.952 21.4945 124.456 20.4835 126.484 20.0879C126.762 21.3187 127.835 26.1538 127.199 32.1319Z" fill="#FAA41A"/>
<path d="M119.209 12.8791C117.738 12.8352 116.188 12.9231 114.558 13.2308C113.524 13.4066 112.451 13.7143 111.417 14.0659C110.503 14.3736 109.111 14.9011 107.521 15.8242C107.362 15.9121 107.243 16 107.084 16.0879C107.044 16.0879 107.044 16.1319 107.004 16.1319C106.965 16.1758 106.925 16.1758 106.885 16.2198C106.845 16.2198 106.845 16.2637 106.806 16.2637C106.607 16.3956 106.289 16.5714 105.891 16.8791C105.772 16.7473 105.653 16.5714 105.494 16.4396L105.454 16.3956C105.414 16.3516 105.375 16.3077 105.335 16.3077C105.295 16.2637 105.255 16.2637 105.216 16.2198C105.096 16.1319 104.858 15.8681 104.699 15.8242C104.818 13.8901 104.937 12.1758 105.017 10.1978C104.659 9.18681 113.166 5.67033 113.484 6.68132C114.876 8.26373 116.307 9.58242 117.698 11.1648C117.778 11.2527 117.817 11.3407 117.897 11.3846C118.334 11.9121 118.772 12.3956 119.209 12.8791Z" fill="#668EC9"/>
<path d="M123.462 13.4066C122.111 13.1429 120.68 12.9231 119.209 12.8791C118.771 12.3956 118.334 11.9121 117.897 11.3846C117.817 11.2967 117.778 11.2088 117.698 11.1648C118.493 10.5934 119.209 9.97802 119.884 9.36264C120.878 10.1978 121.832 11.1648 122.667 12.3077C122.985 12.6593 123.224 13.011 123.462 13.4066Z" fill="#F89938"/>
<path d="M115.91 30.9451C115.83 31.2967 115.79 31.6484 115.75 31.956C115.75 31.956 115.75 31.956 115.75 32C115.711 32.1758 115.671 32.3077 115.631 32.4835C115.591 32.6154 115.552 32.7473 115.512 32.9231C115.512 32.967 115.512 32.967 115.472 33.011C115.432 33.1429 115.393 33.2747 115.313 33.4066C115.313 33.4505 115.273 33.4505 115.273 33.4945C115.234 33.6264 115.194 33.7582 115.114 33.8901C115.075 33.978 115.035 34.0659 114.995 34.1099C114.955 34.1978 114.916 34.3297 114.836 34.4176C114.836 34.4615 114.796 34.5055 114.796 34.5055C114.757 34.6374 114.677 34.7692 114.598 34.8571C114.598 34.9011 114.558 34.9451 114.518 34.989C114.478 35.0769 114.399 35.1648 114.359 35.2527C114.319 35.2967 114.28 35.3846 114.24 35.4286C114.2 35.5165 114.16 35.5604 114.121 35.6044C114.081 35.6923 113.962 35.6923 113.882 35.6923C113.286 35.4725 112.65 35.1648 111.934 34.8132C111.855 34.7692 111.735 34.7253 111.656 34.6813C111.656 34.6813 111.656 34.6813 111.616 34.6813C111.497 34.6374 111.417 34.5934 111.338 34.5055C111.258 34.4615 111.179 34.4176 111.139 34.3736C111.06 34.3297 111.02 34.2857 110.94 34.2418C110.861 34.1978 110.781 34.1538 110.702 34.1099C110.583 34.0659 110.503 33.978 110.384 33.9341C110.264 33.8462 110.185 33.8022 110.066 33.7143C109.946 33.6264 109.867 33.5824 109.748 33.4945C109.39 33.2747 109.072 33.011 108.714 32.7473C108.635 32.6593 108.515 32.6154 108.436 32.5275C108.356 32.4396 108.277 32.3956 108.197 32.3077C108.118 32.2198 108.038 32.1758 107.959 32.0879C107.601 31.7802 107.243 31.4286 106.925 31.1209C106.846 31.033 106.766 30.9451 106.687 30.8571C106.567 30.7253 106.448 30.5934 106.329 30.4176C106.21 30.2857 106.13 30.1978 106.011 30.0659C105.931 29.9341 105.812 29.8022 105.733 29.7143C105.653 29.6264 105.574 29.5385 105.534 29.4066C105.415 29.2308 105.256 29.0549 105.136 28.8352C104.977 28.5714 104.818 28.3516 104.659 28.0879C104.58 27.956 104.5 27.8242 104.421 27.6484C104.421 27.6484 104.421 27.6044 104.381 27.6044C104.341 27.4286 104.5 27.2527 104.659 27.2967C104.659 27.2967 104.699 27.2967 104.699 27.3407C104.739 27.3846 104.818 27.3846 104.858 27.4286C105.057 27.5604 105.256 27.6484 105.494 27.8242C105.653 27.9121 105.812 28 106.011 28.1319C106.846 28.6154 107.919 29.0989 109.112 29.5824C109.31 29.6703 109.509 29.7143 109.708 29.8022C109.946 29.8901 110.225 29.978 110.503 30.0659C110.662 30.1099 110.821 30.1538 111.02 30.1978C111.338 30.2857 111.696 30.3736 112.053 30.4615C112.212 30.5055 112.371 30.5055 112.53 30.5495C113.326 30.6813 114.121 30.7692 114.916 30.7253C115.035 30.7253 115.154 30.7253 115.273 30.7253C115.393 30.7253 115.512 30.7253 115.631 30.6813C115.671 30.6813 115.671 30.6813 115.711 30.6813C115.83 30.6374 115.949 30.8132 115.91 30.9451Z" fill="black"/>
<path d="M122.27 6.98901C122.906 6.28571 123.462 5.58242 123.979 4.92308C124.138 4.7033 124.059 4.35165 123.78 4.30769C121.872 3.86813 119.964 3.42857 118.096 2.98901L122.27 6.98901Z" fill="#4B6B9C"/>
<path d="M101.876 16.8352C101.836 16.8791 101.797 16.967 101.797 17.011C101.797 17.011 101.797 17.011 101.797 17.0549C101.32 18.1978 101.399 19.8681 101.797 20.6154C101.598 20.8352 101.359 21.0989 101.161 21.3626C98.2586 24.7912 95.1976 29.2308 93.8857 32.2198C93.5677 31.0769 93.4087 29.8901 93.4087 28.6593C93.4087 23.4286 96.3107 18.8571 100.445 16.967H100.366C100.843 16.967 101.399 16.8791 101.876 16.8352Z" fill="white"/>
<path d="M133.759 8.48352C133.759 8.65934 133.719 8.83517 133.639 9.01099C133.48 9.4066 133.122 9.67033 132.685 9.67033C132.089 9.67033 131.612 9.14286 131.612 8.48352C131.612 7.82418 132.089 7.29671 132.685 7.29671C132.884 7.29671 133.083 7.38462 133.242 7.47253C133.56 7.69231 133.759 8.04396 133.759 8.48352Z" fill="#E4D65B"/>
<path d="M138.847 8.48352C138.609 9.0989 139.762 10.1538 139.642 10.3297C139.523 10.4615 138.768 9.84615 138.092 9.45055C136.502 8.61539 134.832 8.83517 133.679 9.01099C133.759 8.83517 133.799 8.7033 133.799 8.48352C133.799 8.04396 133.6 7.69231 133.282 7.47253C134.872 6.1978 137.098 6.63736 139.086 6.41758C139.126 6.41758 139.364 6.46154 139.364 6.5055C139.364 6.5055 139.364 6.63736 138.45 7.2967C138.41 7.34066 138.41 7.38462 138.45 7.38462C139.96 7.69231 140 7.73626 140 7.82418C139.96 8.04396 139.046 8 138.847 8.48352Z" fill="#EFE05E"/>
<path d="M112.411 18.1978C112.411 18.5055 112.173 18.7692 111.894 18.7692C111.616 18.7692 111.377 18.5055 111.377 18.1978C111.377 17.8901 111.616 17.6264 111.894 17.6264C112.173 17.6264 112.411 17.8901 112.411 18.1978Z" fill="black"/>
<path d="M114.399 2.59341C114.955 1.62638 115.989 0.0879134 116.625 0.263738C117.142 0.395606 117.857 1.45055 118.096 1.71429C123.463 7.29671 123.701 7.29671 124.377 7.6044C125.053 7.95605 129.982 9.01099 131.612 8.65934" stroke="#4D4D4F" stroke-width="1.1678" stroke-miterlimit="10"/>
<path d="M122.27 6.98901C121.554 7.78022 120.759 8.57143 119.884 9.36264C119.209 9.97802 118.453 10.5934 117.698 11.1648C116.307 9.58242 114.875 8.26374 113.484 6.68132C113.126 5.67033 104.659 9.18682 105.017 10.1978C104.937 12.1319 104.818 13.8462 104.699 15.8242C104.858 15.8681 105.056 16.1319 105.215 16.2198C105.096 16.1319 104.937 16.044 104.778 16C104.738 16 104.659 15.956 104.619 15.956C104.5 15.9121 104.341 15.9121 104.182 15.8681C104.142 15.8681 104.142 15.8681 104.102 15.8681C103.864 15.8242 103.267 15.7802 102.711 16.044C102.631 16.0879 102.592 16.1319 102.512 16.1758C102.433 16.2198 102.353 16.2637 102.313 16.3516C102.194 16.4835 102.075 16.6154 101.995 16.7473C101.956 16.7912 101.836 16.967 101.796 17.0549C101.836 17.011 101.836 16.9231 101.876 16.8791C101.359 16.9231 100.842 17.011 100.365 17.011C97.2248 17.0989 94.6806 16.7473 93.0904 16.4396C92.8122 16.3956 92.6929 16 92.8917 15.7802C96.3105 12.0879 99.7293 8.43956 103.108 4.83517C103.148 4.79121 103.188 4.74725 103.188 4.74725C103.228 4.7033 103.267 4.65934 103.267 4.65934C104.46 3.38462 105.653 2.10989 106.845 0.835166C107.044 0.615386 107.322 0.527474 107.561 0.615386C109.946 1.0989 112.291 1.62637 114.637 2.1978C115.79 2.46154 116.943 2.72528 118.096 2.98901L122.27 6.98901Z" fill="#4B6B9C"/>
</g>
<defs>
<clipPath id="clip0">
<rect width="64" height="68" fill="white" transform="translate(82)"/>
</clipPath>
</defs>
</svg>
