<svg width="201" height="62" viewBox="0 0 201 62" fill="none" xmlns="http://www.w3.org/2000/svg">
<path d="M65.2324 18.5117H68.6484L67.0586 12.7539H66.8223L65.2324 18.5117ZM71.9785 19.5645C71.9928 20.0514 72.0107 20.5492 72.0322 21.0576C72.0537 21.5661 72.0645 22.0566 72.0645 22.5293V22.8516C72.0645 23.1237 72.0537 23.3887 72.0322 23.6465C72.0179 23.8971 71.9642 24.1263 71.8711 24.334C71.778 24.5345 71.6312 24.6956 71.4307 24.8174C71.2301 24.9391 70.9473 25 70.582 25C70.2096 25 69.9232 24.9391 69.7227 24.8174C69.5221 24.6956 69.3717 24.5345 69.2715 24.334C69.1784 24.1335 69.1211 23.9043 69.0996 23.6465C69.0853 23.3887 69.0781 23.1237 69.0781 22.8516V21.3477H64.7812V22.8516C64.7812 23.1237 64.7705 23.3887 64.749 23.6465C64.7347 23.9043 64.6774 24.1335 64.5771 24.334C64.484 24.5345 64.3372 24.6956 64.1367 24.8174C63.9362 24.9391 63.6497 25 63.2773 25C62.9049 25 62.6185 24.9391 62.418 24.8174C62.2174 24.6956 62.0706 24.5345 61.9775 24.334C61.8844 24.1263 61.8307 23.8971 61.8164 23.6465C61.8021 23.3887 61.7949 23.1237 61.7949 22.8516V22.5293C61.7949 22.3073 61.7949 22.071 61.7949 21.8203C61.8021 21.5697 61.8092 21.3154 61.8164 21.0576C61.8236 20.7998 61.8307 20.5456 61.8379 20.2949C61.8451 20.0371 61.8522 19.7936 61.8594 19.5645C62.2174 18.3184 62.5934 17.0579 62.9873 15.7832C63.3812 14.5013 63.7572 13.2337 64.1152 11.9805C64.1868 11.7155 64.2728 11.4613 64.373 11.2178C64.4733 10.9671 64.6058 10.7523 64.7705 10.5732C64.9352 10.387 65.1465 10.2402 65.4043 10.1328C65.6621 10.0182 65.9915 9.96094 66.3926 9.96094H67.4668C67.8607 9.96094 68.1865 10.0182 68.4443 10.1328C68.7093 10.2402 68.9242 10.387 69.0889 10.5732C69.2536 10.7523 69.3825 10.9671 69.4756 11.2178C69.5758 11.4613 69.6654 11.7155 69.7441 11.9805L71.9785 19.5645ZM84.2392 20.5527H84.497V11.6367C84.497 11.4076 84.5114 11.1927 84.54 10.9922C84.5686 10.7845 84.6295 10.6055 84.7226 10.4551C84.8229 10.3047 84.9661 10.1865 85.1523 10.1006C85.3457 10.0075 85.6071 9.96094 85.9365 9.96094C86.3017 9.96094 86.5882 10.0075 86.7959 10.1006C87.0107 10.1865 87.1718 10.3047 87.2793 10.4551C87.3867 10.6055 87.4547 10.7845 87.4834 10.9922C87.512 11.1927 87.5263 11.4076 87.5263 11.6367V22.5293C87.5263 22.8444 87.5156 23.1488 87.4941 23.4424C87.4798 23.736 87.4225 24.001 87.3222 24.2373C87.2291 24.4665 87.0716 24.6527 86.8496 24.7959C86.6347 24.932 86.3304 25 85.9365 25H84.5185C84.1819 25 83.899 24.9355 83.6699 24.8066C83.4479 24.6706 83.2617 24.5094 83.1113 24.3232C82.9609 24.1299 82.8392 23.9294 82.7461 23.7217C82.6601 23.514 82.5921 23.3385 82.542 23.1953L79.2978 14.4082H79.04V23.3242C79.04 23.5534 79.0257 23.7718 78.997 23.9795C78.9684 24.18 78.9039 24.3555 78.8037 24.5059C78.7106 24.6562 78.5673 24.778 78.374 24.8711C78.1878 24.957 77.93 25 77.6005 25C77.2282 25 76.9345 24.957 76.7197 24.8711C76.5048 24.778 76.3437 24.6562 76.2363 24.5059C76.1289 24.3555 76.0608 24.18 76.0322 23.9795C76.0035 23.7718 75.9892 23.5534 75.9892 23.3242V12.4316C75.9892 12.1237 75.9964 11.8229 76.0107 11.5293C76.0322 11.2285 76.0931 10.9635 76.1933 10.7344C76.2936 10.498 76.4511 10.3118 76.666 10.1758C76.888 10.0326 77.1995 9.96094 77.6005 9.96094H79.0185C79.3766 9.96094 79.6666 10.0326 79.8886 10.1758C80.1178 10.3118 80.304 10.4622 80.4472 10.627C80.6048 10.8203 80.7301 11.0423 80.8232 11.293L84.2392 20.5527ZM98.5624 9.96094C98.8489 9.96094 99.1353 9.97168 99.4218 9.99316C99.7154 10.0146 99.9804 10.0755 100.217 10.1758C100.453 10.276 100.643 10.43 100.786 10.6377C100.936 10.8382 101.012 11.1211 101.012 11.4863C101.012 11.8444 100.936 12.1273 100.786 12.335C100.643 12.5355 100.453 12.6859 100.217 12.7861C99.9804 12.8864 99.7154 12.9508 99.4218 12.9795C99.1353 13.001 98.8489 13.0117 98.5624 13.0117H97.4667V22.5508C97.4667 22.8587 97.456 23.1595 97.4345 23.4531C97.4202 23.7467 97.3629 24.0081 97.2626 24.2373C97.1624 24.4665 97.0012 24.6527 96.7792 24.7959C96.5572 24.932 96.2421 25 95.8339 25C95.4257 25 95.1106 24.932 94.8886 24.7959C94.6666 24.6527 94.5055 24.4665 94.4052 24.2373C94.3049 24.0081 94.2441 23.7467 94.2226 23.4531C94.2083 23.1595 94.2011 22.8587 94.2011 22.5508V13.0117H93.1054C92.8189 13.0117 92.5289 13.001 92.2353 12.9795C91.9488 12.9508 91.6874 12.8864 91.4511 12.7861C91.2148 12.6859 91.0214 12.5355 90.871 12.335C90.7278 12.1273 90.6562 11.8444 90.6562 11.4863C90.6562 11.1211 90.7278 10.8382 90.871 10.6377C91.0214 10.43 91.2148 10.276 91.4511 10.1758C91.6874 10.0755 91.9488 10.0146 92.2353 9.99316C92.5289 9.97168 92.8189 9.96094 93.1054 9.96094H98.5624ZM109.964 9.96094C110.25 9.96094 110.54 9.97168 110.834 9.99316C111.127 10.0146 111.392 10.0755 111.629 10.1758C111.865 10.276 112.058 10.43 112.209 10.6377C112.359 10.8382 112.434 11.1211 112.434 11.4863C112.434 11.8516 112.359 12.138 112.209 12.3457C112.058 12.5462 111.865 12.6966 111.629 12.7969C111.392 12.8971 111.127 12.958 110.834 12.9795C110.54 13.001 110.25 13.0117 109.964 13.0117H107.407V15.9336H108.761C109.047 15.9336 109.334 15.9443 109.62 15.9658C109.914 15.9801 110.171 16.0374 110.393 16.1377C110.623 16.2308 110.809 16.3776 110.952 16.5781C111.095 16.7715 111.167 17.0436 111.167 17.3945C111.167 17.7526 111.095 18.0283 110.952 18.2217C110.809 18.415 110.623 18.5618 110.393 18.6621C110.171 18.7552 109.914 18.8125 109.62 18.834C109.334 18.8483 109.047 18.8555 108.761 18.8555H107.407V21.9492H109.964C110.25 21.9492 110.54 21.96 110.834 21.9814C111.127 22.0029 111.392 22.0638 111.629 22.1641C111.865 22.2572 112.058 22.4076 112.209 22.6152C112.359 22.8158 112.434 23.0951 112.434 23.4531C112.434 23.8255 112.356 24.1156 112.198 24.3232C112.048 24.5309 111.854 24.6849 111.618 24.7852C111.382 24.8854 111.117 24.9463 110.823 24.9678C110.53 24.9893 110.243 25 109.964 25H105.753C105.352 25 105.04 24.9284 104.818 24.7852C104.603 24.6419 104.446 24.4557 104.346 24.2266C104.245 23.9902 104.184 23.7253 104.163 23.4316C104.149 23.138 104.141 22.8372 104.141 22.5293V12.4316C104.141 12.1237 104.149 11.8229 104.163 11.5293C104.184 11.2357 104.245 10.9743 104.346 10.7451C104.446 10.5088 104.603 10.319 104.818 10.1758C105.04 10.0326 105.352 9.96094 105.753 9.96094H109.964ZM119.002 18.5117H122.418L120.828 12.7539H120.592L119.002 18.5117ZM125.748 19.5645C125.762 20.0514 125.78 20.5492 125.802 21.0576C125.823 21.5661 125.834 22.0566 125.834 22.5293V22.8516C125.834 23.1237 125.823 23.3887 125.802 23.6465C125.787 23.8971 125.734 24.1263 125.64 24.334C125.547 24.5345 125.401 24.6956 125.2 24.8174C125 24.9391 124.717 25 124.351 25C123.979 25 123.693 24.9391 123.492 24.8174C123.292 24.6956 123.141 24.5345 123.041 24.334C122.948 24.1335 122.89 23.9043 122.869 23.6465C122.855 23.3887 122.847 23.1237 122.847 22.8516V21.3477H118.551V22.8516C118.551 23.1237 118.54 23.3887 118.518 23.6465C118.504 23.9043 118.447 24.1335 118.347 24.334C118.253 24.5345 118.107 24.6956 117.906 24.8174C117.706 24.9391 117.419 25 117.047 25C116.674 25 116.388 24.9391 116.187 24.8174C115.987 24.6956 115.84 24.5345 115.747 24.334C115.654 24.1263 115.6 23.8971 115.586 23.6465C115.571 23.3887 115.564 23.1237 115.564 22.8516V22.5293C115.564 22.3073 115.564 22.071 115.564 21.8203C115.571 21.5697 115.579 21.3154 115.586 21.0576C115.593 20.7998 115.6 20.5456 115.607 20.2949C115.614 20.0371 115.622 19.7936 115.629 19.5645C115.987 18.3184 116.363 17.0579 116.757 15.7832C117.151 14.5013 117.527 13.2337 117.885 11.9805C117.956 11.7155 118.042 11.4613 118.142 11.2178C118.243 10.9671 118.375 10.7523 118.54 10.5732C118.705 10.387 118.916 10.2402 119.174 10.1328C119.431 10.0182 119.761 9.96094 120.162 9.96094H121.236C121.63 9.96094 121.956 10.0182 122.214 10.1328C122.479 10.2402 122.694 10.387 122.858 10.5732C123.023 10.7523 123.152 10.9671 123.245 11.2178C123.345 11.4613 123.435 11.7155 123.514 11.9805L125.748 19.5645ZM136.182 9.96094C136.469 9.96094 136.755 9.97168 137.042 9.99316C137.335 10.0146 137.6 10.0755 137.837 10.1758C138.073 10.276 138.263 10.43 138.406 10.6377C138.556 10.8382 138.632 11.1211 138.632 11.4863C138.632 11.8444 138.556 12.1273 138.406 12.335C138.263 12.5355 138.073 12.6859 137.837 12.7861C137.6 12.8864 137.335 12.9508 137.042 12.9795C136.755 13.001 136.469 13.0117 136.182 13.0117H135.087V22.5508C135.087 22.8587 135.076 23.1595 135.054 23.4531C135.04 23.7467 134.983 24.0081 134.883 24.2373C134.782 24.4665 134.621 24.6527 134.399 24.7959C134.177 24.932 133.862 25 133.454 25C133.046 25 132.731 24.932 132.509 24.7959C132.287 24.6527 132.125 24.4665 132.025 24.2373C131.925 24.0081 131.864 23.7467 131.843 23.4531C131.828 23.1595 131.821 22.8587 131.821 22.5508V13.0117H130.725C130.439 13.0117 130.149 13.001 129.855 12.9795C129.569 12.9508 129.307 12.8864 129.071 12.7861C128.835 12.6859 128.641 12.5355 128.491 12.335C128.348 12.1273 128.276 11.8444 128.276 11.4863C128.276 11.1211 128.348 10.8382 128.491 10.6377C128.641 10.43 128.835 10.276 129.071 10.1758C129.307 10.0755 129.569 10.0146 129.855 9.99316C130.149 9.97168 130.439 9.96094 130.725 9.96094H136.182ZM147.584 9.96094C147.87 9.96094 148.16 9.97168 148.454 9.99316C148.747 10.0146 149.012 10.0755 149.249 10.1758C149.485 10.276 149.678 10.43 149.829 10.6377C149.979 10.8382 150.054 11.1211 150.054 11.4863C150.054 11.8516 149.979 12.138 149.829 12.3457C149.678 12.5462 149.485 12.6966 149.249 12.7969C149.012 12.8971 148.747 12.958 148.454 12.9795C148.16 13.001 147.87 13.0117 147.584 13.0117H145.027V15.9336H146.381C146.667 15.9336 146.954 15.9443 147.24 15.9658C147.534 15.9801 147.791 16.0374 148.013 16.1377C148.243 16.2308 148.429 16.3776 148.572 16.5781C148.715 16.7715 148.787 17.0436 148.787 17.3945C148.787 17.7526 148.715 18.0283 148.572 18.2217C148.429 18.415 148.243 18.5618 148.013 18.6621C147.791 18.7552 147.534 18.8125 147.24 18.834C146.954 18.8483 146.667 18.8555 146.381 18.8555H145.027V21.9492H147.584C147.87 21.9492 148.16 21.96 148.454 21.9814C148.747 22.0029 149.012 22.0638 149.249 22.1641C149.485 22.2572 149.678 22.4076 149.829 22.6152C149.979 22.8158 150.054 23.0951 150.054 23.4531C150.054 23.8255 149.976 24.1156 149.818 24.3232C149.668 24.5309 149.474 24.6849 149.238 24.7852C149.002 24.8854 148.737 24.9463 148.443 24.9678C148.15 24.9893 147.863 25 147.584 25H143.373C142.972 25 142.66 24.9284 142.438 24.7852C142.223 24.6419 142.066 24.4557 141.966 24.2266C141.865 23.9902 141.804 23.7253 141.783 23.4316C141.769 23.138 141.761 22.8372 141.761 22.5293V12.4316C141.761 12.1237 141.769 11.8229 141.783 11.5293C141.804 11.2357 141.865 10.9743 141.966 10.7451C142.066 10.5088 142.223 10.319 142.438 10.1758C142.66 10.0326 142.972 9.96094 143.373 9.96094H147.584ZM153.915 12.4102C153.915 12.1022 153.922 11.8014 153.936 11.5078C153.958 11.2142 154.019 10.9528 154.119 10.7236C154.219 10.4945 154.377 10.3118 154.592 10.1758C154.814 10.0326 155.125 9.96094 155.526 9.96094H159.071C159.952 10.0039 160.74 10.1901 161.434 10.5195C161.728 10.6628 162.014 10.8418 162.294 11.0566C162.58 11.2643 162.834 11.5257 163.056 11.8408C163.278 12.1488 163.457 12.514 163.593 12.9365C163.73 13.359 163.798 13.8496 163.798 14.4082C163.798 14.5228 163.787 14.6768 163.765 14.8701C163.744 15.0563 163.697 15.264 163.626 15.4932C163.554 15.7152 163.457 15.9479 163.336 16.1914C163.214 16.4349 163.053 16.6676 162.852 16.8896C162.652 17.1117 162.405 17.3158 162.111 17.502C161.825 17.6882 161.484 17.8385 161.091 17.9531C161.341 18.0534 161.595 18.1859 161.853 18.3506C162.111 18.5081 162.344 18.7122 162.551 18.9629C162.759 19.2135 162.927 19.5143 163.056 19.8652C163.192 20.2161 163.26 20.6243 163.26 21.0898V22.6152C163.26 22.7012 163.282 22.7728 163.325 22.8301C163.368 22.8874 163.411 22.9375 163.454 22.9805C163.626 23.1523 163.726 23.3027 163.755 23.4316C163.783 23.5534 163.798 23.6536 163.798 23.7324C163.798 23.9831 163.747 24.1943 163.647 24.3662C163.547 24.5381 163.414 24.6777 163.25 24.7852C163.092 24.8926 162.91 24.9678 162.702 25.0107C162.501 25.0609 162.294 25.0859 162.079 25.0859C161.842 25.0859 161.603 25.0501 161.359 24.9785C161.116 24.8997 160.894 24.7887 160.693 24.6455C160.493 24.5023 160.328 24.3232 160.199 24.1084C160.077 23.8936 160.016 23.6465 160.016 23.3672V21.0898C160.016 20.7747 159.995 20.4847 159.952 20.2197C159.909 19.9548 159.827 19.7256 159.705 19.5322C159.583 19.3389 159.415 19.1885 159.2 19.0811C158.985 18.9736 158.706 18.9199 158.362 18.9199H157.159V22.5078C157.159 22.8229 157.148 23.1309 157.127 23.4316C157.112 23.7324 157.055 24.001 156.955 24.2373C156.855 24.4665 156.693 24.6527 156.471 24.7959C156.249 24.932 155.934 25 155.526 25C155.125 25 154.814 24.932 154.592 24.7959C154.377 24.6527 154.219 24.4665 154.119 24.2373C154.019 24.001 153.958 23.7324 153.936 23.4316C153.922 23.1309 153.915 22.8229 153.915 22.5078V12.4102ZM158.62 16.5137C158.978 16.4993 159.3 16.4134 159.587 16.2559C159.708 16.1914 159.827 16.109 159.941 16.0088C160.056 15.9085 160.16 15.7832 160.253 15.6328C160.346 15.4824 160.417 15.307 160.467 15.1064C160.525 14.9059 160.553 14.6732 160.553 14.4082C160.553 14.1719 160.525 13.9642 160.467 13.7852C160.417 13.599 160.349 13.4378 160.263 13.3018C160.177 13.1657 160.077 13.0511 159.963 12.958C159.855 12.8649 159.744 12.7897 159.63 12.7324C159.357 12.5964 159.05 12.5176 158.706 12.4961H157.159V16.5137H158.62Z" fill="#DEDEDE"/>
<path d="M108.652 46.0703V49.5508C108.652 49.8587 108.642 50.1595 108.62 50.4531C108.606 50.7467 108.545 51.0081 108.438 51.2373C108.337 51.4665 108.176 51.6527 107.954 51.7959C107.732 51.932 107.413 52 106.998 52C106.597 52 106.285 51.932 106.063 51.7959C105.849 51.6527 105.691 51.4665 105.591 51.2373C105.491 51.0081 105.43 50.7467 105.408 50.4531C105.394 50.1595 105.387 49.8587 105.387 49.5508V39.4102C105.387 39.1022 105.394 38.8014 105.408 38.5078C105.43 38.2142 105.491 37.9528 105.591 37.7236C105.691 37.4945 105.849 37.3118 106.063 37.1758C106.285 37.0326 106.597 36.9609 106.998 36.9609H110.543C111.431 37.0039 112.226 37.1901 112.928 37.5195C113.229 37.6628 113.519 37.8418 113.798 38.0566C114.084 38.2715 114.339 38.5365 114.561 38.8516C114.79 39.1595 114.972 39.5283 115.108 39.958C115.244 40.3805 115.312 40.8711 115.312 41.4297C115.312 42.196 115.191 42.8691 114.947 43.4492C114.711 44.0221 114.364 44.5055 113.905 44.8994C113.454 45.2861 112.899 45.5798 112.24 45.7803C111.589 45.9736 110.851 46.0703 110.027 46.0703H108.652ZM110.113 43.5137C110.471 43.4922 110.794 43.4062 111.08 43.2559C111.202 43.1914 111.32 43.109 111.435 43.0088C111.549 42.9085 111.653 42.7868 111.746 42.6436C111.839 42.4932 111.911 42.3177 111.961 42.1172C112.018 41.9167 112.047 41.6875 112.047 41.4297C112.047 41.1862 112.018 40.9749 111.961 40.7959C111.911 40.6097 111.843 40.4521 111.757 40.3232C111.671 40.1872 111.574 40.0726 111.467 39.9795C111.359 39.8864 111.248 39.8076 111.134 39.7432C110.862 39.6071 110.557 39.5247 110.221 39.4961H108.652V43.5137H110.113ZM121.257 45.5117H124.673L123.083 39.7539H122.847L121.257 45.5117ZM128.003 46.5645C128.017 47.0514 128.035 47.5492 128.057 48.0576C128.078 48.5661 128.089 49.0566 128.089 49.5293V49.8516C128.089 50.1237 128.078 50.3887 128.057 50.6465C128.042 50.8971 127.989 51.1263 127.895 51.334C127.802 51.5345 127.656 51.6956 127.455 51.8174C127.255 51.9391 126.972 52 126.606 52C126.234 52 125.948 51.9391 125.747 51.8174C125.547 51.6956 125.396 51.5345 125.296 51.334C125.203 51.1335 125.145 50.9043 125.124 50.6465C125.11 50.3887 125.103 50.1237 125.103 49.8516V48.3477H120.806V49.8516C120.806 50.1237 120.795 50.3887 120.773 50.6465C120.759 50.9043 120.702 51.1335 120.602 51.334C120.508 51.5345 120.362 51.6956 120.161 51.8174C119.961 51.9391 119.674 52 119.302 52C118.929 52 118.643 51.9391 118.442 51.8174C118.242 51.6956 118.095 51.5345 118.002 51.334C117.909 51.1263 117.855 50.8971 117.841 50.6465C117.826 50.3887 117.819 50.1237 117.819 49.8516V49.5293C117.819 49.3073 117.819 49.071 117.819 48.8203C117.826 48.5697 117.834 48.3154 117.841 48.0576C117.848 47.7998 117.855 47.5456 117.862 47.2949C117.869 47.0371 117.877 46.7936 117.884 46.5645C118.242 45.3184 118.618 44.0579 119.012 42.7832C119.406 41.5013 119.782 40.2337 120.14 38.9805C120.211 38.7155 120.297 38.4613 120.397 38.2178C120.498 37.9671 120.63 37.7523 120.795 37.5732C120.96 37.387 121.171 37.2402 121.429 37.1328C121.686 37.0182 122.016 36.9609 122.417 36.9609H123.491C123.885 36.9609 124.211 37.0182 124.469 37.1328C124.734 37.2402 124.949 37.387 125.113 37.5732C125.278 37.7523 125.407 37.9671 125.5 38.2178C125.6 38.4613 125.69 38.7155 125.769 38.9805L128.003 46.5645ZM138.437 36.9609C138.724 36.9609 139.01 36.9717 139.297 36.9932C139.59 37.0146 139.855 37.0755 140.092 37.1758C140.328 37.276 140.518 37.43 140.661 37.6377C140.811 37.8382 140.887 38.1211 140.887 38.4863C140.887 38.8444 140.811 39.1273 140.661 39.335C140.518 39.5355 140.328 39.6859 140.092 39.7861C139.855 39.8864 139.59 39.9508 139.297 39.9795C139.01 40.001 138.724 40.0117 138.437 40.0117H137.342V49.5508C137.342 49.8587 137.331 50.1595 137.309 50.4531C137.295 50.7467 137.238 51.0081 137.138 51.2373C137.037 51.4665 136.876 51.6527 136.654 51.7959C136.432 51.932 136.117 52 135.709 52C135.301 52 134.986 51.932 134.764 51.7959C134.542 51.6527 134.38 51.4665 134.28 51.2373C134.18 51.0081 134.119 50.7467 134.098 50.4531C134.083 50.1595 134.076 49.8587 134.076 49.5508V40.0117H132.98C132.694 40.0117 132.404 40.001 132.11 39.9795C131.824 39.9508 131.562 39.8864 131.326 39.7861C131.09 39.6859 130.896 39.5355 130.746 39.335C130.603 39.1273 130.531 38.8444 130.531 38.4863C130.531 38.1211 130.603 37.8382 130.746 37.6377C130.896 37.43 131.09 37.276 131.326 37.1758C131.562 37.0755 131.824 37.0146 132.11 36.9932C132.404 36.9717 132.694 36.9609 132.98 36.9609H138.437ZM144.081 39.4316C144.081 39.1237 144.095 38.8229 144.124 38.5293C144.153 38.2357 144.221 37.9743 144.328 37.7451C144.443 37.5088 144.607 37.319 144.822 37.1758C145.037 37.0326 145.334 36.9609 145.714 36.9609C146.086 36.9609 146.38 37.0326 146.595 37.1758C146.817 37.319 146.981 37.5088 147.089 37.7451C147.203 37.9743 147.275 38.2357 147.304 38.5293C147.332 38.8229 147.347 39.1237 147.347 39.4316V42.8047H150.29V39.4316C150.29 39.1237 150.304 38.8229 150.333 38.5293C150.362 38.2357 150.43 37.9743 150.537 37.7451C150.652 37.5088 150.816 37.319 151.031 37.1758C151.246 37.0326 151.543 36.9609 151.923 36.9609C152.295 36.9609 152.589 37.0326 152.804 37.1758C153.026 37.319 153.19 37.5088 153.298 37.7451C153.412 37.9743 153.484 38.2357 153.513 38.5293C153.541 38.8229 153.556 39.1237 153.556 39.4316V49.5293C153.556 49.8444 153.541 50.1488 153.513 50.4424C153.484 50.736 153.412 51.001 153.298 51.2373C153.19 51.4665 153.026 51.6527 152.804 51.7959C152.589 51.932 152.295 52 151.923 52C151.543 52 151.246 51.932 151.031 51.7959C150.816 51.6527 150.652 51.4665 150.537 51.2373C150.43 51.001 150.362 50.736 150.333 50.4424C150.304 50.1488 150.29 49.8444 150.29 49.5293V45.9629H147.347V49.5293C147.347 49.8444 147.332 50.1488 147.304 50.4424C147.275 50.736 147.203 51.001 147.089 51.2373C146.981 51.4665 146.817 51.6527 146.595 51.7959C146.38 51.932 146.086 52 145.714 52C145.334 52 145.037 51.932 144.822 51.7959C144.607 51.6527 144.443 51.4665 144.328 51.2373C144.221 51.001 144.153 50.736 144.124 50.4424C144.095 50.1488 144.081 49.8444 144.081 49.5293V39.4316ZM165.623 37.0254C165.823 37.0254 166.01 37.0612 166.181 37.1328C166.361 37.2044 166.518 37.3047 166.654 37.4336C166.797 37.5553 166.919 37.7057 167.019 37.8848C167.12 38.0566 167.191 38.2428 167.234 38.4434L169.082 47.0156H169.447C169.748 45.6191 170.056 44.194 170.371 42.7402C170.686 41.2793 171.001 39.847 171.316 38.4434C171.381 38.1712 171.477 37.9242 171.606 37.7021C171.721 37.516 171.878 37.3477 172.079 37.1973C172.287 37.0397 172.555 36.9609 172.885 36.9609C173.135 36.9609 173.354 37.0075 173.54 37.1006C173.733 37.1865 173.891 37.3011 174.013 37.4443C174.141 37.5804 174.235 37.7308 174.292 37.8955C174.356 38.0602 174.389 38.2214 174.389 38.3789C174.389 38.4648 174.385 38.5472 174.378 38.626C174.371 38.7048 174.36 38.7728 174.346 38.8301C174.331 38.9017 174.317 38.9661 174.303 39.0234L171.359 50.7109C171.252 50.9544 171.109 51.1693 170.93 51.3555C170.779 51.5202 170.582 51.6706 170.339 51.8066C170.102 51.9355 169.805 52 169.447 52H169.082C168.724 52 168.43 51.9355 168.201 51.8066C167.972 51.6706 167.789 51.5202 167.653 51.3555C167.496 51.1693 167.377 50.9544 167.299 50.7109L165.795 44.416H165.43C165.2 45.4329 164.953 46.4821 164.688 47.5635C164.431 48.6449 164.183 49.694 163.947 50.7109C163.854 50.9544 163.729 51.1693 163.571 51.3555C163.428 51.5202 163.242 51.6706 163.013 51.8066C162.791 51.9355 162.5 52 162.142 52H161.777C161.419 52 161.115 51.9355 160.864 51.8066C160.621 51.6706 160.42 51.5202 160.263 51.3555C160.076 51.1693 159.93 50.9544 159.822 50.7109L156.922 39.0234C156.907 38.9661 156.893 38.9017 156.879 38.8301C156.864 38.7728 156.854 38.7048 156.847 38.626C156.839 38.5472 156.836 38.4648 156.836 38.3789C156.836 38.2214 156.864 38.0602 156.922 37.8955C156.986 37.7308 157.079 37.5804 157.201 37.4443C157.33 37.3011 157.487 37.1865 157.674 37.1006C157.867 37.0075 158.089 36.9609 158.34 36.9609C158.669 36.9609 158.934 37.0397 159.135 37.1973C159.342 37.3477 159.503 37.516 159.618 37.7021C159.747 37.9242 159.844 38.1712 159.908 38.4434L161.777 47.0156H162.142C162.278 46.3568 162.425 45.6657 162.583 44.9424C162.74 44.2119 162.898 43.4779 163.056 42.7402C163.22 41.9954 163.381 41.2614 163.539 40.5381C163.704 39.8076 163.861 39.1094 164.012 38.4434C164.112 38.0352 164.305 37.6986 164.592 37.4336C164.878 37.1615 165.222 37.0254 165.623 37.0254ZM180.247 45.5117H183.663L182.073 39.7539H181.837L180.247 45.5117ZM186.993 46.5645C187.007 47.0514 187.025 47.5492 187.047 48.0576C187.068 48.5661 187.079 49.0566 187.079 49.5293V49.8516C187.079 50.1237 187.068 50.3887 187.047 50.6465C187.032 50.8971 186.979 51.1263 186.886 51.334C186.792 51.5345 186.646 51.6956 186.445 51.8174C186.245 51.9391 185.962 52 185.596 52C185.224 52 184.938 51.9391 184.737 51.8174C184.537 51.6956 184.386 51.5345 184.286 51.334C184.193 51.1335 184.136 50.9043 184.114 50.6465C184.1 50.3887 184.093 50.1237 184.093 49.8516V48.3477H179.796V49.8516C179.796 50.1237 179.785 50.3887 179.763 50.6465C179.749 50.9043 179.692 51.1335 179.592 51.334C179.498 51.5345 179.352 51.6956 179.151 51.8174C178.951 51.9391 178.664 52 178.292 52C177.919 52 177.633 51.9391 177.432 51.8174C177.232 51.6956 177.085 51.5345 176.992 51.334C176.899 51.1263 176.845 50.8971 176.831 50.6465C176.817 50.3887 176.809 50.1237 176.809 49.8516V49.5293C176.809 49.3073 176.809 49.071 176.809 48.8203C176.817 48.5697 176.824 48.3154 176.831 48.0576C176.838 47.7998 176.845 47.5456 176.852 47.2949C176.86 47.0371 176.867 46.7936 176.874 46.5645C177.232 45.3184 177.608 44.0579 178.002 42.7832C178.396 41.5013 178.772 40.2337 179.13 38.9805C179.201 38.7155 179.287 38.4613 179.387 38.2178C179.488 37.9671 179.62 37.7523 179.785 37.5732C179.95 37.387 180.161 37.2402 180.419 37.1328C180.677 37.0182 181.006 36.9609 181.407 36.9609H182.481C182.875 36.9609 183.201 37.0182 183.459 37.1328C183.724 37.2402 183.939 37.387 184.103 37.5732C184.268 37.7523 184.397 37.9671 184.49 38.2178C184.59 38.4613 184.68 38.7155 184.759 38.9805L186.993 46.5645ZM196.439 49.5723C196.439 49.873 196.425 50.1702 196.396 50.4639C196.368 50.7503 196.3 51.0081 196.192 51.2373C196.085 51.4665 195.924 51.6527 195.709 51.7959C195.494 51.932 195.2 52 194.828 52C194.448 52 194.151 51.932 193.936 51.7959C193.721 51.6527 193.557 51.4665 193.442 51.2373C193.335 51.0081 193.267 50.7503 193.238 50.4639C193.209 50.1702 193.195 49.873 193.195 49.5723V45.834L189.994 40.1191C189.822 39.8184 189.657 39.5247 189.5 39.2383C189.342 38.9447 189.263 38.651 189.263 38.3574C189.263 38.1641 189.317 37.9707 189.425 37.7773C189.539 37.5768 189.743 37.3906 190.037 37.2188C190.359 37.0469 190.66 36.9609 190.939 36.9609C191.154 36.9609 191.347 37.0111 191.519 37.1113C191.698 37.2044 191.859 37.3298 192.003 37.4873C192.146 37.6449 192.275 37.8239 192.389 38.0244C192.504 38.2178 192.608 38.4147 192.701 38.6152L194.656 42.7188H195L196.955 38.6152C197.048 38.4147 197.152 38.2178 197.266 38.0244C197.381 37.8239 197.51 37.6449 197.653 37.4873C197.796 37.3298 197.954 37.2044 198.126 37.1113C198.305 37.0111 198.502 36.9609 198.717 36.9609C198.867 36.9609 199.014 36.9824 199.157 37.0254C199.3 37.0684 199.454 37.1328 199.619 37.2188C199.898 37.3906 200.095 37.5768 200.21 37.7773C200.331 37.9707 200.392 38.1641 200.392 38.3574C200.392 38.4863 200.335 38.6976 200.22 38.9912C200.106 39.2777 199.92 39.6536 199.662 40.1191L196.439 45.834V49.5723Z" fill="url(#paint0_linear)"/>
<path d="M45.3192 14.9721C43.8295 14.2636 41.4814 13.2879 38.6253 12.712C37.3843 12.4606 36.0503 12.2846 34.6449 12.2412H34.6427C33.2612 12.1955 31.8104 12.2755 30.3229 12.536C30.3207 12.5383 30.3207 12.5383 30.3186 12.536C29.3521 12.7051 28.3662 12.9496 27.376 13.2833C26.5068 13.5758 25.216 14.0306 23.7566 14.8532H23.7545C23.6247 14.9264 23.495 15.0018 23.3631 15.0818H23.361C23.3372 15.0955 23.3134 15.1115 23.2896 15.1252C23.2529 15.148 23.2139 15.1709 23.175 15.1937C23.1556 15.2052 23.1339 15.2189 23.1123 15.2326C22.9264 15.3446 22.6367 15.5205 22.254 15.7833C22.1956 15.8222 22.1372 15.8633 22.0745 15.9067C21.1513 16.5557 19.8259 17.6595 18.4228 19.1335C18.4184 19.138 18.4163 19.1403 18.4119 19.1449C18.2109 19.3528 18.0098 19.5722 17.8087 19.7985C15.0996 22.8492 12.2694 26.8141 11.0457 29.4581C12.3386 34.0971 16.399 37.4838 21.2075 37.4838C24.8117 37.4838 27.9943 35.5825 29.9078 32.6757C29.8602 32.6574 29.8126 32.6392 29.7629 32.6209C29.2224 32.4152 28.604 32.1547 27.9424 31.8279C27.8516 31.7845 27.7608 31.7388 27.67 31.6931C27.6614 31.6885 27.6527 31.6839 27.6441 31.6794C27.5533 31.6337 27.4603 31.5857 27.3673 31.5331C27.2981 31.4988 27.2311 31.4623 27.1641 31.4257C27.1035 31.3937 27.043 31.3594 26.9825 31.3252C26.9133 31.2863 26.8441 31.2475 26.7749 31.2063C26.6754 31.1515 26.5738 31.0921 26.4744 31.0304C26.3728 30.9709 26.2711 30.9092 26.1717 30.8453C26.0701 30.7836 25.9684 30.7196 25.8668 30.651C25.549 30.4453 25.2312 30.2237 24.9155 29.9883C24.8269 29.922 24.7382 29.8558 24.6496 29.7849C24.5739 29.7255 24.4982 29.6661 24.4226 29.6044C24.3447 29.5427 24.2669 29.4787 24.189 29.4124C23.8604 29.1382 23.5339 28.8434 23.2183 28.5326C23.1426 28.4572 23.0691 28.3818 22.9934 28.3041C22.8767 28.183 22.7599 28.0573 22.6453 27.9316C22.5523 27.8265 22.4594 27.7214 22.3664 27.6139C22.2756 27.5065 22.1848 27.3969 22.0961 27.2849C22.0291 27.2026 21.9621 27.1158 21.8972 27.0289C21.7697 26.8667 21.6508 26.6999 21.534 26.5307C21.3805 26.3137 21.2356 26.0897 21.0951 25.8589C21.0194 25.7332 20.9459 25.6075 20.8746 25.4795C20.8637 25.4613 20.8573 25.443 20.8529 25.4247C20.8054 25.2693 20.9481 25.1162 21.0951 25.1665C21.1124 25.171 21.1275 25.1779 21.1448 25.187C21.1902 25.2145 21.24 25.2442 21.2918 25.2739C21.4626 25.3744 21.6616 25.4864 21.8821 25.6075C22.0334 25.6898 22.1956 25.7766 22.3664 25.8635C23.1534 26.2748 24.1458 26.741 25.2463 27.1432C25.4258 27.2095 25.6074 27.2734 25.7933 27.3351C26.0311 27.4151 26.2711 27.4905 26.5155 27.5614C26.6711 27.6071 26.8268 27.6505 26.9846 27.6894C27.296 27.7716 27.6138 27.8448 27.9316 27.9065C28.083 27.9362 28.2343 27.9636 28.3857 27.9887C29.1294 28.1098 29.884 28.1693 30.6256 28.1373C30.7315 28.135 30.8396 28.1281 30.9456 28.119C31.0623 28.1121 31.1791 28.1007 31.2958 28.087C31.4104 28.0733 31.5272 28.0573 31.6418 28.039C31.6634 27.9316 31.6872 27.8196 31.7174 27.7099C31.7174 27.7076 31.7196 27.7031 31.7196 27.7008C32.2169 25.6235 33.1877 23.4685 35.006 21.7775C37.1227 19.8076 39.4469 18.9278 41.3496 18.553C42.9214 18.2422 44.2035 18.2742 44.8435 18.3199C45.0186 18.3314 45.17 18.1965 45.1937 18.0137C45.304 17.1293 45.4143 16.2427 45.5224 15.3583C45.544 15.196 45.4597 15.0383 45.3192 14.9721ZM27.8516 17.4767C27.5857 17.4767 27.3716 17.2482 27.3716 16.9671C27.3716 16.686 27.5857 16.4575 27.8516 16.4575C28.1176 16.4575 28.3338 16.686 28.3338 16.9671C28.3338 17.2482 28.1176 17.4767 27.8516 17.4767Z" fill="#D1D3D4"/>
<path d="M22.2539 15.7833C22.1956 15.8222 22.1372 15.8633 22.0745 15.9067C21.1513 16.5557 19.8259 17.6595 18.4227 19.1335C18.0465 18.4525 17.9643 16.9648 18.4227 15.9547C18.427 15.9456 18.4314 15.9364 18.4378 15.9273C18.4854 15.8519 18.5892 15.7033 18.6216 15.6553C18.7103 15.5228 18.8097 15.404 18.9243 15.3034H18.9265C18.987 15.244 19.0497 15.1937 19.1167 15.148C19.1751 15.1092 19.2357 15.0726 19.2962 15.0452H19.2984C19.8043 14.7938 20.3513 14.8395 20.587 14.8715C20.6172 14.8738 20.641 14.8784 20.6605 14.8806C20.7924 14.9012 20.9329 14.9149 21.0518 14.9538C21.1015 14.9698 21.1491 14.9858 21.1967 15.004C21.348 15.0612 21.4886 15.132 21.6161 15.2097H21.6183C21.655 15.2326 21.6896 15.2531 21.7221 15.276C21.7653 15.3057 21.8085 15.3354 21.8475 15.3651C21.8626 15.3765 21.8777 15.388 21.8907 15.3994C22.0269 15.5045 22.1566 15.6713 22.2539 15.7833Z" fill="#C0C2C4"/>
<path d="M42.1019 29.3896C41.2717 36.6886 35.7627 49.5042 24.5047 61.1703C24.3274 61.3531 24.0528 61.3874 23.8409 61.2502C10.8143 52.8657 3.24702 40.233 1.19953 33.2128C-0.57555 27.1272 0.144426 22.0609 0.144426 22.0609C0.226585 21.4896 0.739 18.0503 2.33678 15.0269C6.94636 6.29508 18.5222 5.00393 19.854 4.88281C19.8238 4.91481 19.7957 4.94451 19.7654 4.97422C19.7373 5.00393 19.707 5.03364 19.6789 5.06335C16.5006 8.3038 13.3202 11.5465 10.1419 14.787C9.9495 14.9858 10.049 15.3309 10.3149 15.3811C11.8132 15.6577 14.1894 15.9525 17.0974 15.8862H17.1536C13.3007 17.5613 10.6133 21.6084 10.6133 26.284C10.6133 27.3854 10.7646 28.4527 11.0457 29.4582C12.3386 34.0972 16.399 37.4839 21.2075 37.4839C24.8117 37.4839 27.9943 35.5826 29.9078 32.6758C29.9337 32.6369 29.9575 32.5981 29.9813 32.5592C29.9878 32.5523 29.9921 32.5478 29.9964 32.5409C30.0288 32.4884 30.0634 32.4358 30.0915 32.3832C30.1283 32.3284 30.1629 32.2735 30.191 32.2187C30.2429 32.1364 30.2904 32.0519 30.3358 31.9673C30.3575 31.9331 30.3769 31.8988 30.3942 31.8645C30.4526 31.7571 30.511 31.6474 30.565 31.5377C30.5823 31.508 30.5975 31.476 30.6104 31.4463C30.658 31.3526 30.7034 31.2589 30.7445 31.1629C30.7791 31.0921 30.8115 31.0212 30.8418 30.9504C30.8893 30.8407 30.9347 30.7287 30.9802 30.6168C30.991 30.5916 30.9996 30.5642 31.0104 30.5391C31.058 30.4179 31.1012 30.2968 31.1445 30.1734C31.1553 30.1483 31.1639 30.1209 31.1704 30.0957C31.2137 29.9723 31.2526 29.8489 31.2915 29.7232C31.2915 29.721 31.2937 29.7187 31.2937 29.7141C31.3391 29.5701 31.3801 29.4239 31.4169 29.2776C31.4191 29.2685 31.4212 29.2593 31.4234 29.2502C31.5293 28.8526 31.6115 28.4458 31.6742 28.0322C31.6893 27.9248 31.7045 27.8174 31.7174 27.71C31.7174 27.7077 31.7196 27.7031 31.7196 27.7008C32.2169 25.6235 33.1876 23.4686 35.006 21.7775C37.1226 19.8076 39.4469 18.9278 41.3495 18.553C41.6825 19.7528 42.7095 24.0444 42.1019 29.3896Z" fill="#E47B00"/>
<path d="M34.6427 12.2412C33.2612 12.1955 31.8104 12.2755 30.3229 12.536C30.3207 12.5383 30.3186 12.536 30.3186 12.536C29.3521 12.7051 28.3662 12.9496 27.376 13.2833C26.5068 13.5758 25.216 14.0305 23.7566 14.8532H23.7545C23.6247 14.9264 23.495 15.0018 23.3631 15.0818H23.361C23.3372 15.0955 23.3134 15.1115 23.2896 15.1252C23.2529 15.148 23.2139 15.1709 23.175 15.1937C23.1556 15.2052 23.1339 15.2189 23.1123 15.2326C22.9264 15.3446 22.6367 15.5205 22.254 15.7833C22.1567 15.6713 22.0269 15.5045 21.8907 15.3994C21.8778 15.388 21.8626 15.3765 21.8475 15.3651C21.8086 15.3354 21.7653 15.3057 21.7221 15.276C21.6897 15.2531 21.6551 15.2326 21.6183 15.2097H21.6161C21.4886 15.132 21.2918 14.9035 21.1405 14.8464C21.2335 13.1165 21.3545 11.5876 21.4345 9.85315C21.1189 8.96191 29.0083 5.82887 29.324 6.72011C30.6234 8.1438 31.9466 9.31613 33.2482 10.7147C33.3109 10.7832 33.3758 10.8518 33.4385 10.9204C33.8406 11.3614 34.2428 11.8002 34.6427 12.2412Z" fill="#668EC9"/>
<path d="M38.6253 12.712C37.3842 12.4606 36.0502 12.2846 34.6449 12.2412H34.6427C34.2427 11.8002 33.8406 11.3614 33.4384 10.9204C33.3757 10.8518 33.3109 10.7833 33.2482 10.7147C33.9811 10.1937 34.6643 9.65435 35.3 9.1059C36.2383 9.83945 37.1183 10.701 37.9053 11.7111C38.1604 12.0378 38.4004 12.3738 38.6253 12.712Z" fill="#F89938"/>
<path d="M31.5812 28.3338C31.5185 28.6423 31.4666 28.9485 31.4234 29.2502C31.4212 29.2593 31.4191 29.2684 31.4169 29.2776C31.378 29.4238 31.3369 29.5701 31.2937 29.7141C31.2937 29.7186 31.2915 29.7209 31.2915 29.7232C31.2526 29.8489 31.2137 29.9723 31.1704 30.0957C31.1639 30.1208 31.1553 30.1483 31.1445 30.1734C31.1012 30.2968 31.058 30.4179 31.0104 30.539C30.9996 30.5642 30.991 30.5916 30.9802 30.6167C30.9348 30.7287 30.8893 30.8407 30.8418 30.9504C30.8115 31.0212 30.7791 31.0921 30.7445 31.1629C30.7034 31.2589 30.658 31.3526 30.6104 31.4463C30.5975 31.476 30.5823 31.508 30.565 31.5377C30.511 31.6474 30.4526 31.7571 30.3942 31.8645C30.3769 31.8987 30.3575 31.933 30.3359 31.9673C30.2905 32.0519 30.2429 32.1364 30.191 32.2187C30.1629 32.2735 30.1283 32.3284 30.0915 32.3832C30.0569 32.4426 30.0202 32.502 29.9813 32.5592C29.9294 32.6254 29.8429 32.6506 29.7629 32.6209C29.2224 32.4152 28.604 32.1547 27.9424 31.8279C27.8516 31.7845 27.7608 31.7388 27.67 31.6931C27.6613 31.6885 27.6527 31.6839 27.6441 31.6794C27.5511 31.6314 27.4603 31.5834 27.3673 31.5331C27.2981 31.4988 27.2311 31.4623 27.1641 31.4257C27.1035 31.3937 27.043 31.3594 26.9825 31.3251C26.9133 31.2863 26.8441 31.2475 26.7749 31.2063C26.6733 31.1492 26.5738 31.0898 26.4744 31.0304C26.3727 30.9709 26.2711 30.9092 26.1717 30.8453C26.07 30.7835 25.9684 30.7173 25.8668 30.651C25.549 30.4453 25.2312 30.2237 24.9155 29.9883C24.8268 29.922 24.7382 29.8557 24.6496 29.7849C24.5739 29.7255 24.4982 29.6661 24.4225 29.6044C24.3447 29.5427 24.2669 29.4787 24.189 29.4124C23.8604 29.1382 23.5339 28.8434 23.2183 28.5326C23.1426 28.4572 23.0691 28.3818 22.9934 28.3041C22.8766 28.183 22.7599 28.0573 22.6453 27.9316C22.5523 27.8265 22.4594 27.7213 22.3664 27.6139C22.2756 27.5065 22.1848 27.3968 22.0961 27.2849C22.0291 27.2026 21.9621 27.1158 21.8972 27.0289C21.7697 26.8667 21.6507 26.6999 21.534 26.5307C21.3826 26.3136 21.2378 26.0897 21.0951 25.8589C21.0194 25.7332 20.9459 25.6075 20.8745 25.4795C20.8637 25.4613 20.8573 25.443 20.8529 25.4247C20.814 25.2739 20.9502 25.1253 21.0951 25.1665C21.1124 25.171 21.1275 25.1779 21.1448 25.187C21.1902 25.2145 21.2399 25.2442 21.2918 25.2739C21.4626 25.3744 21.6615 25.4864 21.8821 25.6075C22.0334 25.6898 22.1956 25.7766 22.3664 25.8635C23.1534 26.2748 24.1458 26.741 25.2463 27.1432C25.4257 27.2095 25.6074 27.2734 25.7933 27.3351C26.0311 27.4151 26.2711 27.4905 26.5154 27.5614C26.6711 27.6071 26.8268 27.6505 26.9846 27.6894C27.296 27.7716 27.6138 27.8448 27.9316 27.9065C28.083 27.9362 28.2343 27.9636 28.3856 27.9887C29.1294 28.1098 29.884 28.1693 30.6256 28.1373C30.7315 28.135 30.8396 28.1281 30.9456 28.119C31.0623 28.1121 31.1791 28.1007 31.2958 28.087C31.3174 28.0847 31.3391 28.0824 31.3607 28.0801C31.4969 28.0618 31.6093 28.1898 31.5812 28.3338Z" fill="black"/>
<path d="M37.5205 6.98521C38.1086 6.36134 38.6404 5.74433 39.1161 5.15246C39.2783 4.95136 39.1766 4.64057 38.9323 4.58572C37.1637 4.19723 35.3951 3.80874 33.6244 3.41797" fill="#4B6B9C"/>
<path d="M18.5179 15.765C18.4876 15.8176 18.4617 15.8725 18.4379 15.9273C18.4314 15.9364 18.4271 15.9456 18.4227 15.9547C17.9644 16.9648 18.0465 18.4525 18.4227 19.1335C18.4184 19.138 18.4163 19.1403 18.4119 19.1449C18.2109 19.3529 18.0098 19.5722 17.8087 19.7985C15.0996 22.8493 12.2694 26.8141 11.0457 29.4581C10.7646 28.4526 10.6133 27.3854 10.6133 26.2839C10.6133 21.6084 13.3007 17.5612 17.1536 15.8862H17.0974C17.5406 15.877 18.053 15.7948 18.5179 15.765Z" fill="white"/>
<path d="M48.1947 8.32894C48.1947 8.49348 48.1601 8.64888 48.0953 8.78599C47.9353 9.13792 47.5958 9.38015 47.2023 9.38015C46.6531 9.38015 46.2077 8.90939 46.2077 8.32894C46.2077 7.7485 46.6531 7.27774 47.2023 7.27774C47.3947 7.27774 47.5764 7.33716 47.7277 7.43771C48.0088 7.62281 48.1947 7.95188 48.1947 8.32894Z" fill="#E4D65B"/>
<path d="M52.9448 8.30838C52.7135 8.85912 53.7989 9.78007 53.6756 9.93775C53.574 10.0657 52.8583 9.49442 52.214 9.16534C50.7244 8.40893 49.1763 8.60089 48.0953 8.786C48.1601 8.64888 48.1947 8.49349 48.1947 8.32895C48.1947 7.95189 48.0088 7.62282 47.7277 7.43771C49.2109 6.30881 51.2822 6.70187 53.1286 6.49391C53.1805 6.48934 53.3772 6.52591 53.3989 6.58532C53.3989 6.60132 53.3945 6.72015 52.5513 7.29831C52.5167 7.32117 52.5275 7.3783 52.5686 7.38744C53.9697 7.66852 54.0021 7.71423 53.9999 7.79421C53.9934 7.95189 53.1243 7.87648 52.9448 8.30838Z" fill="#EFE05E"/>
<path d="M28.3338 16.9671C28.3338 17.2482 28.1175 17.4767 27.8516 17.4767C27.5857 17.4767 27.3716 17.2482 27.3716 16.9671C27.3716 16.686 27.5857 16.4575 27.8516 16.4575C28.1175 16.4575 28.3338 16.686 28.3338 16.9671Z" fill="black"/>
<path d="M30.1644 3.09004C30.6911 2.21754 31.6385 0.873597 32.2469 1.00957C32.7373 1.11903 33.3924 2.07083 33.6244 2.30186C38.6253 7.2848 38.851 7.2567 39.4681 7.55126C40.097 7.85154 44.6768 8.79465 46.2078 8.47335" stroke="#4D4D4F" stroke-miterlimit="10"/>
<path d="M33.6244 3.41793C32.5498 3.18255 31.4731 2.94489 30.3964 2.70951C28.2192 2.22961 26.0419 1.74971 23.8625 1.2721C23.6247 1.21954 23.3739 1.29495 23.1988 1.47549C22.0853 2.61124 20.9697 3.747 19.8562 4.88276H19.854C19.8238 4.91475 19.7957 4.94446 19.7654 4.97417C19.7373 5.00388 19.707 5.03359 19.6789 5.06329C16.5006 8.30375 13.3202 11.5465 10.1419 14.7869C9.9495 14.9858 10.049 15.3308 10.3149 15.3811C11.8132 15.6576 14.1894 15.9524 17.0974 15.8861C17.5406 15.877 18.053 15.7947 18.5179 15.765C18.4876 15.8176 18.4616 15.8724 18.4379 15.9273C18.4854 15.8519 18.5892 15.7033 18.6216 15.6553C18.7103 15.5228 18.8097 15.4039 18.9243 15.3034H18.9265C18.987 15.244 19.0497 15.1937 19.1168 15.148C19.1751 15.1092 19.2357 15.0726 19.2962 15.0452H19.2984C19.8043 14.7938 20.3513 14.8395 20.587 14.8715C20.6173 14.8738 20.641 14.8783 20.6605 14.8806C20.7924 14.9012 20.9329 14.9149 21.0518 14.9538C21.1016 14.9698 21.1491 14.9858 21.1967 15.004C21.348 15.0612 21.4886 15.132 21.6161 15.2097C21.4886 15.132 21.2918 14.9035 21.1405 14.8464C21.2334 13.1164 21.3545 11.5876 21.4345 9.85313C21.1189 8.96189 29.0083 5.82884 29.324 6.72008C30.6234 8.14378 31.9466 9.3161 33.2482 10.7147C33.9811 10.1936 34.6644 9.65431 35.3 9.10586C36.1173 8.4043 36.8545 7.68902 37.5205 6.98517L33.6244 3.41793Z" fill="#4B6B9C"/>
<defs>
<linearGradient id="paint0_linear" x1="131" y1="6" x2="131" y2="53" gradientUnits="userSpaceOnUse">
<stop stop-color="#E47B00"/>
<stop offset="1" stop-color="#D76F24"/>
</linearGradient>
</defs>
</svg>
