<svg width="57" height="62" viewBox="0 0 57 62" fill="none" xmlns="http://www.w3.org/2000/svg">
<path d="M47.8369 14.9721C46.2644 14.2636 43.786 13.2879 40.7712 12.712C39.4612 12.4606 38.0531 12.2846 36.5696 12.2412H36.5673C35.109 12.1955 33.5777 12.2755 32.0075 12.536C32.0052 12.5383 32.0052 12.5383 32.0029 12.536C30.9828 12.7051 29.9421 12.9496 28.8968 13.2833C27.9794 13.5758 26.6169 14.0306 25.0764 14.8532H25.0742C24.9372 14.9264 24.8003 15.0018 24.6611 15.0818H24.6588C24.6337 15.0955 24.6086 15.1115 24.5835 15.1252C24.5447 15.148 24.5036 15.1709 24.4625 15.1937C24.442 15.2052 24.4192 15.2189 24.3963 15.2326C24.2001 15.3446 23.8943 15.5205 23.4903 15.7833C23.4287 15.8222 23.3671 15.8633 23.3009 15.9067C22.3264 16.5557 20.9274 17.6595 19.4462 19.1335C19.4417 19.138 19.4394 19.1403 19.4348 19.1449C19.2226 19.3528 19.0103 19.5722 18.7981 19.7985C15.9385 22.8492 12.9511 26.8141 11.6593 29.4581C13.0241 34.0971 17.3101 37.4838 22.3857 37.4838C26.1902 37.4838 29.5496 35.5825 31.5693 32.6757C31.5191 32.6574 31.4689 32.6392 31.4164 32.6209C30.8459 32.4152 30.1931 32.1547 29.4948 31.8279C29.3989 31.7845 29.3031 31.7388 29.2072 31.6931C29.1981 31.6885 29.189 31.6839 29.1798 31.6794C29.084 31.6337 28.9859 31.5857 28.8877 31.5331C28.8147 31.4988 28.7439 31.4623 28.6732 31.4257C28.6093 31.3937 28.5454 31.3594 28.4815 31.3252C28.4085 31.2863 28.3354 31.2475 28.2624 31.2063C28.1574 31.1515 28.0502 31.0921 27.9452 31.0304C27.8379 30.9709 27.7306 30.9092 27.6257 30.8453C27.5184 30.7836 27.4111 30.7196 27.3039 30.651C26.9684 30.4453 26.6329 30.2237 26.2997 29.9883C26.2061 29.922 26.1126 29.8558 26.019 29.7849C25.9391 29.7255 25.8592 29.6661 25.7794 29.6044C25.6972 29.5427 25.615 29.4787 25.5329 29.4124C25.186 29.1382 24.8414 28.8434 24.5082 28.5326C24.4283 28.4572 24.3507 28.3818 24.2708 28.3041C24.1476 28.183 24.0243 28.0573 23.9034 27.9316C23.8052 27.8265 23.7071 27.7214 23.609 27.6139C23.5131 27.5065 23.4173 27.3969 23.3237 27.2849C23.253 27.2026 23.1822 27.1158 23.1137 27.0289C22.9791 26.8667 22.8536 26.6999 22.7303 26.5307C22.5683 26.3137 22.4154 26.0897 22.267 25.8589C22.1872 25.7332 22.1096 25.6075 22.0343 25.4795C22.0228 25.4613 22.016 25.443 22.0114 25.4247C21.9612 25.2693 22.1119 25.1162 22.267 25.1665C22.2853 25.171 22.3013 25.1779 22.3195 25.187C22.3675 25.2145 22.4199 25.2442 22.4747 25.2739C22.655 25.3744 22.865 25.4864 23.0978 25.6075C23.2575 25.6898 23.4287 25.7766 23.609 25.8635C24.4397 26.2748 25.4872 26.741 26.6489 27.1432C26.8383 27.2095 27.03 27.2734 27.2263 27.3351C27.4773 27.4151 27.7306 27.4905 27.9885 27.5614C28.1529 27.6071 28.3172 27.6505 28.4838 27.6894C28.8124 27.7716 29.1479 27.8448 29.4834 27.9065C29.6431 27.9362 29.8029 27.9636 29.9626 27.9887C30.7477 28.1098 31.5442 28.1693 32.327 28.1373C32.4388 28.135 32.5529 28.1281 32.6648 28.119C32.788 28.1121 32.9113 28.1007 33.0345 28.087C33.1554 28.0733 33.2787 28.0573 33.3996 28.039C33.4225 27.9316 33.4476 27.8196 33.4795 27.7099C33.4795 27.7076 33.4818 27.7031 33.4818 27.7008C34.0067 25.6235 35.0314 23.4685 36.9508 21.7775C39.185 19.8076 41.6384 18.9278 43.6467 18.553C45.3059 18.2422 46.6593 18.2742 47.3348 18.3199C47.5197 18.3314 47.6794 18.1965 47.7045 18.0137C47.8209 17.1293 47.9373 16.2427 48.0514 15.3583C48.0742 15.196 47.9852 15.0383 47.8369 14.9721ZM29.3989 17.4767C29.1182 17.4767 28.8923 17.2482 28.8923 16.9671C28.8923 16.686 29.1182 16.4575 29.3989 16.4575C29.6796 16.4575 29.9079 16.686 29.9079 16.9671C29.9079 17.2482 29.6796 17.4767 29.3989 17.4767Z" fill="#D1D3D4"/>
<path d="M23.4903 15.7833C23.4286 15.8222 23.367 15.8633 23.3008 15.9067C22.3263 16.5557 20.9273 17.6595 19.4462 19.1335C19.0491 18.4525 18.9624 16.9648 19.4462 15.9547C19.4508 15.9456 19.4553 15.9364 19.4622 15.9273C19.5124 15.8519 19.6219 15.7033 19.6562 15.6553C19.7497 15.5228 19.8547 15.404 19.9757 15.3034H19.978C20.0419 15.244 20.108 15.1937 20.1788 15.148C20.2404 15.1092 20.3043 15.0726 20.3682 15.0452H20.3705C20.9045 14.7938 21.4819 14.8395 21.7307 14.8715C21.7626 14.8738 21.7877 14.8784 21.8083 14.8806C21.9475 14.9012 22.0958 14.9149 22.2214 14.9538C22.2738 14.9698 22.3241 14.9858 22.3743 15.004C22.534 15.0612 22.6824 15.132 22.817 15.2097H22.8193C22.8581 15.2326 22.8946 15.2531 22.9288 15.276C22.9745 15.3057 23.0201 15.3354 23.0612 15.3651C23.0772 15.3765 23.0932 15.388 23.1069 15.3994C23.2506 15.5045 23.3876 15.6713 23.4903 15.7833Z" fill="#C0C2C4"/>
<path d="M44.4409 29.3896C43.5646 36.6886 37.7495 49.5042 25.8661 61.1703C25.6789 61.3531 25.3891 61.3874 25.1654 61.2502C11.4151 52.8657 3.42742 40.233 1.26617 33.2128C-0.607525 27.1272 0.152449 22.0609 0.152449 22.0609C0.239173 21.4896 0.780056 18.0503 2.46661 15.0269C7.33227 6.29508 19.5512 5.00393 20.957 4.88281C20.9251 4.91481 20.8954 4.94451 20.8635 4.97422C20.8338 5.00393 20.8018 5.03364 20.7722 5.06335C17.4173 8.3038 14.0602 11.5465 10.7054 14.787C10.5023 14.9858 10.6072 15.3309 10.8879 15.3811C12.4695 15.6577 14.9777 15.9525 18.0472 15.8862H18.1066C14.0397 17.5613 11.2029 21.6084 11.2029 26.284C11.2029 27.3855 11.3626 28.4527 11.6593 29.4582C13.0241 34.0972 17.3101 37.4839 22.3857 37.4839C26.1901 37.4839 29.5495 35.5826 31.5693 32.6758C31.5967 32.6369 31.6218 32.5981 31.6469 32.5592C31.6537 32.5523 31.6583 32.5478 31.6629 32.5409C31.6971 32.4884 31.7336 32.4358 31.7633 32.3832C31.8021 32.3284 31.8386 32.2735 31.8683 32.2187C31.923 32.1364 31.9732 32.0519 32.0212 31.9673C32.044 31.9331 32.0645 31.8988 32.0828 31.8645C32.1444 31.7571 32.206 31.6474 32.2631 31.5377C32.2813 31.508 32.2973 31.476 32.311 31.4463C32.3612 31.3526 32.4091 31.2589 32.4525 31.1629C32.489 31.0921 32.5233 31.0212 32.5552 30.9504C32.6054 30.8407 32.6533 30.7287 32.7013 30.6168C32.7127 30.5916 32.7218 30.5642 32.7332 30.5391C32.7834 30.4179 32.8291 30.2968 32.8747 30.1734C32.8861 30.1483 32.8953 30.1209 32.9021 30.0957C32.9478 29.9723 32.9888 29.8489 33.0299 29.7232C33.0299 29.721 33.0322 29.7187 33.0322 29.7141C33.0801 29.5701 33.1235 29.4239 33.1623 29.2776C33.1646 29.2685 33.1668 29.2593 33.1691 29.2502C33.281 28.8526 33.3677 28.4458 33.4339 28.0322C33.4498 27.9248 33.4658 27.8174 33.4795 27.71C33.4795 27.7077 33.4818 27.7031 33.4818 27.7008C34.0067 25.6235 35.0314 23.4686 36.9507 21.7775C39.185 19.8076 41.6384 18.9278 43.6467 18.553C43.9982 19.7528 45.0822 24.0444 44.4409 29.3896Z" fill="#E47B00"/>
<path d="M36.5673 12.2412C35.109 12.1955 33.5776 12.2755 32.0075 12.536C32.0052 12.5383 32.0029 12.536 32.0029 12.536C30.9828 12.7051 29.9421 12.9496 28.8968 13.2833C27.9794 13.5758 26.6169 14.0305 25.0764 14.8532H25.0741C24.9372 14.9264 24.8003 15.0018 24.6611 15.0818H24.6588C24.6337 15.0955 24.6086 15.1115 24.5835 15.1252C24.5447 15.148 24.5036 15.1709 24.4625 15.1937C24.442 15.2052 24.4192 15.2189 24.3963 15.2326C24.2001 15.3446 23.8942 15.5205 23.4903 15.7833C23.3876 15.6713 23.2507 15.5045 23.1069 15.3994C23.0932 15.388 23.0772 15.3765 23.0612 15.3651C23.0202 15.3354 22.9745 15.3057 22.9289 15.276C22.8946 15.2531 22.8581 15.2326 22.8193 15.2097H22.817C22.6824 15.132 22.4747 14.9035 22.315 14.8464C22.4131 13.1165 22.5409 11.5876 22.6253 9.85315C22.2921 8.96191 30.6199 5.82887 30.9531 6.72011C32.3247 8.1438 33.7214 9.31613 35.0953 10.7147C35.1615 10.7832 35.23 10.8518 35.2961 10.9204C35.7206 11.3614 36.1451 11.8002 36.5673 12.2412Z" fill="#668EC9"/>
<path d="M40.7711 12.712C39.4612 12.4606 38.053 12.2846 36.5696 12.2412H36.5673C36.1451 11.8002 35.7206 11.3614 35.2961 10.9204C35.2299 10.8518 35.1615 10.7833 35.0953 10.7147C35.869 10.1937 36.5901 9.65435 37.2611 9.1059C38.2516 9.83945 39.1804 10.701 40.0112 11.7111C40.2805 12.0378 40.5338 12.3738 40.7711 12.712Z" fill="#F89938"/>
<path d="M33.3357 28.3338C33.2696 28.6423 33.2148 28.9485 33.1691 29.2502C33.1669 29.2593 33.1646 29.2684 33.1623 29.2776C33.1212 29.4238 33.0778 29.5701 33.0322 29.7141C33.0322 29.7186 33.0299 29.7209 33.0299 29.7232C32.9888 29.8489 32.9478 29.9723 32.9021 30.0957C32.8953 30.1208 32.8861 30.1483 32.8747 30.1734C32.8291 30.2968 32.7834 30.4179 32.7332 30.539C32.7218 30.5642 32.7127 30.5916 32.7013 30.6167C32.6534 30.7287 32.6054 30.8407 32.5552 30.9504C32.5233 31.0212 32.489 31.0921 32.4525 31.1629C32.4092 31.2589 32.3612 31.3526 32.311 31.4463C32.2973 31.476 32.2814 31.508 32.2631 31.5377C32.206 31.6474 32.1444 31.7571 32.0828 31.8645C32.0645 31.8987 32.044 31.933 32.0212 31.9673C31.9733 32.0519 31.923 32.1364 31.8683 32.2187C31.8386 32.2735 31.8021 32.3284 31.7633 32.3832C31.7268 32.4426 31.688 32.502 31.6469 32.5592C31.5921 32.6254 31.5008 32.6506 31.4164 32.6209C30.8458 32.4152 30.1931 32.1547 29.4948 31.8279C29.3989 31.7845 29.3031 31.7388 29.2072 31.6931C29.1981 31.6885 29.189 31.6839 29.1798 31.6794C29.0817 31.6314 28.9859 31.5834 28.8877 31.5331C28.8147 31.4988 28.7439 31.4623 28.6732 31.4257C28.6093 31.3937 28.5454 31.3594 28.4815 31.3251C28.4085 31.2863 28.3354 31.2475 28.2624 31.2063C28.1551 31.1492 28.0501 31.0898 27.9452 31.0304C27.8379 30.9709 27.7306 30.9092 27.6257 30.8453C27.5184 30.7835 27.4111 30.7173 27.3039 30.651C26.9684 30.4453 26.6329 30.2237 26.2997 29.9883C26.2061 29.922 26.1126 29.8557 26.019 29.7849C25.9391 29.7255 25.8592 29.6661 25.7794 29.6044C25.6972 29.5427 25.615 29.4787 25.5329 29.4124C25.186 29.1382 24.8414 28.8434 24.5082 28.5326C24.4283 28.4572 24.3507 28.3818 24.2708 28.3041C24.1476 28.183 24.0243 28.0573 23.9034 27.9316C23.8052 27.8265 23.7071 27.7213 23.609 27.6139C23.5131 27.5065 23.4173 27.3968 23.3237 27.2849C23.2529 27.2026 23.1822 27.1158 23.1137 27.0289C22.9791 26.8667 22.8536 26.6999 22.7303 26.5307C22.5706 26.3136 22.4177 26.0897 22.267 25.8589C22.1872 25.7332 22.1096 25.6075 22.0342 25.4795C22.0228 25.4613 22.016 25.443 22.0114 25.4247C21.9703 25.2739 22.1141 25.1253 22.267 25.1665C22.2853 25.171 22.3013 25.1779 22.3195 25.187C22.3675 25.2145 22.4199 25.2442 22.4747 25.2739C22.655 25.3744 22.865 25.4864 23.0978 25.6075C23.2575 25.6898 23.4287 25.7766 23.609 25.8635C24.4397 26.2748 25.4872 26.741 26.6489 27.1432C26.8383 27.2095 27.03 27.2734 27.2263 27.3351C27.4773 27.4151 27.7306 27.4905 27.9885 27.5614C28.1528 27.6071 28.3172 27.6505 28.4838 27.6894C28.8124 27.7716 29.1479 27.8448 29.4834 27.9065C29.6431 27.9362 29.8029 27.9636 29.9626 27.9887C30.7477 28.1098 31.5442 28.1693 32.327 28.1373C32.4388 28.135 32.5529 28.1281 32.6648 28.119C32.788 28.1121 32.9112 28.1007 33.0345 28.087C33.0573 28.0847 33.0801 28.0824 33.103 28.0801C33.2467 28.0618 33.3654 28.1898 33.3357 28.3338Z" fill="black"/>
<path d="M39.6049 6.98521C40.2257 6.36134 40.7871 5.74433 41.2892 5.15246C41.4604 4.95136 41.3531 4.64057 41.0952 4.58572C39.2284 4.19723 37.3615 3.80874 35.4924 3.41797" fill="#4B6B9C"/>
<path d="M19.5466 15.765C19.5147 15.8176 19.4873 15.8725 19.4622 15.9273C19.4554 15.9364 19.4508 15.9456 19.4462 15.9547C18.9624 16.9648 19.0491 18.4525 19.4462 19.1335C19.4417 19.138 19.4394 19.1403 19.4348 19.1449C19.2226 19.3529 19.0103 19.5722 18.7981 19.7985C15.9385 22.8493 12.9511 26.8141 11.6593 29.4581C11.3627 28.4526 11.2029 27.3854 11.2029 26.2839C11.2029 21.6084 14.0397 17.5612 18.1066 15.8862H18.0472C18.5151 15.877 19.056 15.7948 19.5466 15.765Z" fill="white"/>
<path d="M50.8722 8.32894C50.8722 8.49348 50.8357 8.64888 50.7672 8.78599C50.5983 9.13792 50.24 9.38015 49.8247 9.38015C49.245 9.38015 48.7748 8.90939 48.7748 8.32894C48.7748 7.7485 49.245 7.27774 49.8247 7.27774C50.0278 7.27774 50.2195 7.33716 50.3792 7.43771C50.6759 7.62281 50.8722 7.95188 50.8722 8.32894Z" fill="#E4D65B"/>
<path d="M55.8862 8.30838C55.642 8.85912 56.7877 9.78007 56.6576 9.93775C56.5503 10.0657 55.7949 9.49442 55.1148 9.16534C53.5424 8.40893 51.9083 8.60089 50.7672 8.786C50.8357 8.64888 50.8722 8.49349 50.8722 8.32895C50.8722 7.95189 50.6759 7.62282 50.3792 7.43771C51.9448 6.30881 54.1312 6.70187 56.0802 6.49391C56.135 6.48934 56.3426 6.52591 56.3655 6.58532C56.3655 6.60132 56.3609 6.72015 55.4708 7.29831C55.4343 7.32117 55.4457 7.3783 55.4891 7.38744C56.968 7.66852 57.0022 7.71423 56.9999 7.79421C56.9931 7.95189 56.0756 7.87648 55.8862 8.30838Z" fill="#EFE05E"/>
<path d="M29.9079 16.9671C29.9079 17.2482 29.6796 17.4767 29.3989 17.4767C29.1182 17.4767 28.8923 17.2482 28.8923 16.9671C28.8923 16.686 29.1182 16.4575 29.3989 16.4575C29.6796 16.4575 29.9079 16.686 29.9079 16.9671Z" fill="black"/>
<path d="M31.8402 3.09004C32.3961 2.21754 33.3962 0.873597 34.0384 1.00957C34.556 1.11903 35.2475 2.07083 35.4924 2.30186C40.7712 7.2848 41.0094 7.2567 41.6608 7.55126C42.3247 7.85154 47.1588 8.79465 48.7748 8.47335" stroke="#4D4D4F" stroke-miterlimit="10"/>
<path d="M35.4924 3.41793C34.3582 3.18255 33.2216 2.94489 32.0851 2.70951C29.7869 2.22961 27.4887 1.74971 25.1882 1.2721C24.9372 1.21954 24.6725 1.29495 24.4876 1.47549C23.3123 2.61124 22.1347 3.747 20.9593 4.88276H20.957C20.9251 4.91475 20.8954 4.94446 20.8635 4.97417C20.8338 5.00388 20.8018 5.03359 20.7722 5.06329C17.4173 8.30375 14.0602 11.5465 10.7054 14.7869C10.5023 14.9858 10.6072 15.3308 10.8879 15.3811C12.4695 15.6576 14.9777 15.9524 18.0472 15.8861C18.5151 15.877 19.056 15.7947 19.5466 15.765C19.5147 15.8176 19.4873 15.8724 19.4622 15.9273C19.5124 15.8519 19.6219 15.7033 19.6562 15.6553C19.7498 15.5228 19.8547 15.4039 19.9757 15.3034H19.978C20.0419 15.244 20.1081 15.1937 20.1788 15.148C20.2404 15.1092 20.3043 15.0726 20.3682 15.0452H20.3705C20.9045 14.7938 21.4819 14.8395 21.7307 14.8715C21.7627 14.8738 21.7878 14.8783 21.8083 14.8806C21.9475 14.9012 22.0959 14.9149 22.2214 14.9538C22.2739 14.9698 22.3241 14.9858 22.3743 15.004C22.534 15.0612 22.6824 15.132 22.817 15.2097C22.6824 15.132 22.4747 14.9035 22.315 14.8464C22.4131 13.1164 22.5409 11.5876 22.6253 9.85313C22.2921 8.96189 30.6199 5.82884 30.9531 6.72008C32.3247 8.14378 33.7214 9.3161 35.0953 10.7147C35.869 10.1936 36.5901 9.65431 37.2611 9.10586C38.1238 8.4043 38.902 7.68902 39.6049 6.98517L35.4924 3.41793Z" fill="#4B6B9C"/>
</svg>
